<svg version="1.1" viewBox="0 0 1024 1024" xmlns="http://www.w3.org/2000/svg">
  <rect width="1024" height="1024" fill="white"/>
  <rect width="1024" height="1024" fill="none" stroke="black" stroke-width="4"/>
  <g stroke="black" stroke-dasharray="4,4" stroke-width="1" transform="scale(4, 4)">
    <line x1="0" y1="0" x2="256" y2="256"/>
    <line x1="256" y1="0" x2="0" y2="256"/>
    <line x1="128" y1="0" x2="128" y2="256"/>
    <line x1="0" y1="128" x2="256" y2="128"/>
  </g>
  <g transform="scale(1, -1) translate(0, -900)">
    <style type="text/css">
        .stroke1 {fill: #808080;}
        .stroke2 {fill: #808080;}
        .stroke3 {fill: #808080;}
        .stroke4 {fill: #808080;}
        .stroke5 {fill: #808080;}
        .stroke6 {fill: #808080;}
        .stroke7 {fill: #808080;}
        .stroke8 {fill: #808080;}
        .stroke9 {fill: #808080;}
        .stroke10 {fill: #808080;}
        .stroke11 {fill: #808080;}
        .stroke12 {fill: #808080;}
        .stroke13 {fill: #808080;}
        .stroke14 {fill: #808080;}
        .stroke15 {fill: #808080;}
        .stroke16 {fill: #808080;}
        .stroke17 {fill: #808080;}
        .stroke18 {fill: #808080;}
        .stroke19 {fill: #808080;}
        .stroke20 {fill: #808080;}
        
    </style>

    <path d="M 873 94 Q 904 107 894 147 Q 875 205 863 295 Q 862 313 854 322 Q 847 331 841 305 Q 828 226 810 175 Q 798 150 772 136 Q 634 76 381 108 Q 345 115 324 129 Q 287 150 281 180 Q 253 270 379 434 Q 434 507 575 635 Q 612 669 654 691 Q 670 697 673 707 Q 680 722 661 736 Q 627 760 585 772 Q 575 776 559 769 Q 474 735 426 725 Q 356 712 253 709 Q 240 710 235 702 Q 231 695 245 682 Q 261 666 278 661 Q 315 652 512 707 Q 525 711 531 704 Q 537 697 524 685 Q 260 379 237 252 Q 236 249 235 243 Q 225 186 239 148 Q 245 120 273 97 Q 375 4 674 36 Q 680 37 686 38 Q 771 48 873 94 Z" class="stroke1"/>
    <text x="244" y="698" transform="translate(244,698) scale(1,-1) translate(-244,-698)" font-family="Helvetica" font-size="72" font-weight="800" fill="#000000">1</text>
</g>
</svg>