<svg version="1.1" viewBox="0 0 1024 1024" xmlns="http://www.w3.org/2000/svg">
  <rect width="1024" height="1024" fill="white"/>
  <rect width="1024" height="1024" fill="none" stroke="black" stroke-width="4"/>
  <g stroke="black" stroke-dasharray="4,4" stroke-width="1" transform="scale(4, 4)">
    <line x1="0" y1="0" x2="256" y2="256"/>
    <line x1="256" y1="0" x2="0" y2="256"/>
    <line x1="128" y1="0" x2="128" y2="256"/>
    <line x1="0" y1="128" x2="256" y2="128"/>
  </g>
  <g transform="scale(1, -1) translate(0, -900)">
    <style type="text/css">
        .stroke1 {fill: #808080;}
        .stroke2 {fill: #808080;}
        .stroke3 {fill: #808080;}
        .stroke4 {fill: #808080;}
        .stroke5 {fill: #808080;}
        .stroke6 {fill: #808080;}
        .stroke7 {fill: #808080;}
        .stroke8 {fill: #808080;}
        .stroke9 {fill: #808080;}
        .stroke10 {fill: #808080;}
        .stroke11 {fill: #808080;}
        .stroke12 {fill: #808080;}
        .stroke13 {fill: #808080;}
        .stroke14 {fill: #808080;}
        .stroke15 {fill: #808080;}
        .stroke16 {fill: #808080;}
        .stroke17 {fill: #808080;}
        .stroke18 {fill: #808080;}
        .stroke19 {fill: #808080;}
        .stroke20 {fill: #808080;}
        
    </style>

    <path d="M 475 485 Q 547 653 563 683 Q 573 695 565 708 Q 558 721 519 742 Q 491 757 480 754 Q 462 750 465 730 Q 484 537 292 308 Q 280 296 269 284 Q 212 217 68 102 Q 58 92 66 89 Q 76 86 90 92 Q 190 138 274 210 Q 380 294 462 456 L 475 485 Z" class="stroke1"/>
    <text x="483" y="736" transform="translate(483,736) scale(1,-1) translate(-483,-736)" font-family="Helvetica" font-size="72" font-weight="800" fill="#000000">1</text>
    <path d="M 462 456 Q 480 423 575 292 Q 666 171 733 101 Q 764 67 793 69 Q 881 75 958 79 Q 991 80 992 89 Q 993 98 956 112 Q 772 178 740 205 Q 617 304 490 466 Q 481 476 475 485 C 457 509 447 482 462 456 Z" class="stroke2"/>
    <text x="474" y="477" transform="translate(474,477) scale(1,-1) translate(-474,-477)" font-family="Helvetica" font-size="72" font-weight="800" fill="#000000">2</text>
</g>
</svg>