<svg version="1.1" viewBox="0 0 1024 1024" xmlns="http://www.w3.org/2000/svg">
  <rect width="1024" height="1024" fill="white"/>
  <rect width="1024" height="1024" fill="none" stroke="black" stroke-width="4"/>
  <g stroke="black" stroke-dasharray="4,4" stroke-width="1" transform="scale(4, 4)">
    <line x1="0" y1="0" x2="256" y2="256"/>
    <line x1="256" y1="0" x2="0" y2="256"/>
    <line x1="128" y1="0" x2="128" y2="256"/>
    <line x1="0" y1="128" x2="256" y2="128"/>
  </g>
  <g transform="scale(1, -1) translate(0, -900)">
    <style type="text/css">
        .stroke1 {fill: #808080;}
        .stroke2 {fill: #808080;}
        .stroke3 {fill: #808080;}
        .stroke4 {fill: #808080;}
        .stroke5 {fill: #808080;}
        .stroke6 {fill: #808080;}
        .stroke7 {fill: #808080;}
        .stroke8 {fill: #808080;}
        .stroke9 {fill: #808080;}
        .stroke10 {fill: #808080;}
        .stroke11 {fill: #808080;}
        .stroke12 {fill: #808080;}
        .stroke13 {fill: #808080;}
        .stroke14 {fill: #808080;}
        .stroke15 {fill: #808080;}
        .stroke16 {fill: #808080;}
        .stroke17 {fill: #808080;}
        .stroke18 {fill: #808080;}
        .stroke19 {fill: #808080;}
        .stroke20 {fill: #808080;}
        
    </style>

    <path d="M 310 637 Q 340 577 311 357 Q 299 300 269 232 Q 236 163 146 80 Q 130 67 125 59 Q 122 50 136 50 Q 178 50 258 125 Q 354 224 386 446 Q 395 524 405 602 Q 412 627 389 639 Q 334 669 315 667 Q 293 663 310 637 Z" class="stroke1"/>
    <text x="317" y="651" transform="translate(317,651) scale(1,-1) translate(-317,-651)" font-family="Helvetica" font-size="72" font-weight="800" fill="#000000">1</text>
    <path d="M 979 84 Q 954 144 939 247 Q 936 265 930 272 Q 920 279 916 262 Q 903 201 887 155 Q 880 124 852 105 Q 825 78 707 87 Q 641 96 622 132 Q 595 201 620 515 Q 627 621 641 666 Q 653 697 566 747 Q 547 760 526 749 Q 513 742 536 711 Q 564 671 565 570 Q 565 489 557 329 Q 542 128 591 71 Q 630 32 708 20 Q 753 16 816 16 Q 895 17 953 42 Q 993 54 979 84 Z" class="stroke2"/>
    <text x="535" y="738" transform="translate(535,738) scale(1,-1) translate(-535,-738)" font-family="Helvetica" font-size="72" font-weight="800" fill="#000000">2</text>
</g>
</svg>