<svg version="1.1" viewBox="0 0 1024 1024" xmlns="http://www.w3.org/2000/svg">
  <rect width="1024" height="1024" fill="white"/>
  <rect width="1024" height="1024" fill="none" stroke="black" stroke-width="4"/>
  <g stroke="black" stroke-dasharray="4,4" stroke-width="1" transform="scale(4, 4)">
    <line x1="0" y1="0" x2="256" y2="256"/>
    <line x1="256" y1="0" x2="0" y2="256"/>
    <line x1="128" y1="0" x2="128" y2="256"/>
    <line x1="0" y1="128" x2="256" y2="128"/>
  </g>
  <g transform="scale(1, -1) translate(0, -900)">
    <style type="text/css">
        .stroke1 {fill: #808080;}
        .stroke2 {fill: #808080;}
        .stroke3 {fill: #808080;}
        .stroke4 {fill: #808080;}
        .stroke5 {fill: #808080;}
        .stroke6 {fill: #808080;}
        .stroke7 {fill: #808080;}
        .stroke8 {fill: #808080;}
        .stroke9 {fill: #808080;}
        .stroke10 {fill: #808080;}
        .stroke11 {fill: #808080;}
        .stroke12 {fill: #808080;}
        .stroke13 {fill: #808080;}
        .stroke14 {fill: #808080;}
        .stroke15 {fill: #808080;}
        .stroke16 {fill: #808080;}
        .stroke17 {fill: #808080;}
        .stroke18 {fill: #808080;}
        .stroke19 {fill: #808080;}
        .stroke20 {fill: #808080;}
        
    </style>

    <path d="M 265 683 Q 253 707 242 716 Q 223 731 221 705 Q 225 674 176 611 Q 140 575 167 515 Q 182 488 202 515 Q 214 533 260 650 C 270 674 270 674 265 683 Z" class="stroke1"/>
    <text x="232" y="710" transform="translate(232,710) scale(1,-1) translate(-232,-710)" font-family="Helvetica" font-size="72" font-weight="800" fill="#000000">1</text>
    <path d="M 260 650 Q 279 641 336 651 Q 474 691 701 706 Q 725 707 737 705 Q 755 692 752 684 Q 752 681 721 603 Q 714 590 721 585 Q 728 581 745 594 Q 800 636 846 651 Q 885 666 883 675 Q 882 685 808 737 Q 787 753 713 741 Q 563 725 367 695 Q 315 688 265 683 C 235 680 231 656 260 650 Z" class="stroke2"/>
    <text x="266" y="655" transform="translate(266,655) scale(1,-1) translate(-266,-655)" font-family="Helvetica" font-size="72" font-weight="800" fill="#000000">2</text>
</g>
</svg>