<svg version="1.1" viewBox="0 0 1024 1024" xmlns="http://www.w3.org/2000/svg">
  <rect width="1024" height="1024" fill="white"/>
  <rect width="1024" height="1024" fill="none" stroke="black" stroke-width="4"/>
  <g stroke="black" stroke-dasharray="4,4" stroke-width="1" transform="scale(4, 4)">
    <line x1="0" y1="0" x2="256" y2="256"/>
    <line x1="256" y1="0" x2="0" y2="256"/>
    <line x1="128" y1="0" x2="128" y2="256"/>
    <line x1="0" y1="128" x2="256" y2="128"/>
  </g>
  <g transform="scale(1, -1) translate(0, -900)">
    <style type="text/css">
        .stroke1 {fill: #808080;}
        .stroke2 {fill: #808080;}
        .stroke3 {fill: #808080;}
        .stroke4 {fill: #808080;}
        .stroke5 {fill: #808080;}
        .stroke6 {fill: #808080;}
        .stroke7 {fill: #808080;}
        .stroke8 {fill: #808080;}
        .stroke9 {fill: #808080;}
        .stroke10 {fill: #808080;}
        .stroke11 {fill: #808080;}
        .stroke12 {fill: #808080;}
        .stroke13 {fill: #808080;}
        .stroke14 {fill: #808080;}
        .stroke15 {fill: #808080;}
        .stroke16 {fill: #808080;}
        .stroke17 {fill: #808080;}
        .stroke18 {fill: #808080;}
        .stroke19 {fill: #808080;}
        .stroke20 {fill: #808080;}
        
    </style>

    <path d="M 395 691 Q 394 692 392 693 Q 340 720 324 717 Q 302 714 319 690 Q 352 632 330 422 Q 323 335 277 234 Q 244 158 141 62 Q 125 49 121 41 Q 120 34 132 34 Q 150 34 172 49 Q 226 85 259 119 Q 352 221 377 378 Q 395 478 401 627 Q 404 643 406 654 C 411 683 411 683 395 691 Z" class="stroke1"/>
    <text x="325" y="703" transform="translate(325,703) scale(1,-1) translate(-325,-703)" font-family="Helvetica" font-size="72" font-weight="800" fill="#000000">1</text>
    <path d="M 970 80 Q 992 89 984 112 Q 969 164 964 237 Q 961 277 953 284 Q 944 288 941 276 Q 905 152 866 122 Q 844 107 791 102 Q 721 96 682 108 Q 642 118 626 139 Q 610 158 603 191 Q 594 231 608 375 Q 621 522 647 617 Q 657 662 696 694 Q 712 713 694 728 Q 670 747 617 766 Q 595 772 576 760 Q 501 708 395 691 C 366 685 377 647 406 654 Q 427 657 555 696 Q 568 702 576 698 Q 580 694 581 679 Q 547 261 549 216 Q 549 27 798 35 Q 819 38 842 40 Q 906 49 970 80 Z" class="stroke2"/>
    <text x="407" y="661" transform="translate(407,661) scale(1,-1) translate(-407,-661)" font-family="Helvetica" font-size="72" font-weight="800" fill="#000000">2</text>
</g>
</svg>