<svg version="1.1" viewBox="0 0 1024 1024" xmlns="http://www.w3.org/2000/svg">
  <rect width="1024" height="1024" fill="white"/>
  <rect width="1024" height="1024" fill="none" stroke="black" stroke-width="4"/>
  <g stroke="black" stroke-dasharray="4,4" stroke-width="1" transform="scale(4, 4)">
    <line x1="0" y1="0" x2="256" y2="256"/>
    <line x1="256" y1="0" x2="0" y2="256"/>
    <line x1="128" y1="0" x2="128" y2="256"/>
    <line x1="0" y1="128" x2="256" y2="128"/>
  </g>
  <g transform="scale(1, -1) translate(0, -900)">
    <style type="text/css">
        .stroke1 {fill: #808080;}
        .stroke2 {fill: #808080;}
        .stroke3 {fill: #808080;}
        .stroke4 {fill: #808080;}
        .stroke5 {fill: #808080;}
        .stroke6 {fill: #808080;}
        .stroke7 {fill: #808080;}
        .stroke8 {fill: #808080;}
        .stroke9 {fill: #808080;}
        .stroke10 {fill: #808080;}
        .stroke11 {fill: #808080;}
        .stroke12 {fill: #808080;}
        .stroke13 {fill: #808080;}
        .stroke14 {fill: #808080;}
        .stroke15 {fill: #808080;}
        .stroke16 {fill: #808080;}
        .stroke17 {fill: #808080;}
        .stroke18 {fill: #808080;}
        .stroke19 {fill: #808080;}
        .stroke20 {fill: #808080;}
        
    </style>

    <path d="M 484 621 Q 599 646 707 656 Q 732 657 737 645 Q 746 623 739 568 Q 715 366 671 259 Q 649 192 625 172 Q 612 160 586 169 Q 552 179 521 192 Q 496 201 513 177 Q 559 122 582 81 Q 592 59 614 64 Q 638 67 668 99 Q 755 187 792 517 Q 799 590 829 634 Q 848 659 838 671 Q 820 693 779 711 Q 751 727 719 713 Q 622 677 474 655 Q 347 637 273 640 Q 248 644 248 630 Q 247 618 272 600 Q 303 576 335 586 Q 389 601 442 611 L 484 621 Z" class="stroke1"/>
    <text x="260" y="629" transform="translate(260,629) scale(1,-1) translate(-260,-629)" font-family="Helvetica" font-size="72" font-weight="800" fill="#000000">1</text>
    <path d="M 442 611 Q 442 410 281 247 Q 233 192 116 100 Q 107 91 115 88 Q 122 85 136 90 Q 314 168 401 307 Q 450 377 496 494 Q 511 530 531 563 Q 540 573 533 586 Q 518 610 484 621 C 456 633 443 638 442 611 Z" class="stroke2"/>
    <text x="451" y="603" transform="translate(451,603) scale(1,-1) translate(-451,-603)" font-family="Helvetica" font-size="72" font-weight="800" fill="#000000">2</text>
</g>
</svg>