<svg version="1.1" viewBox="0 0 1024 1024" xmlns="http://www.w3.org/2000/svg">
  <rect width="1024" height="1024" fill="white"/>
  <rect width="1024" height="1024" fill="none" stroke="black" stroke-width="4"/>
  <g stroke="black" stroke-dasharray="4,4" stroke-width="1" transform="scale(4, 4)">
    <line x1="0" y1="0" x2="256" y2="256"/>
    <line x1="256" y1="0" x2="0" y2="256"/>
    <line x1="128" y1="0" x2="128" y2="256"/>
    <line x1="0" y1="128" x2="256" y2="128"/>
  </g>
  <g transform="scale(1, -1) translate(0, -900)">
    <style type="text/css">
        .stroke1 {fill: #808080;}
        .stroke2 {fill: #808080;}
        .stroke3 {fill: #808080;}
        .stroke4 {fill: #808080;}
        .stroke5 {fill: #808080;}
        .stroke6 {fill: #808080;}
        .stroke7 {fill: #808080;}
        .stroke8 {fill: #808080;}
        .stroke9 {fill: #808080;}
        .stroke10 {fill: #808080;}
        .stroke11 {fill: #808080;}
        .stroke12 {fill: #808080;}
        .stroke13 {fill: #808080;}
        .stroke14 {fill: #808080;}
        .stroke15 {fill: #808080;}
        .stroke16 {fill: #808080;}
        .stroke17 {fill: #808080;}
        .stroke18 {fill: #808080;}
        .stroke19 {fill: #808080;}
        .stroke20 {fill: #808080;}
        
    </style>

    <path d="M 521 525 Q 600 540 679 548 Q 704 549 709 537 Q 718 518 712 470 Q 693 293 656 200 Q 637 142 617 124 Q 604 111 576 120 Q 539 132 505 144 Q 480 151 497 129 Q 546 74 573 33 Q 583 9 606 16 Q 628 17 654 47 Q 732 122 767 421 Q 774 488 801 526 Q 820 551 810 563 Q 792 585 751 603 Q 723 619 691 605 Q 621 580 527 561 L 468 550 Q 303 531 241 532 Q 216 536 216 522 Q 215 510 240 492 Q 271 468 303 478 Q 382 499 461 514 L 521 525 Z" class="stroke1"/>
    <text x="228" y="521" transform="translate(228,521) scale(1,-1) translate(-228,-521)" font-family="Helvetica" font-size="72" font-weight="800" fill="#000000">1</text>
    <path d="M 461 514 Q 392 231 161 88 Q 142 75 123 60 Q 107 48 123 46 Q 139 45 182 62 Q 267 101 330 161 Q 402 224 449 318 Q 507 445 521 525 L 527 561 Q 558 717 573 745 Q 585 767 565 778 Q 507 820 474 810 Q 458 804 466 786 Q 496 723 468 550 L 461 514 Z" class="stroke2"/>
    <text x="478" y="795" transform="translate(478,795) scale(1,-1) translate(-478,-795)" font-family="Helvetica" font-size="72" font-weight="800" fill="#000000">2</text>
</g>
</svg>