<svg version="1.1" viewBox="0 0 1024 1024" xmlns="http://www.w3.org/2000/svg">
  <rect width="1024" height="1024" fill="white"/>
  <rect width="1024" height="1024" fill="none" stroke="black" stroke-width="4"/>
  <g stroke="black" stroke-dasharray="4,4" stroke-width="1" transform="scale(4, 4)">
    <line x1="0" y1="0" x2="256" y2="256"/>
    <line x1="256" y1="0" x2="0" y2="256"/>
    <line x1="128" y1="0" x2="128" y2="256"/>
    <line x1="0" y1="128" x2="256" y2="128"/>
  </g>
  <g transform="scale(1, -1) translate(0, -900)">
    <style type="text/css">
        .stroke1 {fill: #808080;}
        .stroke2 {fill: #808080;}
        .stroke3 {fill: #808080;}
        .stroke4 {fill: #808080;}
        .stroke5 {fill: #808080;}
        .stroke6 {fill: #808080;}
        .stroke7 {fill: #808080;}
        .stroke8 {fill: #808080;}
        .stroke9 {fill: #808080;}
        .stroke10 {fill: #808080;}
        .stroke11 {fill: #808080;}
        .stroke12 {fill: #808080;}
        .stroke13 {fill: #808080;}
        .stroke14 {fill: #808080;}
        .stroke15 {fill: #808080;}
        .stroke16 {fill: #808080;}
        .stroke17 {fill: #808080;}
        .stroke18 {fill: #808080;}
        .stroke19 {fill: #808080;}
        .stroke20 {fill: #808080;}
        
    </style>

    <path d="M 346 360 Q 506 403 693 547 Q 714 566 743 579 Q 759 589 756 600 Q 750 610 728 622 Q 676 644 647 641 Q 634 640 636 625 Q 627 544 362 389 Q 353 386 347 381 C 321 366 317 352 346 360 Z" class="stroke1"/>
    <text x="745" y="596" transform="translate(745,596) scale(1,-1) translate(-745,-596)" font-family="Helvetica" font-size="72" font-weight="800" fill="#000000">1</text>
    <path d="M 900 123 Q 878 190 867 308 Q 864 327 857 336 Q 848 343 844 326 Q 831 256 816 202 Q 810 165 779 142 Q 730 94 515 96 Q 431 103 401 121 Q 374 137 357 170 Q 339 213 346 360 L 347 381 Q 353 556 369 614 Q 378 636 345 660 Q 318 678 295 690 Q 276 703 257 691 Q 244 684 267 654 Q 294 617 295 567 Q 299 507 296 326 Q 289 158 330 111 Q 330 96 386 69 Q 462 32 669 40 Q 789 44 877 85 Q 913 95 900 123 Z" class="stroke2"/>
    <text x="265" y="681" transform="translate(265,681) scale(1,-1) translate(-265,-681)" font-family="Helvetica" font-size="72" font-weight="800" fill="#000000">2</text>
</g>
</svg>