<svg version="1.1" viewBox="0 0 1024 1024" xmlns="http://www.w3.org/2000/svg">
  <rect width="1024" height="1024" fill="white"/>
  <rect width="1024" height="1024" fill="none" stroke="black" stroke-width="4"/>
  <g stroke="black" stroke-dasharray="4,4" stroke-width="1" transform="scale(4, 4)">
    <line x1="0" y1="0" x2="256" y2="256"/>
    <line x1="256" y1="0" x2="0" y2="256"/>
    <line x1="128" y1="0" x2="128" y2="256"/>
    <line x1="0" y1="128" x2="256" y2="128"/>
  </g>
  <g transform="scale(1, -1) translate(0, -900)">
    <style type="text/css">
        .stroke1 {fill: #808080;}
        .stroke2 {fill: #808080;}
        .stroke3 {fill: #808080;}
        .stroke4 {fill: #808080;}
        .stroke5 {fill: #808080;}
        .stroke6 {fill: #808080;}
        .stroke7 {fill: #808080;}
        .stroke8 {fill: #808080;}
        .stroke9 {fill: #808080;}
        .stroke10 {fill: #808080;}
        .stroke11 {fill: #808080;}
        .stroke12 {fill: #808080;}
        .stroke13 {fill: #808080;}
        .stroke14 {fill: #808080;}
        .stroke15 {fill: #808080;}
        .stroke16 {fill: #808080;}
        .stroke17 {fill: #808080;}
        .stroke18 {fill: #808080;}
        .stroke19 {fill: #808080;}
        .stroke20 {fill: #808080;}
        
    </style>

    <path d="M 315 653 Q 357 635 406 643 Q 560 665 720 687 Q 793 699 804 708 Q 814 717 811 726 Q 804 741 771 751 Q 741 758 634 731 Q 468 695 310 689 Q 309 689 309 688 C 279 685 287 663 315 653 Z" class="stroke1"/>
    <text x="315" y="683" transform="translate(315,683) scale(1,-1) translate(-315,-683)" font-family="Helvetica" font-size="72" font-weight="800" fill="#000000">1</text>
    <path d="M 309 688 L 309 689 Q 263 714 242 716 Q 229 717 220 710 Q 210 703 224 685 Q 246 655 245 383 Q 242 149 205 73 Q 199 67 195 62 Q 173 43 186 24 Q 193 6 209 -7 Q 225 -20 245 -6 Q 252 3 318 26 Q 414 47 595 52 Q 779 55 844 46 Q 869 42 883 49 Q 895 55 895 63 Q 894 79 858 102 Q 822 123 801 122 Q 758 121 425 82 Q 298 61 288 75 Q 279 84 290 226 Q 284 257 306 546 Q 309 628 315 653 C 319 683 319 683 309 688 Z" class="stroke2"/>
    <text x="231" y="700" transform="translate(231,700) scale(1,-1) translate(-231,-700)" font-family="Helvetica" font-size="72" font-weight="800" fill="#000000">2</text>
</g>
</svg>