<svg version="1.1" viewBox="0 0 1024 1024" xmlns="http://www.w3.org/2000/svg">
  <rect width="1024" height="1024" fill="white"/>
  <rect width="1024" height="1024" fill="none" stroke="black" stroke-width="4"/>
  <g stroke="black" stroke-dasharray="4,4" stroke-width="1" transform="scale(4, 4)">
    <line x1="0" y1="0" x2="256" y2="256"/>
    <line x1="256" y1="0" x2="0" y2="256"/>
    <line x1="128" y1="0" x2="128" y2="256"/>
    <line x1="0" y1="128" x2="256" y2="128"/>
  </g>
  <g transform="scale(1, -1) translate(0, -900)">
    <style type="text/css">
        .stroke1 {fill: #808080;}
        .stroke2 {fill: #808080;}
        .stroke3 {fill: #808080;}
        .stroke4 {fill: #808080;}
        .stroke5 {fill: #808080;}
        .stroke6 {fill: #808080;}
        .stroke7 {fill: #808080;}
        .stroke8 {fill: #808080;}
        .stroke9 {fill: #808080;}
        .stroke10 {fill: #808080;}
        .stroke11 {fill: #808080;}
        .stroke12 {fill: #808080;}
        .stroke13 {fill: #808080;}
        .stroke14 {fill: #808080;}
        .stroke15 {fill: #808080;}
        .stroke16 {fill: #808080;}
        .stroke17 {fill: #808080;}
        .stroke18 {fill: #808080;}
        .stroke19 {fill: #808080;}
        .stroke20 {fill: #808080;}
        
    </style>

    <path d="M 364 648 Q 394 644 429 650 Q 586 675 751 701 Q 826 716 837 725 Q 849 734 843 745 Q 836 761 799 771 Q 763 781 666 751 Q 498 709 337 697 C 307 695 334 651 364 648 Z" class="stroke1"/>
    <text x="345" y="693" transform="translate(345,693) scale(1,-1) translate(-345,-693)" font-family="Helvetica" font-size="72" font-weight="800" fill="#000000">1</text>
    <path d="M 337 697 Q 292 727 262 718 Q 240 709 257 690 Q 288 657 288 623 Q 289 472 270 371 Q 237 178 109 54 Q 94 41 77 24 Q 64 15 61 11 Q 57 4 75 4 Q 111 4 204 90 Q 297 184 334 399 Q 343 466 349 566 Q 350 605 364 648 C 372 677 363 682 337 697 Z" class="stroke2"/>
    <text x="264" y="703" transform="translate(264,703) scale(1,-1) translate(-264,-703)" font-family="Helvetica" font-size="72" font-weight="800" fill="#000000">2</text>
</g>
</svg>