<svg version="1.1" viewBox="0 0 1024 1024" xmlns="http://www.w3.org/2000/svg">
  <rect width="1024" height="1024" fill="white"/>
  <rect width="1024" height="1024" fill="none" stroke="black" stroke-width="4"/>
  <g stroke="black" stroke-dasharray="4,4" stroke-width="1" transform="scale(4, 4)">
    <line x1="0" y1="0" x2="256" y2="256"/>
    <line x1="256" y1="0" x2="0" y2="256"/>
    <line x1="128" y1="0" x2="128" y2="256"/>
    <line x1="0" y1="128" x2="256" y2="128"/>
  </g>
  <g transform="scale(1, -1) translate(0, -900)">
    <style type="text/css">
        .stroke1 {fill: #808080;}
        .stroke2 {fill: #808080;}
        .stroke3 {fill: #808080;}
        .stroke4 {fill: #808080;}
        .stroke5 {fill: #808080;}
        .stroke6 {fill: #808080;}
        .stroke7 {fill: #808080;}
        .stroke8 {fill: #808080;}
        .stroke9 {fill: #808080;}
        .stroke10 {fill: #808080;}
        .stroke11 {fill: #808080;}
        .stroke12 {fill: #808080;}
        .stroke13 {fill: #808080;}
        .stroke14 {fill: #808080;}
        .stroke15 {fill: #808080;}
        .stroke16 {fill: #808080;}
        .stroke17 {fill: #808080;}
        .stroke18 {fill: #808080;}
        .stroke19 {fill: #808080;}
        .stroke20 {fill: #808080;}
        
    </style>

    <path d="M 440 550 Q 268 249 204 207 Q 147 174 163 120 Q 173 90 190 89 Q 197 90 219 104 Q 336 173 638 205 Q 675 209 735 210 C 765 211 746 240 716 240 Q 515 240 306 198 Q 258 189 286 224 Q 316 276 403 396 Q 536 583 565 605 Q 575 615 582 624 Q 586 640 562 660 Q 516 693 483 695 Q 465 695 457 687 Q 453 678 464 667 Q 471 655 475 633 Q 474 611 440 550 Z" class="stroke1"/>
    <text x="467" y="682" transform="translate(467,682) scale(1,-1) translate(-467,-682)" font-family="Helvetica" font-size="72" font-weight="800" fill="#000000">1</text>
    <path d="M 735 210 Q 760 170 787 123 Q 799 98 814 89 Q 823 85 834 94 Q 850 106 847 155 Q 848 230 640 401 Q 633 408 626 396 Q 622 381 631 368 Q 671 311 716 240 L 735 210 Z" class="stroke2"/>
    <text x="637" y="388" transform="translate(637,388) scale(1,-1) translate(-637,-388)" font-family="Helvetica" font-size="72" font-weight="800" fill="#000000">2</text>
</g>
</svg>