<svg version="1.1" viewBox="0 0 1024 1024" xmlns="http://www.w3.org/2000/svg">
  <rect width="1024" height="1024" fill="white"/>
  <rect width="1024" height="1024" fill="none" stroke="black" stroke-width="4"/>
  <g stroke="black" stroke-dasharray="4,4" stroke-width="1" transform="scale(4, 4)">
    <line x1="0" y1="0" x2="256" y2="256"/>
    <line x1="256" y1="0" x2="0" y2="256"/>
    <line x1="128" y1="0" x2="128" y2="256"/>
    <line x1="0" y1="128" x2="256" y2="128"/>
  </g>
  <g transform="scale(1, -1) translate(0, -900)">
    <style type="text/css">
        .stroke1 {fill: #808080;}
        .stroke2 {fill: #808080;}
        .stroke3 {fill: #808080;}
        .stroke4 {fill: #808080;}
        .stroke5 {fill: #808080;}
        .stroke6 {fill: #808080;}
        .stroke7 {fill: #808080;}
        .stroke8 {fill: #808080;}
        .stroke9 {fill: #808080;}
        .stroke10 {fill: #808080;}
        .stroke11 {fill: #808080;}
        .stroke12 {fill: #808080;}
        .stroke13 {fill: #808080;}
        .stroke14 {fill: #808080;}
        .stroke15 {fill: #808080;}
        .stroke16 {fill: #808080;}
        .stroke17 {fill: #808080;}
        .stroke18 {fill: #808080;}
        .stroke19 {fill: #808080;}
        .stroke20 {fill: #808080;}
        
    </style>

    <path d="M 269 744 Q 257 756 237 763 Q 225 770 212 765 Q 202 759 209 744 Q 231 657 234 646 Q 234 306 200 169 Q 179 87 219 39 Q 231 23 244 37 Q 254 50 258 68 L 264 110 Q 268 144 268 196 Q 286 686 292 701 C 295 726 293 727 269 744 Z" class="stroke1"/>
    <text x="220" y="753" transform="translate(220,753) scale(1,-1) translate(-220,-753)" font-family="Helvetica" font-size="72" font-weight="800" fill="#000000">1</text>
    <path d="M 707 92 Q 738 52 761 15 Q 771 -6 784 -5 Q 803 -4 820 35 Q 841 80 836 133 Q 823 317 817 657 Q 816 696 836 723 Q 846 739 836 751 Q 812 775 748 804 Q 726 816 707 804 Q 613 771 469 756 Q 333 743 269 744 C 239 744 262 698 292 701 Q 317 702 652 745 Q 707 752 734 729 Q 753 707 762 577 Q 769 450 763 281 Q 757 178 753 135 Q 750 123 743 120 C 734 92 689 116 707 92 Z" class="stroke2"/>
    <text x="274" y="740" transform="translate(274,740) scale(1,-1) translate(-274,-740)" font-family="Helvetica" font-size="72" font-weight="800" fill="#000000">2</text>
    <path d="M 258 68 Q 265 67 276 68 Q 415 89 707 92 C 737 92 764 99 743 120 Q 736 129 721 140 Q 702 153 665 147 Q 442 116 264 110 C 234 109 228 68 258 68 Z" class="stroke3"/>
    <text x="262" y="75" transform="translate(262,75) scale(1,-1) translate(-262,-75)" font-family="Helvetica" font-size="72" font-weight="800" fill="#000000">3</text>
</g>
</svg>