<svg version="1.1" viewBox="0 0 1024 1024" xmlns="http://www.w3.org/2000/svg">
  <rect width="1024" height="1024" fill="white"/>
  <rect width="1024" height="1024" fill="none" stroke="black" stroke-width="4"/>
  <g stroke="black" stroke-dasharray="4,4" stroke-width="1" transform="scale(4, 4)">
    <line x1="0" y1="0" x2="256" y2="256"/>
    <line x1="256" y1="0" x2="0" y2="256"/>
    <line x1="128" y1="0" x2="128" y2="256"/>
    <line x1="0" y1="128" x2="256" y2="128"/>
  </g>
  <g transform="scale(1, -1) translate(0, -900)">
    <style type="text/css">
        .stroke1 {fill: #808080;}
        .stroke2 {fill: #808080;}
        .stroke3 {fill: #808080;}
        .stroke4 {fill: #808080;}
        .stroke5 {fill: #808080;}
        .stroke6 {fill: #808080;}
        .stroke7 {fill: #808080;}
        .stroke8 {fill: #808080;}
        .stroke9 {fill: #808080;}
        .stroke10 {fill: #808080;}
        .stroke11 {fill: #808080;}
        .stroke12 {fill: #808080;}
        .stroke13 {fill: #808080;}
        .stroke14 {fill: #808080;}
        .stroke15 {fill: #808080;}
        .stroke16 {fill: #808080;}
        .stroke17 {fill: #808080;}
        .stroke18 {fill: #808080;}
        .stroke19 {fill: #808080;}
        .stroke20 {fill: #808080;}
        
    </style>

    <path d="M 535 428 Q 602 441 673 451 Q 739 464 749 472 Q 759 481 755 490 Q 748 505 715 514 Q 681 523 647 511 Q 592 495 537 481 L 483 470 Q 395 454 293 449 Q 251 445 280 424 Q 320 397 409 409 Q 445 415 483 420 L 535 428 Z" class="stroke1"/>
    <text x="283" y="438" transform="translate(283,438) scale(1,-1) translate(-283,-438)" font-family="Helvetica" font-size="72" font-weight="800" fill="#000000">1</text>
    <path d="M 521 151 Q 528 293 535 428 L 537 481 Q 538 595 566 720 Q 570 733 546 751 Q 504 773 475 779 Q 456 783 446 773 Q 436 763 447 746 Q 481 694 481 658 Q 484 567 483 470 L 483 420 Q 480 290 471 145 C 469 115 520 121 521 151 Z" class="stroke2"/>
    <text x="461" y="760" transform="translate(461,760) scale(1,-1) translate(-461,-760)" font-family="Helvetica" font-size="72" font-weight="800" fill="#000000">2</text>
    <path d="M 471 145 Q 314 130 132 111 Q 107 110 125 87 Q 162 50 211 60 Q 452 121 842 114 Q 875 113 903 112 Q 928 111 935 122 Q 942 137 922 154 Q 847 212 795 192 Q 689 176 521 151 L 471 145 Z" class="stroke3"/>
    <text x="129" y="99" transform="translate(129,99) scale(1,-1) translate(-129,-99)" font-family="Helvetica" font-size="72" font-weight="800" fill="#000000">3</text>
</g>
</svg>