<svg version="1.1" viewBox="0 0 1024 1024" xmlns="http://www.w3.org/2000/svg">
  <rect width="1024" height="1024" fill="white"/>
  <rect width="1024" height="1024" fill="none" stroke="black" stroke-width="4"/>
  <g stroke="black" stroke-dasharray="4,4" stroke-width="1" transform="scale(4, 4)">
    <line x1="0" y1="0" x2="256" y2="256"/>
    <line x1="256" y1="0" x2="0" y2="256"/>
    <line x1="128" y1="0" x2="128" y2="256"/>
    <line x1="0" y1="128" x2="256" y2="128"/>
  </g>
  <g transform="scale(1, -1) translate(0, -900)">
    <style type="text/css">
        .stroke1 {fill: #808080;}
        .stroke2 {fill: #808080;}
        .stroke3 {fill: #808080;}
        .stroke4 {fill: #808080;}
        .stroke5 {fill: #808080;}
        .stroke6 {fill: #808080;}
        .stroke7 {fill: #808080;}
        .stroke8 {fill: #808080;}
        .stroke9 {fill: #808080;}
        .stroke10 {fill: #808080;}
        .stroke11 {fill: #808080;}
        .stroke12 {fill: #808080;}
        .stroke13 {fill: #808080;}
        .stroke14 {fill: #808080;}
        .stroke15 {fill: #808080;}
        .stroke16 {fill: #808080;}
        .stroke17 {fill: #808080;}
        .stroke18 {fill: #808080;}
        .stroke19 {fill: #808080;}
        .stroke20 {fill: #808080;}
        
    </style>

    <path d="M 535 412 Q 718 436 872 423 Q 897 420 903 430 Q 910 443 898 456 Q 867 484 821 504 Q 806 510 779 501 Q 713 485 645 475 Q 581 468 536 461 L 482 454 Q 473 457 297 431 Q 231 421 132 418 Q 119 417 117 406 Q 116 393 136 378 Q 154 365 186 353 Q 198 349 216 358 Q 232 364 302 377 Q 383 396 482 407 L 535 412 Z" class="stroke1"/>
    <text x="131" y="404" transform="translate(131,404) scale(1,-1) translate(-131,-404)" font-family="Helvetica" font-size="72" font-weight="800" fill="#000000">1</text>
    <path d="M 530 159 Q 533 292 535 412 L 536 461 Q 536 650 554 701 Q 566 723 551 736 Q 514 764 484 773 Q 468 777 453 764 Q 447 757 454 745 Q 484 697 482 642 Q 482 551 482 454 L 482 407 Q 482 284 482 153 C 482 123 529 129 530 159 Z" class="stroke2"/>
    <text x="466" y="755" transform="translate(466,755) scale(1,-1) translate(-466,-755)" font-family="Helvetica" font-size="72" font-weight="800" fill="#000000">2</text>
    <path d="M 482 153 Q 386 141 274 128 Q 252 127 268 107 Q 284 91 303 85 Q 327 78 344 83 Q 443 108 704 108 Q 717 108 731 107 Q 753 106 759 116 Q 765 129 747 144 Q 684 192 614 174 Q 578 168 530 159 L 482 153 Z" class="stroke3"/>
    <text x="271" y="117" transform="translate(271,117) scale(1,-1) translate(-271,-117)" font-family="Helvetica" font-size="72" font-weight="800" fill="#000000">3</text>
</g>
</svg>