<svg version="1.1" viewBox="0 0 1024 1024" xmlns="http://www.w3.org/2000/svg">
  <rect width="1024" height="1024" fill="white"/>
  <rect width="1024" height="1024" fill="none" stroke="black" stroke-width="4"/>
  <g stroke="black" stroke-dasharray="4,4" stroke-width="1" transform="scale(4, 4)">
    <line x1="0" y1="0" x2="256" y2="256"/>
    <line x1="256" y1="0" x2="0" y2="256"/>
    <line x1="128" y1="0" x2="128" y2="256"/>
    <line x1="0" y1="128" x2="256" y2="128"/>
  </g>
  <g transform="scale(1, -1) translate(0, -900)">
    <style type="text/css">
        .stroke1 {fill: #808080;}
        .stroke2 {fill: #808080;}
        .stroke3 {fill: #808080;}
        .stroke4 {fill: #808080;}
        .stroke5 {fill: #808080;}
        .stroke6 {fill: #808080;}
        .stroke7 {fill: #808080;}
        .stroke8 {fill: #808080;}
        .stroke9 {fill: #808080;}
        .stroke10 {fill: #808080;}
        .stroke11 {fill: #808080;}
        .stroke12 {fill: #808080;}
        .stroke13 {fill: #808080;}
        .stroke14 {fill: #808080;}
        .stroke15 {fill: #808080;}
        .stroke16 {fill: #808080;}
        .stroke17 {fill: #808080;}
        .stroke18 {fill: #808080;}
        .stroke19 {fill: #808080;}
        .stroke20 {fill: #808080;}
        
    </style>

    <path d="M 371 481 Q 410 518 443 557 L 463 584 Q 479 606 494 630 Q 534 697 573 751 Q 586 764 569 783 Q 523 822 492 820 Q 479 819 481 801 Q 490 657 322 489 Q 283 459 242 414 Q 232 396 249 401 Q 282 407 355 467 L 371 481 Z" class="stroke1"/>
    <text x="494" y="806" transform="translate(494,806) scale(1,-1) translate(-494,-806)" font-family="Helvetica" font-size="72" font-weight="800" fill="#000000">1</text>
    <path d="M 443 557 Q 500 532 631 578 Q 658 588 669 581 Q 678 575 656 510 Q 605 333 438 167 Q 320 62 207 3 Q 197 -3 198 -8 Q 199 -14 208 -13 Q 340 -7 516 168 Q 550 207 586 253 Q 659 353 732 511 Q 751 545 780 567 Q 798 577 797 587 Q 797 603 762 621 Q 720 646 703 646 Q 690 645 677 635 Q 548 592 471 585 Q 467 585 463 584 C 433 580 414 564 443 557 Z" class="stroke2"/>
    <text x="449" y="559" transform="translate(449,559) scale(1,-1) translate(-449,-559)" font-family="Helvetica" font-size="72" font-weight="800" fill="#000000">2</text>
    <path d="M 355 467 Q 358 460 364 454 Q 407 412 460 350 Q 475 331 489 327 Q 498 326 505 334 Q 517 347 506 388 Q 499 427 432 457 Q 393 473 371 481 C 343 491 342 492 355 467 Z" class="stroke3"/>
    <text x="365" y="464" transform="translate(365,464) scale(1,-1) translate(-365,-464)" font-family="Helvetica" font-size="72" font-weight="800" fill="#000000">3</text>
</g>
</svg>