<svg version="1.1" viewBox="0 0 1024 1024" xmlns="http://www.w3.org/2000/svg">
  <rect width="1024" height="1024" fill="white"/>
  <rect width="1024" height="1024" fill="none" stroke="black" stroke-width="4"/>
  <g stroke="black" stroke-dasharray="4,4" stroke-width="1" transform="scale(4, 4)">
    <line x1="0" y1="0" x2="256" y2="256"/>
    <line x1="256" y1="0" x2="0" y2="256"/>
    <line x1="128" y1="0" x2="128" y2="256"/>
    <line x1="0" y1="128" x2="256" y2="128"/>
  </g>
  <g transform="scale(1, -1) translate(0, -900)">
    <style type="text/css">
        .stroke1 {fill: #808080;}
        .stroke2 {fill: #808080;}
        .stroke3 {fill: #808080;}
        .stroke4 {fill: #808080;}
        .stroke5 {fill: #808080;}
        .stroke6 {fill: #808080;}
        .stroke7 {fill: #808080;}
        .stroke8 {fill: #808080;}
        .stroke9 {fill: #808080;}
        .stroke10 {fill: #808080;}
        .stroke11 {fill: #808080;}
        .stroke12 {fill: #808080;}
        .stroke13 {fill: #808080;}
        .stroke14 {fill: #808080;}
        .stroke15 {fill: #808080;}
        .stroke16 {fill: #808080;}
        .stroke17 {fill: #808080;}
        .stroke18 {fill: #808080;}
        .stroke19 {fill: #808080;}
        .stroke20 {fill: #808080;}
        
    </style>

    <path d="M 494 476 Q 542 485 795 501 Q 817 502 822 512 Q 826 525 808 540 Q 750 580 707 569 Q 631 550 500 522 L 436 509 Q 331 490 213 469 Q 189 465 208 447 Q 241 420 294 432 Q 357 453 431 465 L 494 476 Z" class="stroke1"/>
    <text x="210" y="458" transform="translate(210,458) scale(1,-1) translate(-210,-458)" font-family="Helvetica" font-size="72" font-weight="800" fill="#000000">1</text>
    <path d="M 487 437 Q 491 456 494 476 L 500 522 Q 510 711 528 763 Q 534 776 523 786 Q 501 805 459 822 Q 434 832 414 825 Q 390 816 410 796 Q 444 762 444 726 Q 445 602 436 509 L 431 465 Q 398 275 310 179 Q 303 173 297 166 Q 251 118 148 55 Q 133 48 130 43 Q 124 36 144 34 Q 195 34 300 104 Q 385 173 414 218 Q 444 266 480 396 L 487 437 Z" class="stroke2"/>
    <text x="416" y="810" transform="translate(416,810) scale(1,-1) translate(-416,-810)" font-family="Helvetica" font-size="72" font-weight="800" fill="#000000">2</text>
    <path d="M 480 396 Q 501 357 575 245 Q 657 124 718 56 Q 746 22 774 22 Q 856 28 928 32 Q 959 33 959 41 Q 960 50 927 66 Q 753 144 719 174 Q 614 267 500 419 Q 493 429 487 437 C 469 461 465 422 480 396 Z" class="stroke3"/>
    <text x="486" y="430" transform="translate(486,430) scale(1,-1) translate(-486,-430)" font-family="Helvetica" font-size="72" font-weight="800" fill="#000000">3</text>
</g>
</svg>