<svg version="1.1" viewBox="0 0 1024 1024" xmlns="http://www.w3.org/2000/svg">
  <rect width="1024" height="1024" fill="white"/>
  <rect width="1024" height="1024" fill="none" stroke="black" stroke-width="4"/>
  <g stroke="black" stroke-dasharray="4,4" stroke-width="1" transform="scale(4, 4)">
    <line x1="0" y1="0" x2="256" y2="256"/>
    <line x1="256" y1="0" x2="0" y2="256"/>
    <line x1="128" y1="0" x2="128" y2="256"/>
    <line x1="0" y1="128" x2="256" y2="128"/>
  </g>
  <g transform="scale(1, -1) translate(0, -900)">
    <style type="text/css">
        .stroke1 {fill: #808080;}
        .stroke2 {fill: #808080;}
        .stroke3 {fill: #808080;}
        .stroke4 {fill: #808080;}
        .stroke5 {fill: #808080;}
        .stroke6 {fill: #808080;}
        .stroke7 {fill: #808080;}
        .stroke8 {fill: #808080;}
        .stroke9 {fill: #808080;}
        .stroke10 {fill: #808080;}
        .stroke11 {fill: #808080;}
        .stroke12 {fill: #808080;}
        .stroke13 {fill: #808080;}
        .stroke14 {fill: #808080;}
        .stroke15 {fill: #808080;}
        .stroke16 {fill: #808080;}
        .stroke17 {fill: #808080;}
        .stroke18 {fill: #808080;}
        .stroke19 {fill: #808080;}
        .stroke20 {fill: #808080;}
        
    </style>

    <path d="M 445 467 Q 485 576 514 665 Q 526 705 540 732 Q 562 757 524 789 Q 478 825 449 826 Q 433 827 429 815 Q 425 806 434 798 Q 455 774 453 731 Q 441 625 390 461 L 375 416 Q 348 338 337 327 Q 313 309 331 280 Q 340 270 356 274 Q 393 283 491 221 L 535 192 Q 637 132 757 11 Q 776 -8 789 -7 Q 805 -6 805 17 Q 804 54 773 100 Q 755 127 701 153 Q 599 213 569 230 L 519 256 Q 395 320 393 327 Q 393 333 427 423 L 445 467 Z" class="stroke1"/>
    <text x="442" y="810" transform="translate(442,810) scale(1,-1) translate(-442,-810)" font-family="Helvetica" font-size="72" font-weight="800" fill="#000000">1</text>
    <path d="M 695 496 Q 656 544 628 541 Q 612 540 614 522 Q 618 504 617 486 L 606 440 Q 566 319 519 256 L 491 221 Q 406 128 277 81 Q 256 74 237 65 Q 221 59 233 53 Q 248 49 289 53 Q 356 63 413 95 Q 473 122 535 192 L 569 230 Q 600 275 659 395 Q 669 423 688 447 C 705 472 710 479 695 496 Z" class="stroke2"/>
    <text x="628" y="527" transform="translate(628,527) scale(1,-1) translate(-628,-527)" font-family="Helvetica" font-size="72" font-weight="800" fill="#000000">2</text>
    <path d="M 688 447 Q 757 456 931 443 Q 956 440 962 449 Q 969 462 957 475 Q 926 503 881 524 Q 866 531 839 522 Q 767 507 695 496 L 617 486 Q 461 471 445 467 L 390 461 Q 314 454 268 447 Q 189 435 73 434 Q 60 434 57 422 Q 57 409 76 394 Q 94 381 126 369 Q 138 365 156 373 Q 205 392 375 416 L 427 423 Q 448 426 606 440 L 688 447 Z" class="stroke3"/>
    <text x="70" y="420" transform="translate(70,420) scale(1,-1) translate(-70,-420)" font-family="Helvetica" font-size="72" font-weight="800" fill="#000000">3</text>
</g>
</svg>