<svg version="1.1" viewBox="0 0 1024 1024" xmlns="http://www.w3.org/2000/svg">
  <rect width="1024" height="1024" fill="white"/>
  <rect width="1024" height="1024" fill="none" stroke="black" stroke-width="4"/>
  <g stroke="black" stroke-dasharray="4,4" stroke-width="1" transform="scale(4, 4)">
    <line x1="0" y1="0" x2="256" y2="256"/>
    <line x1="256" y1="0" x2="0" y2="256"/>
    <line x1="128" y1="0" x2="128" y2="256"/>
    <line x1="0" y1="128" x2="256" y2="128"/>
  </g>
  <g transform="scale(1, -1) translate(0, -900)">
    <style type="text/css">
        .stroke1 {fill: #808080;}
        .stroke2 {fill: #808080;}
        .stroke3 {fill: #808080;}
        .stroke4 {fill: #808080;}
        .stroke5 {fill: #808080;}
        .stroke6 {fill: #808080;}
        .stroke7 {fill: #808080;}
        .stroke8 {fill: #808080;}
        .stroke9 {fill: #808080;}
        .stroke10 {fill: #808080;}
        .stroke11 {fill: #808080;}
        .stroke12 {fill: #808080;}
        .stroke13 {fill: #808080;}
        .stroke14 {fill: #808080;}
        .stroke15 {fill: #808080;}
        .stroke16 {fill: #808080;}
        .stroke17 {fill: #808080;}
        .stroke18 {fill: #808080;}
        .stroke19 {fill: #808080;}
        .stroke20 {fill: #808080;}
        
    </style>

    <path d="M 545 334 Q 561 338 580 339 Q 707 355 740 344 C 770 339 778 391 748 390 Q 642 387 545 376 L 484 370 Q 384 360 296 340 Q 271 336 279 366 Q 289 429 302 495 Q 309 523 298 541 Q 258 592 227 588 Q 214 584 222 560 Q 247 488 232 420 Q 219 354 190 327 Q 166 308 174 290 Q 187 271 206 256 Q 222 246 234 254 Q 267 288 484 325 L 545 334 Z" class="stroke1"/>
    <text x="232" y="576" transform="translate(232,576) scale(1,-1) translate(-232,-576)" font-family="Helvetica" font-size="72" font-weight="800" fill="#000000">1</text>
    <path d="M 740 344 Q 736 314 767 264 Q 780 246 791 262 Q 809 284 809 424 Q 806 536 818 570 Q 825 588 811 602 Q 787 617 748 634 Q 732 640 719 632 Q 712 626 716 611 Q 746 577 748 392 L 748 390 L 740 344 Z" class="stroke2"/>
    <text x="730" y="621" transform="translate(730,621) scale(1,-1) translate(-730,-621)" font-family="Helvetica" font-size="72" font-weight="800" fill="#000000">2</text>
    <path d="M 484 325 Q 480 -32 499 -63 Q 515 -81 525 -57 Q 544 -12 545 334 L 545 376 Q 548 590 556 687 Q 557 721 575 749 Q 582 767 561 784 Q 533 806 485 818 Q 463 825 449 809 Q 437 799 452 786 Q 482 761 484 725 Q 487 389 484 370 L 484 325 Z" class="stroke3"/>
    <text x="457" y="798" transform="translate(457,798) scale(1,-1) translate(-457,-798)" font-family="Helvetica" font-size="72" font-weight="800" fill="#000000">3</text>
</g>
</svg>