<svg version="1.1" viewBox="0 0 1024 1024" xmlns="http://www.w3.org/2000/svg">
  <rect width="1024" height="1024" fill="white"/>
  <rect width="1024" height="1024" fill="none" stroke="black" stroke-width="4"/>
  <g stroke="black" stroke-dasharray="4,4" stroke-width="1" transform="scale(4, 4)">
    <line x1="0" y1="0" x2="256" y2="256"/>
    <line x1="256" y1="0" x2="0" y2="256"/>
    <line x1="128" y1="0" x2="128" y2="256"/>
    <line x1="0" y1="128" x2="256" y2="128"/>
  </g>
  <g transform="scale(1, -1) translate(0, -900)">
    <style type="text/css">
        .stroke1 {fill: #808080;}
        .stroke2 {fill: #808080;}
        .stroke3 {fill: #808080;}
        .stroke4 {fill: #808080;}
        .stroke5 {fill: #808080;}
        .stroke6 {fill: #808080;}
        .stroke7 {fill: #808080;}
        .stroke8 {fill: #808080;}
        .stroke9 {fill: #808080;}
        .stroke10 {fill: #808080;}
        .stroke11 {fill: #808080;}
        .stroke12 {fill: #808080;}
        .stroke13 {fill: #808080;}
        .stroke14 {fill: #808080;}
        .stroke15 {fill: #808080;}
        .stroke16 {fill: #808080;}
        .stroke17 {fill: #808080;}
        .stroke18 {fill: #808080;}
        .stroke19 {fill: #808080;}
        .stroke20 {fill: #808080;}
        
    </style>

    <path d="M 536 209 Q 546 407 552 587 Q 556 633 562 664 Q 569 691 574 710 Q 578 723 554 740 Q 512 762 484 767 Q 465 771 456 760 Q 447 751 457 734 Q 488 688 489 655 Q 499 444 488 200 C 487 170 534 179 536 209 Z" class="stroke1"/>
    <text x="472" y="748" transform="translate(472,748) scale(1,-1) translate(-472,-748)" font-family="Helvetica" font-size="72" font-weight="800" fill="#000000">1</text>
    <path d="M 796 244 Q 657 232 536 209 L 488 200 Q 379 182 284 155 Q 256 148 263 180 Q 267 253 272 329 Q 275 357 263 373 Q 220 416 190 409 Q 178 403 188 382 Q 224 309 215 236 Q 211 166 182 133 Q 161 112 170 96 Q 183 78 203 66 Q 219 57 230 67 Q 243 83 283 99 Q 440 151 606 182 Q 757 210 789 197 C 819 193 826 247 796 244 Z" class="stroke2"/>
    <text x="196" y="398" transform="translate(196,398) scale(1,-1) translate(-196,-398)" font-family="Helvetica" font-size="72" font-weight="800" fill="#000000">2</text>
    <path d="M 789 197 Q 783 166 774 145 Q 756 118 785 55 Q 795 36 809 49 Q 837 73 846 173 Q 868 386 890 427 Q 900 443 889 460 Q 867 479 831 501 Q 816 510 802 503 Q 793 499 796 484 Q 823 435 796 244 L 789 197 Z" class="stroke3"/>
    <text x="810" y="490" transform="translate(810,490) scale(1,-1) translate(-810,-490)" font-family="Helvetica" font-size="72" font-weight="800" fill="#000000">3</text>
</g>
</svg>