<svg version="1.1" viewBox="0 0 1024 1024" xmlns="http://www.w3.org/2000/svg">
  <rect width="1024" height="1024" fill="white"/>
  <rect width="1024" height="1024" fill="none" stroke="black" stroke-width="4"/>
  <g stroke="black" stroke-dasharray="4,4" stroke-width="1" transform="scale(4, 4)">
    <line x1="0" y1="0" x2="256" y2="256"/>
    <line x1="256" y1="0" x2="0" y2="256"/>
    <line x1="128" y1="0" x2="128" y2="256"/>
    <line x1="0" y1="128" x2="256" y2="128"/>
  </g>
  <g transform="scale(1, -1) translate(0, -900)">
    <style type="text/css">
        .stroke1 {fill: #808080;}
        .stroke2 {fill: #808080;}
        .stroke3 {fill: #808080;}
        .stroke4 {fill: #808080;}
        .stroke5 {fill: #808080;}
        .stroke6 {fill: #808080;}
        .stroke7 {fill: #808080;}
        .stroke8 {fill: #808080;}
        .stroke9 {fill: #808080;}
        .stroke10 {fill: #808080;}
        .stroke11 {fill: #808080;}
        .stroke12 {fill: #808080;}
        .stroke13 {fill: #808080;}
        .stroke14 {fill: #808080;}
        .stroke15 {fill: #808080;}
        .stroke16 {fill: #808080;}
        .stroke17 {fill: #808080;}
        .stroke18 {fill: #808080;}
        .stroke19 {fill: #808080;}
        .stroke20 {fill: #808080;}
        
    </style>

    <path d="M 294 645 Q 243 429 170 347 Q 160 334 161 320 Q 162 307 178 298 Q 241 262 342 66 Q 352 39 363 36 Q 373 32 384 41 Q 396 57 399 88 Q 400 113 377 144 Q 304 241 227 305 Q 208 318 218 343 Q 279 458 318 546 Q 346 610 370 654 Q 388 678 371 694 Q 316 751 301 747 Q 280 743 290 721 Q 305 681 294 645 Z" class="stroke1"/>
    <text x="302" y="731" transform="translate(302,731) scale(1,-1) translate(-302,-731)" font-family="Helvetica" font-size="72" font-weight="800" fill="#000000">1</text>
    <path d="M 505 655 Q 472 471 406 380 Q 391 365 392 349 Q 393 336 408 327 Q 466 290 553 86 Q 563 58 573 54 Q 583 50 594 58 Q 607 73 612 104 Q 616 129 594 161 Q 530 261 457 330 Q 436 346 449 373 Q 503 482 536 565 Q 558 626 581 667 Q 597 692 580 707 Q 522 762 507 757 Q 488 751 498 731 Q 514 692 505 655 Z" class="stroke2"/>
    <text x="510" y="741" transform="translate(510,741) scale(1,-1) translate(-510,-741)" font-family="Helvetica" font-size="72" font-weight="800" fill="#000000">2</text>
    <path d="M 723 663 Q 678 474 611 394 Q 596 379 595 360 Q 598 347 613 337 Q 682 298 795 78 Q 807 50 818 46 Q 828 42 839 52 Q 852 68 855 101 Q 858 126 833 159 Q 751 271 664 344 Q 645 357 655 384 Q 715 490 752 572 Q 779 630 802 671 Q 821 696 803 713 Q 748 773 731 769 Q 710 765 719 742 Q 735 700 723 663 Z" class="stroke3"/>
    <text x="732" y="752" transform="translate(732,752) scale(1,-1) translate(-732,-752)" font-family="Helvetica" font-size="72" font-weight="800" fill="#000000">3</text>
</g>
</svg>