<svg version="1.1" viewBox="0 0 1024 1024" xmlns="http://www.w3.org/2000/svg">
  <rect width="1024" height="1024" fill="white"/>
  <rect width="1024" height="1024" fill="none" stroke="black" stroke-width="4"/>
  <g stroke="black" stroke-dasharray="4,4" stroke-width="1" transform="scale(4, 4)">
    <line x1="0" y1="0" x2="256" y2="256"/>
    <line x1="256" y1="0" x2="0" y2="256"/>
    <line x1="128" y1="0" x2="128" y2="256"/>
    <line x1="0" y1="128" x2="256" y2="128"/>
  </g>
  <g transform="scale(1, -1) translate(0, -900)">
    <style type="text/css">
        .stroke1 {fill: #808080;}
        .stroke2 {fill: #808080;}
        .stroke3 {fill: #808080;}
        .stroke4 {fill: #808080;}
        .stroke5 {fill: #808080;}
        .stroke6 {fill: #808080;}
        .stroke7 {fill: #808080;}
        .stroke8 {fill: #808080;}
        .stroke9 {fill: #808080;}
        .stroke10 {fill: #808080;}
        .stroke11 {fill: #808080;}
        .stroke12 {fill: #808080;}
        .stroke13 {fill: #808080;}
        .stroke14 {fill: #808080;}
        .stroke15 {fill: #808080;}
        .stroke16 {fill: #808080;}
        .stroke17 {fill: #808080;}
        .stroke18 {fill: #808080;}
        .stroke19 {fill: #808080;}
        .stroke20 {fill: #808080;}
        
    </style>

    <path d="M 538 620 Q 614 633 697 643 Q 766 656 777 664 Q 787 673 783 682 Q 776 697 743 706 Q 709 716 675 704 Q 596 682 510 665 Q 416 649 306 645 Q 264 641 293 620 Q 336 589 402 601 Q 439 607 477 611 L 538 620 Z" class="stroke1"/>
    <text x="296" y="634" transform="translate(296,634) scale(1,-1) translate(-296,-634)" font-family="Helvetica" font-size="72" font-weight="800" fill="#000000">1</text>
    <path d="M 535 216 Q 562 534 573 562 Q 586 581 572 596 Q 554 611 538 620 C 512 636 463 637 477 611 Q 496 580 495 539 Q 491 385 487 212 C 486 182 532 186 535 216 Z" class="stroke2"/>
    <text x="485" y="607" transform="translate(485,607) scale(1,-1) translate(-485,-607)" font-family="Helvetica" font-size="72" font-weight="800" fill="#000000">2</text>
    <path d="M 521 162 Q 578 163 632 168 Q 779 178 927 159 Q 955 155 962 165 Q 972 180 958 194 Q 924 228 873 252 Q 857 259 827 250 Q 754 237 678 228 Q 593 222 535 216 L 487 212 Q 357 202 291 195 Q 218 186 109 188 Q 93 188 91 175 Q 90 160 111 143 Q 130 128 166 113 Q 179 109 200 117 Q 218 123 295 134 Q 397 153 521 162 Z" class="stroke3"/>
    <text x="106" y="173" transform="translate(106,173) scale(1,-1) translate(-106,-173)" font-family="Helvetica" font-size="72" font-weight="800" fill="#000000">3</text>
</g>
</svg>