<svg version="1.1" viewBox="0 0 1024 1024" xmlns="http://www.w3.org/2000/svg">
  <rect width="1024" height="1024" fill="white"/>
  <rect width="1024" height="1024" fill="none" stroke="black" stroke-width="4"/>
  <g stroke="black" stroke-dasharray="4,4" stroke-width="1" transform="scale(4, 4)">
    <line x1="0" y1="0" x2="256" y2="256"/>
    <line x1="256" y1="0" x2="0" y2="256"/>
    <line x1="128" y1="0" x2="128" y2="256"/>
    <line x1="0" y1="128" x2="256" y2="128"/>
  </g>
  <g transform="scale(1, -1) translate(0, -900)">
    <style type="text/css">
        .stroke1 {fill: #808080;}
        .stroke2 {fill: #808080;}
        .stroke3 {fill: #808080;}
        .stroke4 {fill: #808080;}
        .stroke5 {fill: #808080;}
        .stroke6 {fill: #808080;}
        .stroke7 {fill: #808080;}
        .stroke8 {fill: #808080;}
        .stroke9 {fill: #808080;}
        .stroke10 {fill: #808080;}
        .stroke11 {fill: #808080;}
        .stroke12 {fill: #808080;}
        .stroke13 {fill: #808080;}
        .stroke14 {fill: #808080;}
        .stroke15 {fill: #808080;}
        .stroke16 {fill: #808080;}
        .stroke17 {fill: #808080;}
        .stroke18 {fill: #808080;}
        .stroke19 {fill: #808080;}
        .stroke20 {fill: #808080;}
        
    </style>

    <path d="M 589 542 Q 631 656 676 686 Q 698 708 680 732 Q 659 750 593 783 Q 569 795 477 759 Q 351 728 258 716 Q 236 715 239 702 Q 243 692 266 684 Q 297 671 342 685 Q 436 701 525 718 Q 547 724 557 714 Q 570 701 564 674 Q 546 602 525 544 C 515 516 578 514 589 542 Z" class="stroke1"/>
    <text x="249" y="704" transform="translate(249,704) scale(1,-1) translate(-249,-704)" font-family="Helvetica" font-size="72" font-weight="800" fill="#000000">1</text>
    <path d="M 299 457 Q 359 478 606 501 Q 618 502 620 513 Q 620 522 589 542 C 570 555 554 551 525 544 Q 396 513 295 496 C 265 491 270 448 299 457 Z" class="stroke2"/>
    <text x="300" y="464" transform="translate(300,464) scale(1,-1) translate(-300,-464)" font-family="Helvetica" font-size="72" font-weight="800" fill="#000000">2</text>
    <path d="M 906 154 Q 885 220 876 330 Q 875 349 866 354 Q 856 360 852 337 Q 834 199 815 174 Q 755 108 523 111 Q 394 115 339 137 Q 291 162 281 195 Q 254 280 284 406 Q 288 437 299 457 C 309 485 309 485 295 496 Q 292 500 289 503 Q 232 546 215 542 Q 197 535 206 516 Q 228 473 222 410 Q 215 223 234 169 Q 273 78 432 58 Q 532 46 689 58 Q 831 68 885 101 Q 919 117 906 154 Z" class="stroke3"/>
    <text x="218" y="527" transform="translate(218,527) scale(1,-1) translate(-218,-527)" font-family="Helvetica" font-size="72" font-weight="800" fill="#000000">3</text>
</g>
</svg>