<svg version="1.1" viewBox="0 0 1024 1024" xmlns="http://www.w3.org/2000/svg">
  <rect width="1024" height="1024" fill="white"/>
  <rect width="1024" height="1024" fill="none" stroke="black" stroke-width="4"/>
  <g stroke="black" stroke-dasharray="4,4" stroke-width="1" transform="scale(4, 4)">
    <line x1="0" y1="0" x2="256" y2="256"/>
    <line x1="256" y1="0" x2="0" y2="256"/>
    <line x1="128" y1="0" x2="128" y2="256"/>
    <line x1="0" y1="128" x2="256" y2="128"/>
  </g>
  <g transform="scale(1, -1) translate(0, -900)">
    <style type="text/css">
        .stroke1 {fill: #808080;}
        .stroke2 {fill: #808080;}
        .stroke3 {fill: #808080;}
        .stroke4 {fill: #808080;}
        .stroke5 {fill: #808080;}
        .stroke6 {fill: #808080;}
        .stroke7 {fill: #808080;}
        .stroke8 {fill: #808080;}
        .stroke9 {fill: #808080;}
        .stroke10 {fill: #808080;}
        .stroke11 {fill: #808080;}
        .stroke12 {fill: #808080;}
        .stroke13 {fill: #808080;}
        .stroke14 {fill: #808080;}
        .stroke15 {fill: #808080;}
        .stroke16 {fill: #808080;}
        .stroke17 {fill: #808080;}
        .stroke18 {fill: #808080;}
        .stroke19 {fill: #808080;}
        .stroke20 {fill: #808080;}
        
    </style>

    <path d="M 524 729 Q 597 742 677 756 Q 737 768 746 776 Q 756 785 751 794 Q 744 807 711 817 Q 677 826 587 796 Q 446 762 325 753 Q 283 749 312 728 Q 355 703 438 715 Q 445 716 457 718 L 524 729 Z" class="stroke1"/>
    <text x="315" y="742" transform="translate(315,742) scale(1,-1) translate(-315,-742)" font-family="Helvetica" font-size="72" font-weight="800" fill="#000000">1</text>
    <path d="M 545 455 Q 755 479 902 467 Q 938 467 943 473 Q 950 489 937 501 Q 903 532 854 553 Q 838 560 809 550 Q 782 544 546 508 L 486 501 Q 465 501 286 476 Q 214 463 107 461 Q 91 461 90 448 Q 90 435 111 419 Q 130 406 166 392 Q 178 388 198 397 Q 214 403 291 417 Q 378 438 485 450 L 545 455 Z" class="stroke2"/>
    <text x="104" y="447" transform="translate(104,447) scale(1,-1) translate(-104,-447)" font-family="Helvetica" font-size="72" font-weight="800" fill="#000000">2</text>
    <path d="M 482 0 Q 489 -30 496 -41 Q 503 -48 511 -46 Q 527 -37 537 33 Q 547 123 545 213 Q 542 271 545 455 L 546 508 Q 546 607 562 682 Q 565 703 549 713 Q 536 723 524 729 C 498 745 445 746 457 718 Q 481 661 484 653 Q 485 640 486 501 L 485 450 Q 479 35 482 0 Z" class="stroke3"/>
    <text x="465" y="709" transform="translate(465,709) scale(1,-1) translate(-465,-709)" font-family="Helvetica" font-size="72" font-weight="800" fill="#000000">3</text>
</g>
</svg>