<svg version="1.1" viewBox="0 0 1024 1024" xmlns="http://www.w3.org/2000/svg">
  <rect width="1024" height="1024" fill="white"/>
  <rect width="1024" height="1024" fill="none" stroke="black" stroke-width="4"/>
  <g stroke="black" stroke-dasharray="4,4" stroke-width="1" transform="scale(4, 4)">
    <line x1="0" y1="0" x2="256" y2="256"/>
    <line x1="256" y1="0" x2="0" y2="256"/>
    <line x1="128" y1="0" x2="128" y2="256"/>
    <line x1="0" y1="128" x2="256" y2="128"/>
  </g>
  <g transform="scale(1, -1) translate(0, -900)">
    <style type="text/css">
        .stroke1 {fill: #808080;}
        .stroke2 {fill: #808080;}
        .stroke3 {fill: #808080;}
        .stroke4 {fill: #808080;}
        .stroke5 {fill: #808080;}
        .stroke6 {fill: #808080;}
        .stroke7 {fill: #808080;}
        .stroke8 {fill: #808080;}
        .stroke9 {fill: #808080;}
        .stroke10 {fill: #808080;}
        .stroke11 {fill: #808080;}
        .stroke12 {fill: #808080;}
        .stroke13 {fill: #808080;}
        .stroke14 {fill: #808080;}
        .stroke15 {fill: #808080;}
        .stroke16 {fill: #808080;}
        .stroke17 {fill: #808080;}
        .stroke18 {fill: #808080;}
        .stroke19 {fill: #808080;}
        .stroke20 {fill: #808080;}
        
    </style>

    <path d="M 302 287 Q 324 329 349 385 Q 362 415 381 433 Q 388 440 381 455 Q 374 464 334 482 Q 325 489 258 469 Q 249 468 245 472 Q 241 479 260 510 Q 326 633 363 650 Q 384 663 369 680 Q 341 705 312 711 Q 296 715 277 700 Q 256 684 205 668 Q 150 652 128 657 Q 115 658 111 651 Q 107 644 118 637 Q 154 615 182 623 Q 218 629 263 648 Q 275 652 277 649 Q 284 639 270 612 Q 204 476 189 460 Q 176 450 180 438 Q 184 428 190 422 Q 202 409 219 421 Q 279 460 300 440 Q 303 430 297 404 Q 282 346 264 309 L 243 276 Q 192 203 60 124 Q 47 115 56 110 Q 69 109 98 120 Q 194 160 250 214 Q 266 230 283 255 L 302 287 Z" class="stroke1"/>
    <text x="120" y="647" transform="translate(120,647) scale(1,-1) translate(-120,-647)" font-family="Helvetica" font-size="72" font-weight="800" fill="#000000">1</text>
    <path d="M 283 255 Q 307 242 333 225 Q 475 120 672 29 Q 723 -1 936 70 Q 949 77 952 87 Q 955 97 930 97 Q 852 106 767 108 Q 595 117 308 284 Q 304 285 302 287 L 264 309 Q 191 349 126 333 Q 116 327 121 317 Q 128 307 142 307 Q 188 306 243 276 L 283 255 Z" class="stroke2"/>
    <text x="130" y="323" transform="translate(130,323) scale(1,-1) translate(-130,-323)" font-family="Helvetica" font-size="72" font-weight="800" fill="#000000">2</text>
</g>
</svg>