<svg version="1.1" viewBox="0 0 1024 1024" xmlns="http://www.w3.org/2000/svg">
  <rect width="1024" height="1024" fill="white"/>
  <rect width="1024" height="1024" fill="none" stroke="black" stroke-width="4"/>
  <g stroke="black" stroke-dasharray="4,4" stroke-width="1" transform="scale(4, 4)">
    <line x1="0" y1="0" x2="256" y2="256"/>
    <line x1="256" y1="0" x2="0" y2="256"/>
    <line x1="128" y1="0" x2="128" y2="256"/>
    <line x1="0" y1="128" x2="256" y2="128"/>
  </g>
  <g transform="scale(1, -1) translate(0, -900)">
    <style type="text/css">
        .stroke1 {fill: #808080;}
        .stroke2 {fill: #808080;}
        .stroke3 {fill: #808080;}
        .stroke4 {fill: #808080;}
        .stroke5 {fill: #808080;}
        .stroke6 {fill: #808080;}
        .stroke7 {fill: #808080;}
        .stroke8 {fill: #808080;}
        .stroke9 {fill: #808080;}
        .stroke10 {fill: #808080;}
        .stroke11 {fill: #808080;}
        .stroke12 {fill: #808080;}
        .stroke13 {fill: #808080;}
        .stroke14 {fill: #808080;}
        .stroke15 {fill: #808080;}
        .stroke16 {fill: #808080;}
        .stroke17 {fill: #808080;}
        .stroke18 {fill: #808080;}
        .stroke19 {fill: #808080;}
        .stroke20 {fill: #808080;}
        
    </style>

    <path d="M 724 181 Q 767 470 828 581 Q 841 594 836 610 Q 826 629 751 664 Q 729 674 712 669 Q 531 632 309 609 Q 278 608 292 588 Q 308 572 333 565 Q 364 555 388 565 Q 682 625 708 606 Q 724 596 724 554 Q 706 400 661 182 C 655 153 719 151 724 181 Z" class="stroke1"/>
    <text x="302" y="598" transform="translate(302,598) scale(1,-1) translate(-302,-598)" font-family="Helvetica" font-size="72" font-weight="800" fill="#000000">1</text>
    <path d="M 254 378 Q 220 374 246 353 Q 285 323 311 326 Q 336 339 635 368 Q 648 367 659 381 Q 660 394 634 408 Q 592 432 515 413 Q 487 409 459 402 Q 432 398 254 378 Z" class="stroke2"/>
    <text x="248" y="366" transform="translate(248,366) scale(1,-1) translate(-248,-366)" font-family="Helvetica" font-size="72" font-weight="800" fill="#000000">2</text>
    <path d="M 661 182 Q 442 142 268 132 Q 238 131 255 104 Q 264 91 278 85 Q 294 81 313 83 Q 454 108 755 120 Q 771 121 774 134 Q 775 146 732 177 Q 728 180 724 181 L 661 182 Z" class="stroke3"/>
    <text x="263" y="117" transform="translate(263,117) scale(1,-1) translate(-263,-117)" font-family="Helvetica" font-size="72" font-weight="800" fill="#000000">3</text>
</g>
</svg>