<svg version="1.1" viewBox="0 0 1024 1024" xmlns="http://www.w3.org/2000/svg">
  <rect width="1024" height="1024" fill="white"/>
  <rect width="1024" height="1024" fill="none" stroke="black" stroke-width="4"/>
  <g stroke="black" stroke-dasharray="4,4" stroke-width="1" transform="scale(4, 4)">
    <line x1="0" y1="0" x2="256" y2="256"/>
    <line x1="256" y1="0" x2="0" y2="256"/>
    <line x1="128" y1="0" x2="128" y2="256"/>
    <line x1="0" y1="128" x2="256" y2="128"/>
  </g>
  <g transform="scale(1, -1) translate(0, -900)">
    <style type="text/css">
        .stroke1 {fill: #808080;}
        .stroke2 {fill: #808080;}
        .stroke3 {fill: #808080;}
        .stroke4 {fill: #808080;}
        .stroke5 {fill: #808080;}
        .stroke6 {fill: #808080;}
        .stroke7 {fill: #808080;}
        .stroke8 {fill: #808080;}
        .stroke9 {fill: #808080;}
        .stroke10 {fill: #808080;}
        .stroke11 {fill: #808080;}
        .stroke12 {fill: #808080;}
        .stroke13 {fill: #808080;}
        .stroke14 {fill: #808080;}
        .stroke15 {fill: #808080;}
        .stroke16 {fill: #808080;}
        .stroke17 {fill: #808080;}
        .stroke18 {fill: #808080;}
        .stroke19 {fill: #808080;}
        .stroke20 {fill: #808080;}
        
    </style>

    <path d="M 475 506 Q 595 557 599 560 Q 608 570 602 579 Q 592 592 558 595 Q 515 596 455 559 L 409 537 Q 289 489 193 464 Q 153 451 185 436 Q 236 417 296 440 Q 359 464 427 488 L 475 506 Z" class="stroke1"/>
    <text x="186" y="451" transform="translate(186,451) scale(1,-1) translate(-186,-451)" font-family="Helvetica" font-size="72" font-weight="800" fill="#000000">1</text>
    <path d="M 554 225 Q 656 68 774 -1 Q 844 -47 874 -44 Q 896 -37 885 -8 Q 879 47 881 207 Q 880 234 870 235 Q 863 234 856 210 Q 840 161 826 121 Q 813 79 797 78 Q 784 75 752 93 Q 659 157 590 263 L 560 315 Q 520 390 475 506 L 455 559 Q 421 661 416 743 Q 420 789 356 801 Q 314 811 295 798 Q 274 786 289 767 Q 347 733 355 696 Q 383 611 409 537 L 427 488 Q 472 371 525 275 L 554 225 Z" class="stroke2"/>
    <text x="301" y="781" transform="translate(301,781) scale(1,-1) translate(-301,-781)" font-family="Helvetica" font-size="72" font-weight="800" fill="#000000">2</text>
    <path d="M 525 275 Q 519 271 514 264 Q 429 174 236 80 Q 226 73 232 68 Q 239 64 253 66 Q 338 82 414 122 Q 480 152 554 225 L 590 263 Q 627 308 669 369 Q 691 399 716 426 Q 726 435 723 447 Q 719 460 689 487 Q 667 506 656 505 Q 640 504 639 487 Q 630 403 560 315 L 525 275 Z" class="stroke3"/>
    <text x="656" y="488" transform="translate(656,488) scale(1,-1) translate(-656,-488)" font-family="Helvetica" font-size="72" font-weight="800" fill="#000000">3</text>
    <path d="M 615 733 Q 654 708 695 677 Q 711 664 729 667 Q 741 668 745 684 Q 748 700 734 732 Q 718 768 604 785 Q 586 786 580 783 Q 574 779 578 765 Q 584 753 615 733 Z" class="stroke4"/>
    <text x="586" y="775" transform="translate(586,775) scale(1,-1) translate(-586,-775)" font-family="Helvetica" font-size="72" font-weight="800" fill="#000000">4</text>
</g>
</svg>