<svg version="1.1" viewBox="0 0 1024 1024" xmlns="http://www.w3.org/2000/svg">
  <rect width="1024" height="1024" fill="white"/>
  <rect width="1024" height="1024" fill="none" stroke="black" stroke-width="4"/>
  <g stroke="black" stroke-dasharray="4,4" stroke-width="1" transform="scale(4, 4)">
    <line x1="0" y1="0" x2="256" y2="256"/>
    <line x1="256" y1="0" x2="0" y2="256"/>
    <line x1="128" y1="0" x2="128" y2="256"/>
    <line x1="0" y1="128" x2="256" y2="128"/>
  </g>
  <g transform="scale(1, -1) translate(0, -900)">
    <style type="text/css">
        .stroke1 {fill: #808080;}
        .stroke2 {fill: #808080;}
        .stroke3 {fill: #808080;}
        .stroke4 {fill: #808080;}
        .stroke5 {fill: #808080;}
        .stroke6 {fill: #808080;}
        .stroke7 {fill: #808080;}
        .stroke8 {fill: #808080;}
        .stroke9 {fill: #808080;}
        .stroke10 {fill: #808080;}
        .stroke11 {fill: #808080;}
        .stroke12 {fill: #808080;}
        .stroke13 {fill: #808080;}
        .stroke14 {fill: #808080;}
        .stroke15 {fill: #808080;}
        .stroke16 {fill: #808080;}
        .stroke17 {fill: #808080;}
        .stroke18 {fill: #808080;}
        .stroke19 {fill: #808080;}
        .stroke20 {fill: #808080;}
        
    </style>

    <path d="M 496 784 Q 529 760 563 730 Q 579 717 599 718 Q 612 719 616 736 Q 620 755 607 789 Q 592 825 486 840 Q 467 844 460 840 Q 454 834 457 819 Q 463 806 496 784 Z" class="stroke1"/>
    <text x="467" y="832" transform="translate(467,832) scale(1,-1) translate(-467,-832)" font-family="Helvetica" font-size="72" font-weight="800" fill="#000000">1</text>
    <path d="M 713 451 Q 752 542 789 562 Q 811 584 794 608 Q 773 627 708 660 Q 683 672 613 644 Q 505 608 374 589 C 344 585 361 550 391 555 Q 406 556 634 606 Q 661 613 671 602 Q 681 590 676 569 Q 660 505 639 453 C 628 425 701 424 713 451 Z" class="stroke2"/>
    <text x="383" y="586" transform="translate(383,586) scale(1,-1) translate(-383,-586)" font-family="Helvetica" font-size="72" font-weight="800" fill="#000000">2</text>
    <path d="M 367 364 Q 368 364 371 363 Q 383 359 398 363 Q 501 388 726 413 Q 739 414 740 425 Q 740 432 713 451 C 693 466 668 460 639 453 Q 489 417 371 399 C 341 394 338 371 367 364 Z" class="stroke3"/>
    <text x="371" y="370" transform="translate(371,370) scale(1,-1) translate(-371,-370)" font-family="Helvetica" font-size="72" font-weight="800" fill="#000000">3</text>
    <path d="M 374 589 Q 322 617 306 615 Q 284 612 301 587 Q 331 529 305 323 Q 295 238 248 140 Q 215 71 110 -26 Q 94 -39 89 -46 Q 88 -53 100 -54 Q 148 -54 229 27 Q 278 76 307 133 Q 335 193 352 277 Q 359 317 367 364 L 371 399 Q 378 454 383 519 Q 389 540 391 555 C 396 578 396 578 374 589 Z" class="stroke4"/>
    <text x="307" y="600" transform="translate(307,600) scale(1,-1) translate(-307,-600)" font-family="Helvetica" font-size="72" font-weight="800" fill="#000000">4</text>
</g>
</svg>