<svg version="1.1" viewBox="0 0 1024 1024" xmlns="http://www.w3.org/2000/svg">
  <rect width="1024" height="1024" fill="white"/>
  <rect width="1024" height="1024" fill="none" stroke="black" stroke-width="4"/>
  <g stroke="black" stroke-dasharray="4,4" stroke-width="1" transform="scale(4, 4)">
    <line x1="0" y1="0" x2="256" y2="256"/>
    <line x1="256" y1="0" x2="0" y2="256"/>
    <line x1="128" y1="0" x2="128" y2="256"/>
    <line x1="0" y1="128" x2="256" y2="128"/>
  </g>
  <g transform="scale(1, -1) translate(0, -900)">
    <style type="text/css">
        .stroke1 {fill: #808080;}
        .stroke2 {fill: #808080;}
        .stroke3 {fill: #808080;}
        .stroke4 {fill: #808080;}
        .stroke5 {fill: #808080;}
        .stroke6 {fill: #808080;}
        .stroke7 {fill: #808080;}
        .stroke8 {fill: #808080;}
        .stroke9 {fill: #808080;}
        .stroke10 {fill: #808080;}
        .stroke11 {fill: #808080;}
        .stroke12 {fill: #808080;}
        .stroke13 {fill: #808080;}
        .stroke14 {fill: #808080;}
        .stroke15 {fill: #808080;}
        .stroke16 {fill: #808080;}
        .stroke17 {fill: #808080;}
        .stroke18 {fill: #808080;}
        .stroke19 {fill: #808080;}
        .stroke20 {fill: #808080;}
        
    </style>

    <path d="M 502 718 Q 550 731 590 746 Q 641 759 683 764 Q 701 763 706 771 Q 710 781 700 795 Q 679 814 634 837 Q 619 847 605 847 Q 596 844 594 832 Q 591 802 411 730 Q 365 714 310 696 Q 303 687 310 684 Q 328 678 449 707 Q 458 708 468 711 L 502 718 Z" class="stroke1"/>
    <text x="696" y="777" transform="translate(696,777) scale(1,-1) translate(-696,-777)" font-family="Helvetica" font-size="72" font-weight="800" fill="#000000">1</text>
    <path d="M 555 563 Q 697 591 706 599 Q 716 606 711 616 Q 704 628 674 636 Q 644 643 547 611 L 506 600 Q 496 599 486 596 Q 413 580 327 574 Q 290 568 315 550 Q 358 528 428 540 Q 468 549 513 554 L 555 563 Z" class="stroke2"/>
    <text x="319" y="563" transform="translate(319,563) scale(1,-1) translate(-319,-563)" font-family="Helvetica" font-size="72" font-weight="800" fill="#000000">2</text>
    <path d="M 575 389 Q 687 398 843 397 Q 927 394 935 406 Q 942 419 923 436 Q 863 479 820 471 Q 723 452 571 429 L 525 422 Q 513 422 503 420 Q 325 398 115 373 Q 90 372 108 351 Q 124 335 145 329 Q 169 322 187 328 Q 352 373 527 385 L 575 389 Z" class="stroke3"/>
    <text x="111" y="362" transform="translate(111,362) scale(1,-1) translate(-111,-362)" font-family="Helvetica" font-size="72" font-weight="800" fill="#000000">3</text>
    <path d="M 527 385 Q 536 154 492 78 Q 488 69 479 66 Q 467 62 376 87 Q 369 88 366 85 Q 365 81 373 73 Q 437 19 470 -22 Q 482 -35 489 -33 Q 505 -32 532 -3 Q 590 57 589 171 Q 590 237 575 389 L 571 429 Q 562 519 555 563 L 547 611 Q 541 650 540 680 Q 540 699 528 706 Q 515 713 502 718 C 475 730 454 737 468 711 Q 486 687 506 600 L 513 554 Q 520 493 525 422 L 527 385 Z" class="stroke4"/>
    <text x="474" y="710" transform="translate(474,710) scale(1,-1) translate(-474,-710)" font-family="Helvetica" font-size="72" font-weight="800" fill="#000000">4</text>
</g>
</svg>