<svg version="1.1" viewBox="0 0 1024 1024" xmlns="http://www.w3.org/2000/svg">
  <rect width="1024" height="1024" fill="white"/>
  <rect width="1024" height="1024" fill="none" stroke="black" stroke-width="4"/>
  <g stroke="black" stroke-dasharray="4,4" stroke-width="1" transform="scale(4, 4)">
    <line x1="0" y1="0" x2="256" y2="256"/>
    <line x1="256" y1="0" x2="0" y2="256"/>
    <line x1="128" y1="0" x2="128" y2="256"/>
    <line x1="0" y1="128" x2="256" y2="128"/>
  </g>
  <g transform="scale(1, -1) translate(0, -900)">
    <style type="text/css">
        .stroke1 {fill: #808080;}
        .stroke2 {fill: #808080;}
        .stroke3 {fill: #808080;}
        .stroke4 {fill: #808080;}
        .stroke5 {fill: #808080;}
        .stroke6 {fill: #808080;}
        .stroke7 {fill: #808080;}
        .stroke8 {fill: #808080;}
        .stroke9 {fill: #808080;}
        .stroke10 {fill: #808080;}
        .stroke11 {fill: #808080;}
        .stroke12 {fill: #808080;}
        .stroke13 {fill: #808080;}
        .stroke14 {fill: #808080;}
        .stroke15 {fill: #808080;}
        .stroke16 {fill: #808080;}
        .stroke17 {fill: #808080;}
        .stroke18 {fill: #808080;}
        .stroke19 {fill: #808080;}
        .stroke20 {fill: #808080;}
        
    </style>

    <path d="M 521 587 Q 582 600 647 611 Q 705 624 714 631 Q 724 638 719 648 Q 712 660 682 668 Q 651 675 620 664 Q 574 649 525 636 L 471 622 Q 395 609 307 601 Q 270 597 296 578 Q 332 557 410 568 Q 438 574 471 578 L 521 587 Z" class="stroke1"/>
    <text x="299" y="591" transform="translate(299,591) scale(1,-1) translate(-299,-591)" font-family="Helvetica" font-size="72" font-weight="800" fill="#000000">1</text>
    <path d="M 510 437 Q 516 513 521 587 L 525 636 Q 525 736 548 800 Q 552 812 531 827 Q 494 846 469 852 Q 453 855 444 846 Q 437 839 444 823 Q 468 789 468 766 Q 471 697 471 622 L 471 578 Q 470 505 466 423 C 465 393 508 407 510 437 Z" class="stroke2"/>
    <text x="457" y="836" transform="translate(457,836) scale(1,-1) translate(-457,-836)" font-family="Helvetica" font-size="72" font-weight="800" fill="#000000">2</text>
    <path d="M 534 183 Q 583 250 628 347 Q 644 380 667 399 Q 689 417 675 433 Q 662 448 626 462 Q 599 472 567 458 Q 542 448 510 437 L 466 423 Q 405 408 312 398 Q 296 397 290 388 Q 286 379 307 371 Q 350 355 409 373 Q 524 409 546 407 Q 568 406 564 382 Q 537 286 490 219 L 466 189 Q 367 81 158 33 Q 142 29 154 19 Q 163 13 223 16 Q 301 22 388 66 Q 455 97 506 150 L 534 183 Z" class="stroke3"/>
    <text x="299" y="386" transform="translate(299,386) scale(1,-1) translate(-299,-386)" font-family="Helvetica" font-size="72" font-weight="800" fill="#000000">3</text>
    <path d="M 506 150 Q 683 -27 735 -31 Q 819 -31 922 -8 Q 964 -1 960 11 Q 959 17 916 26 Q 733 66 711 76 Q 630 106 534 183 L 490 219 Q 450 253 410 291 Q 368 331 332 328 Q 313 328 310 322 Q 309 315 326 305 Q 377 278 466 189 L 506 150 Z" class="stroke4"/>
    <text x="316" y="320" transform="translate(316,320) scale(1,-1) translate(-316,-320)" font-family="Helvetica" font-size="72" font-weight="800" fill="#000000">4</text>
</g>
</svg>