<svg version="1.1" viewBox="0 0 1024 1024" xmlns="http://www.w3.org/2000/svg">
  <rect width="1024" height="1024" fill="white"/>
  <rect width="1024" height="1024" fill="none" stroke="black" stroke-width="4"/>
  <g stroke="black" stroke-dasharray="4,4" stroke-width="1" transform="scale(4, 4)">
    <line x1="0" y1="0" x2="256" y2="256"/>
    <line x1="256" y1="0" x2="0" y2="256"/>
    <line x1="128" y1="0" x2="128" y2="256"/>
    <line x1="0" y1="128" x2="256" y2="128"/>
  </g>
  <g transform="scale(1, -1) translate(0, -900)">
    <style type="text/css">
        .stroke1 {fill: #808080;}
        .stroke2 {fill: #808080;}
        .stroke3 {fill: #808080;}
        .stroke4 {fill: #808080;}
        .stroke5 {fill: #808080;}
        .stroke6 {fill: #808080;}
        .stroke7 {fill: #808080;}
        .stroke8 {fill: #808080;}
        .stroke9 {fill: #808080;}
        .stroke10 {fill: #808080;}
        .stroke11 {fill: #808080;}
        .stroke12 {fill: #808080;}
        .stroke13 {fill: #808080;}
        .stroke14 {fill: #808080;}
        .stroke15 {fill: #808080;}
        .stroke16 {fill: #808080;}
        .stroke17 {fill: #808080;}
        .stroke18 {fill: #808080;}
        .stroke19 {fill: #808080;}
        .stroke20 {fill: #808080;}
        
    </style>

    <path d="M 519 478 Q 523 553 529 623 L 531 655 Q 532 710 549 773 Q 552 783 531 799 Q 494 818 469 823 Q 453 827 444 817 Q 437 810 445 794 Q 466 766 466 746 Q 476 617 474 466 C 474 436 517 448 519 478 Z" class="stroke1"/>
    <text x="457" y="807" transform="translate(457,807) scale(1,-1) translate(-457,-807)" font-family="Helvetica" font-size="72" font-weight="800" fill="#000000">1</text>
    <path d="M 529 623 Q 562 614 652 632 Q 740 653 744 655 Q 753 664 748 672 Q 741 684 710 690 Q 679 696 648 682 Q 621 673 592 665 Q 562 659 531 655 C 501 651 500 629 529 623 Z" class="stroke2"/>
    <text x="535" y="628" transform="translate(535,628) scale(1,-1) translate(-535,-628)" font-family="Helvetica" font-size="72" font-weight="800" fill="#000000">2</text>
    <path d="M 557 212 Q 612 284 663 392 Q 679 425 704 444 Q 728 462 714 478 Q 699 494 664 509 Q 636 519 604 506 Q 567 493 519 478 L 474 466 Q 425 457 360 450 Q 344 449 338 440 Q 334 431 355 423 Q 398 407 457 424 Q 563 457 581 456 Q 603 452 597 429 Q 567 324 513 252 L 488 222 Q 379 108 146 53 Q 130 49 143 39 Q 152 32 218 36 Q 303 42 400 89 Q 472 123 527 178 L 557 212 Z" class="stroke3"/>
    <text x="347" y="438" transform="translate(347,438) scale(1,-1) translate(-347,-438)" font-family="Helvetica" font-size="72" font-weight="800" fill="#000000">3</text>
    <path d="M 527 178 Q 545 142 686 20 Q 707 -2 739 -2 Q 839 -3 920 9 Q 962 15 959 26 Q 958 32 916 44 Q 726 92 653 138 Q 611 168 557 212 L 513 252 Q 470 294 424 343 Q 385 383 348 385 Q 329 386 326 380 Q 325 373 340 362 Q 394 326 488 222 L 527 178 Z" class="stroke4"/>
    <text x="332" y="378" transform="translate(332,378) scale(1,-1) translate(-332,-378)" font-family="Helvetica" font-size="72" font-weight="800" fill="#000000">4</text>
</g>
</svg>