<svg version="1.1" viewBox="0 0 1024 1024" xmlns="http://www.w3.org/2000/svg">
  <rect width="1024" height="1024" fill="white"/>
  <rect width="1024" height="1024" fill="none" stroke="black" stroke-width="4"/>
  <g stroke="black" stroke-dasharray="4,4" stroke-width="1" transform="scale(4, 4)">
    <line x1="0" y1="0" x2="256" y2="256"/>
    <line x1="256" y1="0" x2="0" y2="256"/>
    <line x1="128" y1="0" x2="128" y2="256"/>
    <line x1="0" y1="128" x2="256" y2="128"/>
  </g>
  <g transform="scale(1, -1) translate(0, -900)">
    <style type="text/css">
        .stroke1 {fill: #808080;}
        .stroke2 {fill: #808080;}
        .stroke3 {fill: #808080;}
        .stroke4 {fill: #808080;}
        .stroke5 {fill: #808080;}
        .stroke6 {fill: #808080;}
        .stroke7 {fill: #808080;}
        .stroke8 {fill: #808080;}
        .stroke9 {fill: #808080;}
        .stroke10 {fill: #808080;}
        .stroke11 {fill: #808080;}
        .stroke12 {fill: #808080;}
        .stroke13 {fill: #808080;}
        .stroke14 {fill: #808080;}
        .stroke15 {fill: #808080;}
        .stroke16 {fill: #808080;}
        .stroke17 {fill: #808080;}
        .stroke18 {fill: #808080;}
        .stroke19 {fill: #808080;}
        .stroke20 {fill: #808080;}
        
    </style>

    <path d="M 372 669 Q 510 709 546 727 Q 601 749 648 759 Q 669 760 673 770 Q 677 783 663 796 Q 638 815 583 836 Q 564 845 549 843 Q 539 839 539 825 Q 539 786 360 693 C 333 679 343 661 372 669 Z" class="stroke1"/>
    <text x="660" y="776" transform="translate(660,776) scale(1,-1) translate(-660,-776)" font-family="Helvetica" font-size="72" font-weight="800" fill="#000000">1</text>
    <path d="M 360 514 Q 364 614 371 662 Q 372 666 372 669 C 374 686 374 686 360 693 Q 297 724 281 720 Q 259 716 277 691 Q 317 621 290 389 Q 280 326 250 253 Q 217 169 124 84 Q 108 69 104 62 Q 103 53 116 54 Q 167 57 239 140 Q 321 230 349 412 Q 352 445 357 481 L 360 514 Z" class="stroke2"/>
    <text x="283" y="705" transform="translate(283,705) scale(1,-1) translate(-283,-705)" font-family="Helvetica" font-size="72" font-weight="800" fill="#000000">2</text>
    <path d="M 618 519 Q 630 522 868 541 Q 889 542 894 551 Q 898 564 881 577 Q 823 613 786 603 Q 668 573 360 514 C 331 508 328 489 357 481 Q 387 469 425 478 Q 486 497 556 508 L 618 519 Z" class="stroke3"/>
    <text x="365" y="486" transform="translate(365,486) scale(1,-1) translate(-365,-486)" font-family="Helvetica" font-size="72" font-weight="800" fill="#000000">3</text>
    <path d="M 588 -35 Q 594 -63 601 -73 Q 607 -80 615 -78 Q 631 -69 638 -4 Q 645 63 644 129 Q 637 378 656 474 Q 659 493 644 503 Q 629 513 618 519 C 592 534 542 534 556 508 Q 557 507 559 505 Q 578 465 581 439 Q 585 316 583 125 Q 583 5 588 -35 Z" class="stroke4"/>
    <text x="569" y="500" transform="translate(569,500) scale(1,-1) translate(-569,-500)" font-family="Helvetica" font-size="72" font-weight="800" fill="#000000">4</text>
</g>
</svg>