<svg version="1.1" viewBox="0 0 1024 1024" xmlns="http://www.w3.org/2000/svg">
  <rect width="1024" height="1024" fill="white"/>
  <rect width="1024" height="1024" fill="none" stroke="black" stroke-width="4"/>
  <g stroke="black" stroke-dasharray="4,4" stroke-width="1" transform="scale(4, 4)">
    <line x1="0" y1="0" x2="256" y2="256"/>
    <line x1="256" y1="0" x2="0" y2="256"/>
    <line x1="128" y1="0" x2="128" y2="256"/>
    <line x1="0" y1="128" x2="256" y2="128"/>
  </g>
  <g transform="scale(1, -1) translate(0, -900)">
    <style type="text/css">
        .stroke1 {fill: #808080;}
        .stroke2 {fill: #808080;}
        .stroke3 {fill: #808080;}
        .stroke4 {fill: #808080;}
        .stroke5 {fill: #808080;}
        .stroke6 {fill: #808080;}
        .stroke7 {fill: #808080;}
        .stroke8 {fill: #808080;}
        .stroke9 {fill: #808080;}
        .stroke10 {fill: #808080;}
        .stroke11 {fill: #808080;}
        .stroke12 {fill: #808080;}
        .stroke13 {fill: #808080;}
        .stroke14 {fill: #808080;}
        .stroke15 {fill: #808080;}
        .stroke16 {fill: #808080;}
        .stroke17 {fill: #808080;}
        .stroke18 {fill: #808080;}
        .stroke19 {fill: #808080;}
        .stroke20 {fill: #808080;}
        
    </style>

    <path d="M 267 629 Q 236 650 205 658 Q 196 661 191 655 Q 181 648 193 635 Q 254 524 259 270 Q 260 198 305 164 L 307 163 Q 326 159 328 187 L 328 223 Q 327 238 302 404 L 300 426 Q 290 510 287 580 C 286 610 285 618 267 629 Z" class="stroke1"/>
    <text x="198" y="646" transform="translate(198,646) scale(1,-1) translate(-198,-646)" font-family="Helvetica" font-size="72" font-weight="800" fill="#000000">1</text>
    <path d="M 646 211 Q 658 183 686 126 Q 696 107 707 108 Q 725 112 735 140 Q 780 233 784 355 Q 791 431 798 520 Q 802 578 830 614 Q 849 639 835 654 Q 808 679 752 703 Q 730 715 690 700 Q 522 645 267 629 C 237 627 257 576 287 580 Q 294 580 301 581 Q 443 608 665 638 Q 705 645 720 626 Q 732 605 733 583 Q 733 421 702 262 Q 699 234 687 231 Q 683 230 670 235 C 641 228 639 227 646 211 Z" class="stroke2"/>
    <text x="277" y="626" transform="translate(277,626) scale(1,-1) translate(-277,-626)" font-family="Helvetica" font-size="72" font-weight="800" fill="#000000">2</text>
    <path d="M 302 404 Q 315 397 343 399 Q 484 418 587 430 Q 614 433 605 447 Q 595 463 566 471 Q 541 475 493 466 Q 390 444 300 426 C 271 420 274 414 302 404 Z" class="stroke3"/>
    <text x="308" y="421" transform="translate(308,421) scale(1,-1) translate(-308,-421)" font-family="Helvetica" font-size="72" font-weight="800" fill="#000000">3</text>
    <path d="M 328 187 Q 337 187 346 188 Q 442 204 646 211 C 676 212 691 213 670 235 Q 663 244 648 254 Q 632 264 598 259 Q 448 232 328 223 C 298 221 298 186 328 187 Z" class="stroke4"/>
    <text x="332" y="193" transform="translate(332,193) scale(1,-1) translate(-332,-193)" font-family="Helvetica" font-size="72" font-weight="800" fill="#000000">4</text>
</g>
</svg>