<svg version="1.1" viewBox="0 0 1024 1024" xmlns="http://www.w3.org/2000/svg">
  <rect width="1024" height="1024" fill="white"/>
  <rect width="1024" height="1024" fill="none" stroke="black" stroke-width="4"/>
  <g stroke="black" stroke-dasharray="4,4" stroke-width="1" transform="scale(4, 4)">
    <line x1="0" y1="0" x2="256" y2="256"/>
    <line x1="256" y1="0" x2="0" y2="256"/>
    <line x1="128" y1="0" x2="128" y2="256"/>
    <line x1="0" y1="128" x2="256" y2="128"/>
  </g>
  <g transform="scale(1, -1) translate(0, -900)">
    <style type="text/css">
        .stroke1 {fill: #808080;}
        .stroke2 {fill: #808080;}
        .stroke3 {fill: #808080;}
        .stroke4 {fill: #808080;}
        .stroke5 {fill: #808080;}
        .stroke6 {fill: #808080;}
        .stroke7 {fill: #808080;}
        .stroke8 {fill: #808080;}
        .stroke9 {fill: #808080;}
        .stroke10 {fill: #808080;}
        .stroke11 {fill: #808080;}
        .stroke12 {fill: #808080;}
        .stroke13 {fill: #808080;}
        .stroke14 {fill: #808080;}
        .stroke15 {fill: #808080;}
        .stroke16 {fill: #808080;}
        .stroke17 {fill: #808080;}
        .stroke18 {fill: #808080;}
        .stroke19 {fill: #808080;}
        .stroke20 {fill: #808080;}
        
    </style>

    <path d="M 524 533 Q 537 536 755 560 Q 768 557 779 573 Q 780 586 754 600 Q 709 627 634 603 Q 526 582 524 580 L 479 572 Q 404 563 234 546 Q 200 542 226 521 Q 265 491 291 494 Q 309 503 446 521 L 524 533 Z" class="stroke1"/>
    <text x="228" y="534" transform="translate(228,534) scale(1,-1) translate(-228,-534)" font-family="Helvetica" font-size="72" font-weight="800" fill="#000000">1</text>
    <path d="M 524 580 Q 524 682 544 758 Q 559 783 532 802 Q 516 814 485 833 Q 460 851 439 834 Q 433 828 440 813 Q 474 762 476 711 Q 477 647 479 572 L 477 458 Q 474 208 466 155 Q 442 46 456 5 Q 460 -7 466 -21 Q 473 -40 481 -43 Q 488 -50 495 -41 Q 504 -37 514 -15 Q 524 10 523 44 Q 522 90 523 480 L 524 580 Z" class="stroke2"/>
    <text x="453" y="825" transform="translate(453,825) scale(1,-1) translate(-453,-825)" font-family="Helvetica" font-size="72" font-weight="800" fill="#000000">2</text>
    <path d="M 446 521 Q 368 337 127 132 Q 114 119 124 117 Q 134 113 146 119 Q 276 176 403 344 Q 472 450 477 458 C 528 538 464 563 446 521 Z" class="stroke3"/>
    <text x="474" y="519" transform="translate(474,519) scale(1,-1) translate(-474,-519)" font-family="Helvetica" font-size="72" font-weight="800" fill="#000000">3</text>
    <path d="M 523 480 Q 607 338 716 186 Q 737 159 774 157 Q 901 147 942 150 Q 954 151 957 157 Q 957 164 941 173 Q 773 251 721 302 Q 628 398 523 532 Q 523 533 524 533 L 524 533 C 506 558 508 506 523 480 Z" class="stroke4"/>
    <text x="528" y="513" transform="translate(528,513) scale(1,-1) translate(-528,-513)" font-family="Helvetica" font-size="72" font-weight="800" fill="#000000">4</text>
</g>
</svg>