<svg version="1.1" viewBox="0 0 1024 1024" xmlns="http://www.w3.org/2000/svg">
  <rect width="1024" height="1024" fill="white"/>
  <rect width="1024" height="1024" fill="none" stroke="black" stroke-width="4"/>
  <g stroke="black" stroke-dasharray="4,4" stroke-width="1" transform="scale(4, 4)">
    <line x1="0" y1="0" x2="256" y2="256"/>
    <line x1="256" y1="0" x2="0" y2="256"/>
    <line x1="128" y1="0" x2="128" y2="256"/>
    <line x1="0" y1="128" x2="256" y2="128"/>
  </g>
  <g transform="scale(1, -1) translate(0, -900)">
    <style type="text/css">
        .stroke1 {fill: #808080;}
        .stroke2 {fill: #808080;}
        .stroke3 {fill: #808080;}
        .stroke4 {fill: #808080;}
        .stroke5 {fill: #808080;}
        .stroke6 {fill: #808080;}
        .stroke7 {fill: #808080;}
        .stroke8 {fill: #808080;}
        .stroke9 {fill: #808080;}
        .stroke10 {fill: #808080;}
        .stroke11 {fill: #808080;}
        .stroke12 {fill: #808080;}
        .stroke13 {fill: #808080;}
        .stroke14 {fill: #808080;}
        .stroke15 {fill: #808080;}
        .stroke16 {fill: #808080;}
        .stroke17 {fill: #808080;}
        .stroke18 {fill: #808080;}
        .stroke19 {fill: #808080;}
        .stroke20 {fill: #808080;}
        
    </style>

    <path d="M 398 575 Q 416 606 431 637 Q 464 707 496 765 Q 506 781 488 797 Q 433 833 404 826 Q 391 822 395 805 Q 419 667 274 478 Q 250 454 204 394 Q 197 375 214 382 Q 278 400 376 541 L 398 575 Z" class="stroke1"/>
    <text x="409" y="812" transform="translate(409,812) scale(1,-1) translate(-409,-812)" font-family="Helvetica" font-size="72" font-weight="800" fill="#000000">1</text>
    <path d="M 376 541 Q 395 525 443 539 Q 558 570 663 594 Q 700 598 702 582 Q 701 560 655 478 Q 648 462 655 457 Q 662 453 676 466 Q 766 545 803 563 Q 833 573 830 590 Q 829 603 747 642 Q 719 654 627 624 Q 480 591 398 575 C 369 569 349 553 376 541 Z" class="stroke2"/>
    <text x="384" y="544" transform="translate(384,544) scale(1,-1) translate(-384,-544)" font-family="Helvetica" font-size="72" font-weight="800" fill="#000000">2</text>
    <path d="M 523 312 Q 529 336 533 360 Q 537 390 543 408 Q 549 421 540 430 Q 519 452 495 461 Q 473 473 462 469 Q 452 465 455 453 Q 494 321 417 188 Q 410 178 400 166 Q 331 88 163 31 Q 151 30 147 25 Q 141 21 151 15 Q 157 14 172 15 Q 274 27 346 65 Q 460 116 513 273 L 523 312 Z" class="stroke3"/>
    <text x="466" y="458" transform="translate(466,458) scale(1,-1) translate(-466,-458)" font-family="Helvetica" font-size="72" font-weight="800" fill="#000000">3</text>
    <path d="M 513 273 Q 618 111 701 19 Q 725 -9 749 -8 Q 818 -1 878 4 Q 903 7 904 13 Q 905 20 876 34 Q 728 98 686 137 Q 604 210 523 312 C 504 335 497 298 513 273 Z" class="stroke4"/>
    <text x="527" y="304" transform="translate(527,304) scale(1,-1) translate(-527,-304)" font-family="Helvetica" font-size="72" font-weight="800" fill="#000000">4</text>
</g>
</svg>