<svg version="1.1" viewBox="0 0 1024 1024" xmlns="http://www.w3.org/2000/svg">
  <rect width="1024" height="1024" fill="white"/>
  <rect width="1024" height="1024" fill="none" stroke="black" stroke-width="4"/>
  <g stroke="black" stroke-dasharray="4,4" stroke-width="1" transform="scale(4, 4)">
    <line x1="0" y1="0" x2="256" y2="256"/>
    <line x1="256" y1="0" x2="0" y2="256"/>
    <line x1="128" y1="0" x2="128" y2="256"/>
    <line x1="0" y1="128" x2="256" y2="128"/>
  </g>
  <g transform="scale(1, -1) translate(0, -900)">
    <style type="text/css">
        .stroke1 {fill: #808080;}
        .stroke2 {fill: #808080;}
        .stroke3 {fill: #808080;}
        .stroke4 {fill: #808080;}
        .stroke5 {fill: #808080;}
        .stroke6 {fill: #808080;}
        .stroke7 {fill: #808080;}
        .stroke8 {fill: #808080;}
        .stroke9 {fill: #808080;}
        .stroke10 {fill: #808080;}
        .stroke11 {fill: #808080;}
        .stroke12 {fill: #808080;}
        .stroke13 {fill: #808080;}
        .stroke14 {fill: #808080;}
        .stroke15 {fill: #808080;}
        .stroke16 {fill: #808080;}
        .stroke17 {fill: #808080;}
        .stroke18 {fill: #808080;}
        .stroke19 {fill: #808080;}
        .stroke20 {fill: #808080;}
        
    </style>

    <path d="M 268 419 Q 299 415 375 436 Q 456 461 458 463 Q 465 473 461 480 Q 452 492 422 496 Q 398 499 317 466 Q 293 460 270 454 C 241 446 238 421 268 419 Z" class="stroke1"/>
    <text x="273" y="425" transform="translate(273,425) scale(1,-1) translate(-273,-425)" font-family="Helvetica" font-size="72" font-weight="800" fill="#000000">1</text>
    <path d="M 270 454 Q 277 583 282 604 Q 286 623 273 633 Q 261 646 213 660 Q 195 664 188 658 Q 181 651 193 631 Q 212 601 219 563 Q 226 527 222 396 Q 218 287 196 228 Q 189 188 147 144 Q 134 131 142 107 Q 151 76 167 61 Q 180 51 195 67 Q 250 131 416 264 Q 434 276 436 286 Q 439 293 431 292 Q 419 291 279 209 Q 267 203 263 207 Q 256 211 258 230 Q 262 341 268 419 L 270 454 Z" class="stroke2"/>
    <text x="196" y="651" transform="translate(196,651) scale(1,-1) translate(-196,-651)" font-family="Helvetica" font-size="72" font-weight="800" fill="#000000">2</text>
    <path d="M 575 431 Q 644 458 781 524 Q 806 537 834 541 Q 861 547 853 569 Q 843 591 818 614 Q 796 635 781 635 Q 766 636 768 621 Q 765 584 662 516 Q 620 489 576 459 C 551 442 547 420 575 431 Z" class="stroke3"/>
    <text x="778" y="625" transform="translate(778,625) scale(1,-1) translate(-778,-625)" font-family="Helvetica" font-size="72" font-weight="800" fill="#000000">3</text>
    <path d="M 576 459 Q 586 642 603 705 Q 613 727 581 752 Q 554 770 532 782 Q 513 795 493 784 Q 480 777 503 747 Q 528 708 530 612 Q 530 534 523 377 Q 508 190 553 128 Q 601 80 694 70 Q 731 67 781 67 Q 860 67 919 92 Q 958 104 944 133 Q 919 190 903 289 Q 900 305 893 312 Q 884 319 881 302 Q 869 244 855 200 Q 849 170 823 153 Q 796 126 673 135 Q 625 142 609 153 Q 557 190 574 412 Q 574 422 575 431 L 576 459 Z" class="stroke4"/>
    <text x="501" y="774" transform="translate(501,774) scale(1,-1) translate(-501,-774)" font-family="Helvetica" font-size="72" font-weight="800" fill="#000000">4</text>
</g>
</svg>