<svg version="1.1" viewBox="0 0 1024 1024" xmlns="http://www.w3.org/2000/svg">
  <rect width="1024" height="1024" fill="white"/>
  <rect width="1024" height="1024" fill="none" stroke="black" stroke-width="4"/>
  <g stroke="black" stroke-dasharray="4,4" stroke-width="1" transform="scale(4, 4)">
    <line x1="0" y1="0" x2="256" y2="256"/>
    <line x1="256" y1="0" x2="0" y2="256"/>
    <line x1="128" y1="0" x2="128" y2="256"/>
    <line x1="0" y1="128" x2="256" y2="128"/>
  </g>
  <g transform="scale(1, -1) translate(0, -900)">
    <style type="text/css">
        .stroke1 {fill: #808080;}
        .stroke2 {fill: #808080;}
        .stroke3 {fill: #808080;}
        .stroke4 {fill: #808080;}
        .stroke5 {fill: #808080;}
        .stroke6 {fill: #808080;}
        .stroke7 {fill: #808080;}
        .stroke8 {fill: #808080;}
        .stroke9 {fill: #808080;}
        .stroke10 {fill: #808080;}
        .stroke11 {fill: #808080;}
        .stroke12 {fill: #808080;}
        .stroke13 {fill: #808080;}
        .stroke14 {fill: #808080;}
        .stroke15 {fill: #808080;}
        .stroke16 {fill: #808080;}
        .stroke17 {fill: #808080;}
        .stroke18 {fill: #808080;}
        .stroke19 {fill: #808080;}
        .stroke20 {fill: #808080;}
        
    </style>

    <path d="M 535 506 Q 538 699 560 762 Q 578 793 520 817 Q 486 836 465 830 Q 447 823 463 799 Q 485 771 486 736 Q 490 697 478 121 Q 477 97 463 88 Q 454 81 432 88 Q 407 94 382 99 Q 348 111 351 100 Q 352 93 373 78 Q 440 24 457 -5 Q 476 -41 493 -42 Q 508 -43 524 -7 Q 543 41 541 117 Q 531 294 534 470 L 535 506 Z" class="stroke1"/>
    <text x="473" y="814" transform="translate(473,814) scale(1,-1) translate(-473,-814)" font-family="Helvetica" font-size="72" font-weight="800" fill="#000000">1</text>
    <path d="M 154 501 Q 141 501 139 492 Q 138 485 153 477 Q 199 452 227 461 Q 333 489 343 489 Q 359 486 347 456 Q 296 326 249 262 Q 201 190 114 119 Q 99 106 110 103 Q 120 102 141 113 Q 217 153 281 224 Q 342 288 419 454 Q 429 478 441 489 Q 456 501 447 511 Q 437 524 399 537 Q 378 549 336 530 Q 270 509 154 501 Z" class="stroke2"/>
    <text x="147" y="491" transform="translate(147,491) scale(1,-1) translate(-147,-491)" font-family="Helvetica" font-size="72" font-weight="800" fill="#000000">2</text>
    <path d="M 590 446 Q 630 476 766 584 Q 787 603 814 615 Q 838 627 825 647 Q 809 666 779 681 Q 752 696 738 692 Q 723 691 729 675 Q 735 639 659 553 Q 620 508 577 459 C 557 436 566 428 590 446 Z" class="stroke3"/>
    <text x="737" y="682" transform="translate(737,682) scale(1,-1) translate(-737,-682)" font-family="Helvetica" font-size="72" font-weight="800" fill="#000000">3</text>
    <path d="M 577 459 Q 555 484 535 506 C 515 528 516 494 534 470 Q 756 161 817 160 Q 898 169 967 175 Q 995 178 996 185 Q 997 192 964 205 Q 810 253 753 295 Q 690 346 590 446 L 577 459 Z" class="stroke4"/>
    <text x="539" y="500" transform="translate(539,500) scale(1,-1) translate(-539,-500)" font-family="Helvetica" font-size="72" font-weight="800" fill="#000000">4</text>
</g>
</svg>