<svg version="1.1" viewBox="0 0 1024 1024" xmlns="http://www.w3.org/2000/svg">
  <rect width="1024" height="1024" fill="white"/>
  <rect width="1024" height="1024" fill="none" stroke="black" stroke-width="4"/>
  <g stroke="black" stroke-dasharray="4,4" stroke-width="1" transform="scale(4, 4)">
    <line x1="0" y1="0" x2="256" y2="256"/>
    <line x1="256" y1="0" x2="0" y2="256"/>
    <line x1="128" y1="0" x2="128" y2="256"/>
    <line x1="0" y1="128" x2="256" y2="128"/>
  </g>
  <g transform="scale(1, -1) translate(0, -900)">
    <style type="text/css">
        .stroke1 {fill: #808080;}
        .stroke2 {fill: #808080;}
        .stroke3 {fill: #808080;}
        .stroke4 {fill: #808080;}
        .stroke5 {fill: #808080;}
        .stroke6 {fill: #808080;}
        .stroke7 {fill: #808080;}
        .stroke8 {fill: #808080;}
        .stroke9 {fill: #808080;}
        .stroke10 {fill: #808080;}
        .stroke11 {fill: #808080;}
        .stroke12 {fill: #808080;}
        .stroke13 {fill: #808080;}
        .stroke14 {fill: #808080;}
        .stroke15 {fill: #808080;}
        .stroke16 {fill: #808080;}
        .stroke17 {fill: #808080;}
        .stroke18 {fill: #808080;}
        .stroke19 {fill: #808080;}
        .stroke20 {fill: #808080;}
        
    </style>

    <path d="M 574 716 Q 703 749 708 753 Q 717 763 712 771 Q 703 784 672 791 Q 650 795 543 761 Q 432 734 385 728 Q 346 721 375 703 Q 420 679 483 696 Q 505 702 530 706 L 574 716 Z" class="stroke1"/>
    <text x="377" y="717" transform="translate(377,717) scale(1,-1) translate(-377,-717)" font-family="Helvetica" font-size="72" font-weight="800" fill="#000000">1</text>
    <path d="M 605 487 Q 657 500 833 498 Q 858 497 866 511 Q 873 521 851 535 Q 788 575 734 558 Q 623 536 606 529 L 549 519 Q 441 500 337 471 Q 306 459 313 489 Q 329 564 344 593 Q 354 605 348 616 Q 341 628 302 645 Q 283 655 271 648 Q 259 638 270 623 Q 286 586 267 502 Q 263 480 236 454 Q 226 442 228 427 Q 232 414 251 400 Q 266 391 280 405 Q 361 451 507 472 L 605 487 Z" class="stroke2"/>
    <text x="281" y="635" transform="translate(281,635) scale(1,-1) translate(-281,-635)" font-family="Helvetica" font-size="72" font-weight="800" fill="#000000">2</text>
    <path d="M 549 431 Q 549 296 549 100 Q 548 66 537 52 Q 525 45 496 53 Q 468 63 433 72 Q 420 76 421 68 Q 421 59 432 50 Q 504 -7 550 -53 Q 562 -63 576 -46 Q 618 8 614 93 Q 601 360 605 487 L 606 529 Q 607 590 613 648 Q 620 676 613 687 Q 604 700 574 716 C 548 732 521 735 530 706 Q 546 655 548 636 Q 548 579 549 519 L 549 431 Z" class="stroke3"/>
    <text x="539" y="698" transform="translate(539,698) scale(1,-1) translate(-539,-698)" font-family="Helvetica" font-size="72" font-weight="800" fill="#000000">3</text>
    <path d="M 507 472 Q 485 397 356 274 Q 245 180 143 113 Q 124 100 141 97 Q 174 94 280 151 Q 362 202 454 301 Q 485 337 549 431 C 586 486 527 528 507 472 Z" class="stroke4"/>
    <text x="543" y="471" transform="translate(543,471) scale(1,-1) translate(-543,-471)" font-family="Helvetica" font-size="72" font-weight="800" fill="#000000">4</text>
</g>
</svg>