<svg version="1.1" viewBox="0 0 1024 1024" xmlns="http://www.w3.org/2000/svg">
  <rect width="1024" height="1024" fill="white"/>
  <rect width="1024" height="1024" fill="none" stroke="black" stroke-width="4"/>
  <g stroke="black" stroke-dasharray="4,4" stroke-width="1" transform="scale(4, 4)">
    <line x1="0" y1="0" x2="256" y2="256"/>
    <line x1="256" y1="0" x2="0" y2="256"/>
    <line x1="128" y1="0" x2="128" y2="256"/>
    <line x1="0" y1="128" x2="256" y2="128"/>
  </g>
  <g transform="scale(1, -1) translate(0, -900)">
    <style type="text/css">
        .stroke1 {fill: #808080;}
        .stroke2 {fill: #808080;}
        .stroke3 {fill: #808080;}
        .stroke4 {fill: #808080;}
        .stroke5 {fill: #808080;}
        .stroke6 {fill: #808080;}
        .stroke7 {fill: #808080;}
        .stroke8 {fill: #808080;}
        .stroke9 {fill: #808080;}
        .stroke10 {fill: #808080;}
        .stroke11 {fill: #808080;}
        .stroke12 {fill: #808080;}
        .stroke13 {fill: #808080;}
        .stroke14 {fill: #808080;}
        .stroke15 {fill: #808080;}
        .stroke16 {fill: #808080;}
        .stroke17 {fill: #808080;}
        .stroke18 {fill: #808080;}
        .stroke19 {fill: #808080;}
        .stroke20 {fill: #808080;}
        
    </style>

    <path d="M 513 681 Q 580 694 647 702 Q 684 706 686 691 Q 685 675 649 614 Q 639 598 647 593 Q 654 589 670 601 Q 758 656 792 667 Q 819 671 818 686 Q 817 701 737 747 Q 713 759 682 753 Q 490 708 242 681 Q 211 678 233 652 Q 251 630 305 643 Q 381 659 457 672 L 513 681 Z" class="stroke1"/>
    <text x="238" y="666" transform="translate(238,666) scale(1,-1) translate(-238,-666)" font-family="Helvetica" font-size="72" font-weight="800" fill="#000000">1</text>
    <path d="M 517 242 Q 520 351 523 443 L 524 471 Q 525 592 531 636 Q 538 660 513 681 C 492 702 445 700 457 672 Q 472 642 471 606 Q 472 570 469 271 C 469 241 516 212 517 242 Z" class="stroke2"/>
    <text x="465" y="668" transform="translate(465,668) scale(1,-1) translate(-465,-668)" font-family="Helvetica" font-size="72" font-weight="800" fill="#000000">2</text>
    <path d="M 523 443 Q 574 427 620 440 Q 720 461 728 465 Q 737 475 732 483 Q 723 496 692 502 Q 670 506 585 482 Q 558 476 525 472 Q 524 472 524 471 C 495 463 494 452 523 443 Z" class="stroke3"/>
    <text x="532" y="464" transform="translate(532,464) scale(1,-1) translate(-532,-464)" font-family="Helvetica" font-size="72" font-weight="800" fill="#000000">3</text>
    <path d="M 330 371 Q 360 440 374 457 Q 381 464 378 474 Q 375 484 361 494 Q 345 506 324 509 Q 302 513 291 509 Q 282 506 286 494 Q 310 424 211 255 Q 204 246 198 236 Q 167 188 84 92 Q 77 85 87 84 Q 168 114 260 247 Q 305 322 318 348 L 330 371 Z" class="stroke4"/>
    <text x="298" y="498" transform="translate(298,498) scale(1,-1) translate(-298,-498)" font-family="Helvetica" font-size="72" font-weight="800" fill="#000000">4</text>
    <path d="M 318 348 Q 508 194 708 56 Q 736 34 776 38 Q 851 42 926 68 Q 945 72 947 78 Q 948 85 932 90 Q 859 111 772 132 Q 657 162 517 242 L 469 271 Q 444 287 418 306 Q 360 351 330 371 C 305 388 295 367 318 348 Z" class="stroke5"/>
    <text x="331" y="363" transform="translate(331,363) scale(1,-1) translate(-331,-363)" font-family="Helvetica" font-size="72" font-weight="800" fill="#000000">5</text>
</g>
</svg>