<svg version="1.1" viewBox="0 0 1024 1024" xmlns="http://www.w3.org/2000/svg">
  <rect width="1024" height="1024" fill="white"/>
  <rect width="1024" height="1024" fill="none" stroke="black" stroke-width="4"/>
  <g stroke="black" stroke-dasharray="4,4" stroke-width="1" transform="scale(4, 4)">
    <line x1="0" y1="0" x2="256" y2="256"/>
    <line x1="256" y1="0" x2="0" y2="256"/>
    <line x1="128" y1="0" x2="128" y2="256"/>
    <line x1="0" y1="128" x2="256" y2="128"/>
  </g>
  <g transform="scale(1, -1) translate(0, -900)">
    <style type="text/css">
        .stroke1 {fill: #808080;}
        .stroke2 {fill: #808080;}
        .stroke3 {fill: #808080;}
        .stroke4 {fill: #808080;}
        .stroke5 {fill: #808080;}
        .stroke6 {fill: #808080;}
        .stroke7 {fill: #808080;}
        .stroke8 {fill: #808080;}
        .stroke9 {fill: #808080;}
        .stroke10 {fill: #808080;}
        .stroke11 {fill: #808080;}
        .stroke12 {fill: #808080;}
        .stroke13 {fill: #808080;}
        .stroke14 {fill: #808080;}
        .stroke15 {fill: #808080;}
        .stroke16 {fill: #808080;}
        .stroke17 {fill: #808080;}
        .stroke18 {fill: #808080;}
        .stroke19 {fill: #808080;}
        .stroke20 {fill: #808080;}
        
    </style>

    <path d="M 304 515 Q 217 376 94 274 Q 80 261 90 261 Q 102 260 119 269 Q 214 321 290 411 Q 367 494 459 706 Q 463 715 468 725 L 482 745 Q 488 752 482 758 Q 471 770 437 778 Q 413 789 379 768 Q 344 755 313 747 L 250 733 Q 239 730 239 723 Q 239 716 254 710 Q 300 692 323 704 Q 384 731 392 731 Q 402 729 394 707 Q 355 610 318 540 L 304 515 Z" class="stroke1"/>
    <text x="248" y="724" transform="translate(248,724) scale(1,-1) translate(-248,-724)" font-family="Helvetica" font-size="72" font-weight="800" fill="#000000">1</text>
    <path d="M 318 540 Q 312 576 270 592 Q 230 612 213 613 Q 204 615 203 604 Q 202 596 267 529 Q 282 515 299 515 Q 303 515 304 515 C 323 515 323 515 318 540 Z" class="stroke2"/>
    <text x="211" y="605" transform="translate(211,605) scale(1,-1) translate(-211,-605)" font-family="Helvetica" font-size="72" font-weight="800" fill="#000000">2</text>
    <path d="M 570 717 Q 613 748 647 776 Q 672 798 684 804 Q 702 813 690 829 Q 685 834 676 840 Q 639 866 621 858 Q 612 858 615 846 Q 619 824 559 727 C 543 701 546 699 570 717 Z" class="stroke3"/>
    <text x="680" y="818" transform="translate(680,818) scale(1,-1) translate(-680,-818)" font-family="Helvetica" font-size="72" font-weight="800" fill="#000000">3</text>
    <path d="M 649 619 Q 708 647 760 677 Q 796 698 815 704 Q 831 709 831 721 Q 831 741 794 764 Q 770 781 760 780 Q 747 780 750 766 Q 750 749 710 706 Q 698 694 636 634 C 614 613 622 606 649 619 Z" class="stroke4"/>
    <text x="759" y="770" transform="translate(759,770) scale(1,-1) translate(-759,-770)" font-family="Helvetica" font-size="72" font-weight="800" fill="#000000">4</text>
    <path d="M 559 727 Q 549 733 536 733 Q 515 733 507 725 Q 503 718 514 712 Q 551 690 572 653 Q 766 371 803 357 Q 825 353 875 353 Q 976 353 990 368 Q 994 374 982 379 Q 832 443 782 482 Q 666 598 649 619 L 636 634 Q 570 716 570 717 L 559 727 Z" class="stroke5"/>
    <text x="516" y="722" transform="translate(516,722) scale(1,-1) translate(-516,-722)" font-family="Helvetica" font-size="72" font-weight="800" fill="#000000">5</text>
</g>
</svg>