<svg version="1.1" viewBox="0 0 1024 1024" xmlns="http://www.w3.org/2000/svg">
  <rect width="1024" height="1024" fill="white"/>
  <rect width="1024" height="1024" fill="none" stroke="black" stroke-width="4"/>
  <g stroke="black" stroke-dasharray="4,4" stroke-width="1" transform="scale(4, 4)">
    <line x1="0" y1="0" x2="256" y2="256"/>
    <line x1="256" y1="0" x2="0" y2="256"/>
    <line x1="128" y1="0" x2="128" y2="256"/>
    <line x1="0" y1="128" x2="256" y2="128"/>
  </g>
  <g transform="scale(1, -1) translate(0, -900)">
    <style type="text/css">
        .stroke1 {fill: #808080;}
        .stroke2 {fill: #808080;}
        .stroke3 {fill: #808080;}
        .stroke4 {fill: #808080;}
        .stroke5 {fill: #808080;}
        .stroke6 {fill: #808080;}
        .stroke7 {fill: #808080;}
        .stroke8 {fill: #808080;}
        .stroke9 {fill: #808080;}
        .stroke10 {fill: #808080;}
        .stroke11 {fill: #808080;}
        .stroke12 {fill: #808080;}
        .stroke13 {fill: #808080;}
        .stroke14 {fill: #808080;}
        .stroke15 {fill: #808080;}
        .stroke16 {fill: #808080;}
        .stroke17 {fill: #808080;}
        .stroke18 {fill: #808080;}
        .stroke19 {fill: #808080;}
        .stroke20 {fill: #808080;}
        
    </style>

    <path d="M 553 581 Q 616 597 679 608 Q 722 611 723 592 Q 724 576 701 510 Q 694 492 703 489 Q 712 485 724 501 Q 800 571 832 588 Q 857 597 854 612 Q 851 625 766 662 Q 741 671 712 661 Q 625 636 555 616 L 501 604 Q 425 591 329 573 C 300 567 310 522 339 528 Q 351 529 369 535 Q 436 554 501 568 L 553 581 Z" class="stroke1"/>
    <text x="344" y="537" transform="translate(344,537) scale(1,-1) translate(-344,-537)" font-family="Helvetica" font-size="72" font-weight="800" fill="#000000">1</text>
    <path d="M 329 573 Q 328 574 327 574 Q 278 599 261 597 Q 240 594 256 571 Q 289 511 261 291 Q 249 234 221 166 Q 190 96 100 13 Q 85 0 82 -7 Q 79 -14 92 -14 Q 134 -14 208 62 Q 301 165 327 389 Q 336 521 339 528 C 343 558 344 566 329 573 Z" class="stroke2"/>
    <text x="262" y="583" transform="translate(262,583) scale(1,-1) translate(-262,-583)" font-family="Helvetica" font-size="72" font-weight="800" fill="#000000">2</text>
    <path d="M 543 405 Q 547 496 553 581 L 555 616 Q 558 718 578 783 Q 581 795 560 811 Q 523 830 496 835 Q 478 839 470 829 Q 463 822 471 805 Q 496 769 496 745 Q 500 678 501 604 L 501 568 Q 501 486 498 393 C 497 363 542 375 543 405 Z" class="stroke3"/>
    <text x="483" y="819" transform="translate(483,819) scale(1,-1) translate(-483,-819)" font-family="Helvetica" font-size="72" font-weight="800" fill="#000000">3</text>
    <path d="M 600 165 Q 640 226 669 320 Q 676 354 696 372 Q 712 385 694 401 Q 675 417 641 431 Q 620 438 599 428 Q 571 415 543 405 L 498 393 Q 408 381 397 374 Q 388 367 406 358 Q 431 345 470 357 Q 531 370 591 383 Q 612 389 612 366 Q 612 287 562 198 L 535 159 Q 477 86 305 34 Q 289 30 299 22 Q 306 16 335 20 Q 432 32 490 59 Q 533 81 568 122 L 600 165 Z" class="stroke4"/>
    <text x="402" y="368" transform="translate(402,368) scale(1,-1) translate(-402,-368)" font-family="Helvetica" font-size="72" font-weight="800" fill="#000000">4</text>
    <path d="M 568 122 Q 704 -20 761 -27 Q 875 -27 945 -19 Q 958 -15 962 -7 Q 966 2 944 5 Q 886 24 822 41 Q 716 72 600 165 L 562 198 Q 544 214 527 231 Q 443 321 390 316 Q 377 316 365 312 Q 355 308 361 298 Q 367 289 378 289 Q 417 286 535 159 L 568 122 Z" class="stroke5"/>
    <text x="372" y="302" transform="translate(372,302) scale(1,-1) translate(-372,-302)" font-family="Helvetica" font-size="72" font-weight="800" fill="#000000">5</text>
</g>
</svg>