<svg version="1.1" viewBox="0 0 1024 1024" xmlns="http://www.w3.org/2000/svg">
  <rect width="1024" height="1024" fill="white"/>
  <rect width="1024" height="1024" fill="none" stroke="black" stroke-width="4"/>
  <g stroke="black" stroke-dasharray="4,4" stroke-width="1" transform="scale(4, 4)">
    <line x1="0" y1="0" x2="256" y2="256"/>
    <line x1="256" y1="0" x2="0" y2="256"/>
    <line x1="128" y1="0" x2="128" y2="256"/>
    <line x1="0" y1="128" x2="256" y2="128"/>
  </g>
  <g transform="scale(1, -1) translate(0, -900)">
    <style type="text/css">
        .stroke1 {fill: #808080;}
        .stroke2 {fill: #808080;}
        .stroke3 {fill: #808080;}
        .stroke4 {fill: #808080;}
        .stroke5 {fill: #808080;}
        .stroke6 {fill: #808080;}
        .stroke7 {fill: #808080;}
        .stroke8 {fill: #808080;}
        .stroke9 {fill: #808080;}
        .stroke10 {fill: #808080;}
        .stroke11 {fill: #808080;}
        .stroke12 {fill: #808080;}
        .stroke13 {fill: #808080;}
        .stroke14 {fill: #808080;}
        .stroke15 {fill: #808080;}
        .stroke16 {fill: #808080;}
        .stroke17 {fill: #808080;}
        .stroke18 {fill: #808080;}
        .stroke19 {fill: #808080;}
        .stroke20 {fill: #808080;}
        
    </style>

    <path d="M 241 534 Q 219 546 196 550 Q 180 554 171 546 Q 164 539 173 523 Q 201 483 216 439 Q 229 396 264 219 C 270 190 313 195 308 224 Q 266 449 270 492 Q 270 495 269 496 L 241 534 Z" class="stroke1"/>
    <text x="181" y="537" transform="translate(181,537) scale(1,-1) translate(-181,-537)" font-family="Helvetica" font-size="72" font-weight="800" fill="#000000">1</text>
    <path d="M 730 266 Q 776 458 823 531 Q 835 543 831 555 Q 824 571 761 603 Q 745 612 729 607 Q 507 564 241 534 C 211 531 240 489 269 496 Q 320 508 374 517 L 400 522 Q 470 537 544 547 L 590 554 Q 698 575 727 557 Q 739 548 735 518 Q 714 409 672 258 C 664 229 723 237 730 266 Z" class="stroke2"/>
    <text x="250" y="531" transform="translate(250,531) scale(1,-1) translate(-250,-531)" font-family="Helvetica" font-size="72" font-weight="800" fill="#000000">2</text>
    <path d="M 438 237 Q 453 291 411 489 Q 410 493 410 496 Q 409 511 400 522 C 384 547 372 547 374 517 Q 375 493 381 468 Q 387 431 387 385 Q 387 264 416 235 C 433 214 433 214 438 237 Z" class="stroke3"/>
    <text x="382" y="511" transform="translate(382,511) scale(1,-1) translate(-382,-511)" font-family="Helvetica" font-size="72" font-weight="800" fill="#000000">3</text>
    <path d="M 605 449 Q 617 492 627 514 Q 631 523 616 538 Q 603 548 590 554 C 563 568 530 574 544 547 Q 545 546 546 543 Q 561 515 559 497 Q 552 379 529 245 C 524 215 560 219 566 248 Q 587 354 605 449 Z" class="stroke4"/>
    <text x="557" y="537" transform="translate(557,537) scale(1,-1) translate(-557,-537)" font-family="Helvetica" font-size="72" font-weight="800" fill="#000000">4</text>
    <path d="M 501 198 Q 562 201 619 206 Q 791 218 930 200 Q 955 196 963 206 Q 972 219 958 233 Q 927 264 880 286 Q 864 293 837 284 Q 783 274 730 266 L 672 258 Q 611 254 566 248 L 529 245 Q 469 242 438 237 L 416 235 Q 352 231 308 224 L 264 219 Q 188 212 77 212 Q 62 212 61 200 Q 60 187 80 171 Q 98 158 131 143 Q 143 139 163 147 Q 182 153 263 166 Q 369 188 501 198 Z" class="stroke5"/>
    <text x="74" y="199" transform="translate(74,199) scale(1,-1) translate(-74,-199)" font-family="Helvetica" font-size="72" font-weight="800" fill="#000000">5</text>
</g>
</svg>