<svg version="1.1" viewBox="0 0 1024 1024" xmlns="http://www.w3.org/2000/svg">
  <rect width="1024" height="1024" fill="white"/>
  <rect width="1024" height="1024" fill="none" stroke="black" stroke-width="4"/>
  <g stroke="black" stroke-dasharray="4,4" stroke-width="1" transform="scale(4, 4)">
    <line x1="0" y1="0" x2="256" y2="256"/>
    <line x1="256" y1="0" x2="0" y2="256"/>
    <line x1="128" y1="0" x2="128" y2="256"/>
    <line x1="0" y1="128" x2="256" y2="128"/>
  </g>
  <g transform="scale(1, -1) translate(0, -900)">
    <style type="text/css">
        .stroke1 {fill: #808080;}
        .stroke2 {fill: #808080;}
        .stroke3 {fill: #808080;}
        .stroke4 {fill: #808080;}
        .stroke5 {fill: #808080;}
        .stroke6 {fill: #808080;}
        .stroke7 {fill: #808080;}
        .stroke8 {fill: #808080;}
        .stroke9 {fill: #808080;}
        .stroke10 {fill: #808080;}
        .stroke11 {fill: #808080;}
        .stroke12 {fill: #808080;}
        .stroke13 {fill: #808080;}
        .stroke14 {fill: #808080;}
        .stroke15 {fill: #808080;}
        .stroke16 {fill: #808080;}
        .stroke17 {fill: #808080;}
        .stroke18 {fill: #808080;}
        .stroke19 {fill: #808080;}
        .stroke20 {fill: #808080;}
        
    </style>

    <path d="M 329 714 Q 320 723 298 731 Q 286 737 273 732 Q 266 726 272 712 Q 275 699 281 685 Q 309 624 291 287 Q 285 239 271 184 Q 256 121 295 70 Q 308 54 320 69 Q 335 87 334 115 L 338 152 Q 339 180 340 216 Q 341 280 342 336 L 342 369 Q 343 439 345 493 L 346 525 Q 349 646 351 660 Q 352 670 352 677 C 353 698 353 698 329 714 Z" class="stroke1"/>
    <text x="281" y="723" transform="translate(281,723) scale(1,-1) translate(-281,-723)" font-family="Helvetica" font-size="72" font-weight="800" fill="#000000">1</text>
    <path d="M 597 135 Q 637 86 665 43 Q 675 22 688 23 Q 707 24 724 63 Q 743 108 739 161 Q 726 329 717 637 Q 716 674 735 699 Q 745 714 735 725 Q 713 747 653 775 Q 632 785 614 775 Q 494 727 329 714 C 299 711 322 673 352 677 Q 361 677 586 717 Q 620 723 636 710 Q 676 667 660 203 Q 657 181 656 163 Q 652 144 633 149 C 608 132 591 142 597 135 Z" class="stroke2"/>
    <text x="338" y="711" transform="translate(338,711) scale(1,-1) translate(-338,-711)" font-family="Helvetica" font-size="72" font-weight="800" fill="#000000">2</text>
    <path d="M 345 493 Q 369 486 539 511 Q 542 512 548 512 Q 581 518 586 522 Q 593 529 590 537 Q 584 549 558 556 Q 530 563 503 553 Q 466 543 426 535 Q 389 529 346 525 C 316 522 315 498 345 493 Z" class="stroke3"/>
    <text x="348" y="498" transform="translate(348,498) scale(1,-1) translate(-348,-498)" font-family="Helvetica" font-size="72" font-weight="800" fill="#000000">3</text>
    <path d="M 342 336 Q 382 329 540 348 Q 544 349 550 349 Q 584 353 589 358 Q 598 365 594 373 Q 588 385 562 393 Q 535 400 507 392 Q 470 382 428 376 Q 388 370 342 369 C 312 368 312 340 342 336 Z" class="stroke4"/>
    <text x="346" y="342" transform="translate(346,342) scale(1,-1) translate(-346,-342)" font-family="Helvetica" font-size="72" font-weight="800" fill="#000000">4</text>
    <path d="M 334 115 Q 376 130 597 135 C 627 136 641 136 633 149 Q 630 159 604 178 Q 588 188 554 183 Q 436 161 338 152 C 308 149 305 107 334 115 Z" class="stroke5"/>
    <text x="335" y="121" transform="translate(335,121) scale(1,-1) translate(-335,-121)" font-family="Helvetica" font-size="72" font-weight="800" fill="#000000">5</text>
</g>
</svg>