<svg version="1.1" viewBox="0 0 1024 1024" xmlns="http://www.w3.org/2000/svg">
  <rect width="1024" height="1024" fill="white"/>
  <rect width="1024" height="1024" fill="none" stroke="black" stroke-width="4"/>
  <g stroke="black" stroke-dasharray="4,4" stroke-width="1" transform="scale(4, 4)">
    <line x1="0" y1="0" x2="256" y2="256"/>
    <line x1="256" y1="0" x2="0" y2="256"/>
    <line x1="128" y1="0" x2="128" y2="256"/>
    <line x1="0" y1="128" x2="256" y2="128"/>
  </g>
  <g transform="scale(1, -1) translate(0, -900)">
    <style type="text/css">
        .stroke1 {fill: #808080;}
        .stroke2 {fill: #808080;}
        .stroke3 {fill: #808080;}
        .stroke4 {fill: #808080;}
        .stroke5 {fill: #808080;}
        .stroke6 {fill: #808080;}
        .stroke7 {fill: #808080;}
        .stroke8 {fill: #808080;}
        .stroke9 {fill: #808080;}
        .stroke10 {fill: #808080;}
        .stroke11 {fill: #808080;}
        .stroke12 {fill: #808080;}
        .stroke13 {fill: #808080;}
        .stroke14 {fill: #808080;}
        .stroke15 {fill: #808080;}
        .stroke16 {fill: #808080;}
        .stroke17 {fill: #808080;}
        .stroke18 {fill: #808080;}
        .stroke19 {fill: #808080;}
        .stroke20 {fill: #808080;}
        
    </style>

    <path d="M 374 602 Q 461 734 462 738 Q 461 742 460 745 Q 456 758 426 779 Q 399 797 380 796 Q 362 793 371 772 Q 398 714 246 495 Q 236 485 234 478 Q 231 468 245 470 Q 270 474 355 578 L 374 602 Z" class="stroke1"/>
    <text x="381" y="782" transform="translate(381,782) scale(1,-1) translate(-381,-782)" font-family="Helvetica" font-size="72" font-weight="800" fill="#000000">1</text>
    <path d="M 493 573 Q 721 621 727 627 Q 736 634 731 644 Q 724 656 694 664 Q 667 670 547 632 Q 391 605 374 602 C 344 597 328 591 355 578 Q 397 556 447 565 L 493 573 Z" class="stroke2"/>
    <text x="365" y="580" transform="translate(365,580) scale(1,-1) translate(-365,-580)" font-family="Helvetica" font-size="72" font-weight="800" fill="#000000">2</text>
    <path d="M 518 357 Q 623 369 848 370 Q 870 370 876 380 Q 882 393 863 408 Q 805 450 764 442 Q 670 423 518 398 L 459 390 Q 326 374 170 353 Q 146 350 164 331 Q 198 300 241 309 Q 340 337 451 349 L 518 357 Z" class="stroke3"/>
    <text x="167" y="342" transform="translate(167,342) scale(1,-1) translate(-167,-342)" font-family="Helvetica" font-size="72" font-weight="800" fill="#000000">3</text>
    <path d="M 518 398 Q 542 527 544 527 Q 551 534 546 546 Q 525 567 493 573 C 464 581 437 589 447 565 Q 448 561 452 554 Q 473 499 459 390 L 451 349 Q 448 342 447 334 Q 405 181 262 95 Q 223 73 168 44 Q 141 29 174 29 Q 196 28 240 43 Q 295 58 344 88 Q 389 113 424 162 Q 469 222 503 334 L 518 398 Z" class="stroke4"/>
    <text x="455" y="562" transform="translate(455,562) scale(1,-1) translate(-455,-562)" font-family="Helvetica" font-size="72" font-weight="800" fill="#000000">4</text>
    <path d="M 503 334 Q 585 198 697 52 Q 716 28 750 27 Q 865 23 903 26 Q 913 27 916 33 Q 917 39 902 48 Q 749 115 701 160 Q 616 242 518 357 C 498 380 487 361 503 334 Z" class="stroke5"/>
    <text x="514" y="349" transform="translate(514,349) scale(1,-1) translate(-514,-349)" font-family="Helvetica" font-size="72" font-weight="800" fill="#000000">5</text>
</g>
</svg>