<svg version="1.1" viewBox="0 0 1024 1024" xmlns="http://www.w3.org/2000/svg">
  <rect width="1024" height="1024" fill="white"/>
  <rect width="1024" height="1024" fill="none" stroke="black" stroke-width="4"/>
  <g stroke="black" stroke-dasharray="4,4" stroke-width="1" transform="scale(4, 4)">
    <line x1="0" y1="0" x2="256" y2="256"/>
    <line x1="256" y1="0" x2="0" y2="256"/>
    <line x1="128" y1="0" x2="128" y2="256"/>
    <line x1="0" y1="128" x2="256" y2="128"/>
  </g>
  <g transform="scale(1, -1) translate(0, -900)">
    <style type="text/css">
        .stroke1 {fill: #808080;}
        .stroke2 {fill: #808080;}
        .stroke3 {fill: #808080;}
        .stroke4 {fill: #808080;}
        .stroke5 {fill: #808080;}
        .stroke6 {fill: #808080;}
        .stroke7 {fill: #808080;}
        .stroke8 {fill: #808080;}
        .stroke9 {fill: #808080;}
        .stroke10 {fill: #808080;}
        .stroke11 {fill: #808080;}
        .stroke12 {fill: #808080;}
        .stroke13 {fill: #808080;}
        .stroke14 {fill: #808080;}
        .stroke15 {fill: #808080;}
        .stroke16 {fill: #808080;}
        .stroke17 {fill: #808080;}
        .stroke18 {fill: #808080;}
        .stroke19 {fill: #808080;}
        .stroke20 {fill: #808080;}
        
    </style>

    <path d="M 491 646 Q 602 662 721 677 Q 803 690 816 700 Q 826 707 822 718 Q 815 733 783 743 Q 749 753 715 742 Q 499 685 275 676 Q 232 673 261 651 Q 310 620 370 631 Q 401 635 436 639 L 491 646 Z" class="stroke1"/>
    <text x="265" y="665" transform="translate(265,665) scale(1,-1) translate(-265,-665)" font-family="Helvetica" font-size="72" font-weight="800" fill="#000000">1</text>
    <path d="M 371 369 Q 425 442 500 565 Q 527 608 527 609 Q 524 631 491 646 C 465 661 435 669 436 639 Q 448 528 275 324 Q 268 318 261 309 Q 207 251 73 136 Q 64 132 76 128 Q 136 135 279 263 Q 309 294 341 331 L 371 369 Z" class="stroke2"/>
    <text x="444" y="635" transform="translate(444,635) scale(1,-1) translate(-444,-635)" font-family="Helvetica" font-size="72" font-weight="800" fill="#000000">2</text>
    <path d="M 399 360 Q 390 364 371 369 C 342 377 330 359 341 331 Q 371 255 387 138 Q 388 99 410 73 Q 429 48 436 66 Q 440 79 441 100 L 439 137 Q 421 228 411 322 C 408 352 407 357 399 360 Z" class="stroke3"/>
    <text x="376" y="357" transform="translate(376,357) scale(1,-1) translate(-376,-357)" font-family="Helvetica" font-size="72" font-weight="800" fill="#000000">3</text>
    <path d="M 735 170 Q 765 299 810 335 Q 831 357 812 379 Q 791 395 728 426 Q 706 435 680 424 Q 554 376 399 360 C 369 357 381 317 411 322 Q 423 323 438 327 Q 549 348 654 368 Q 681 374 692 362 Q 705 350 703 323 Q 690 241 673 176 C 666 147 728 141 735 170 Z" class="stroke4"/>
    <text x="408" y="356" transform="translate(408,356) scale(1,-1) translate(-408,-356)" font-family="Helvetica" font-size="72" font-weight="800" fill="#000000">4</text>
    <path d="M 441 100 Q 448 99 461 100 Q 552 119 749 130 Q 761 131 763 141 Q 763 150 735 170 C 715 185 702 182 673 176 Q 543 149 439 137 C 409 133 411 101 441 100 Z" class="stroke5"/>
    <text x="446" y="106" transform="translate(446,106) scale(1,-1) translate(-446,-106)" font-family="Helvetica" font-size="72" font-weight="800" fill="#000000">5</text>
</g>
</svg>