<svg version="1.1" viewBox="0 0 1024 1024" xmlns="http://www.w3.org/2000/svg">
  <rect width="1024" height="1024" fill="white"/>
  <rect width="1024" height="1024" fill="none" stroke="black" stroke-width="4"/>
  <g stroke="black" stroke-dasharray="4,4" stroke-width="1" transform="scale(4, 4)">
    <line x1="0" y1="0" x2="256" y2="256"/>
    <line x1="256" y1="0" x2="0" y2="256"/>
    <line x1="128" y1="0" x2="128" y2="256"/>
    <line x1="0" y1="128" x2="256" y2="128"/>
  </g>
  <g transform="scale(1, -1) translate(0, -900)">
    <style type="text/css">
        .stroke1 {fill: #808080;}
        .stroke2 {fill: #808080;}
        .stroke3 {fill: #808080;}
        .stroke4 {fill: #808080;}
        .stroke5 {fill: #808080;}
        .stroke6 {fill: #808080;}
        .stroke7 {fill: #808080;}
        .stroke8 {fill: #808080;}
        .stroke9 {fill: #808080;}
        .stroke10 {fill: #808080;}
        .stroke11 {fill: #808080;}
        .stroke12 {fill: #808080;}
        .stroke13 {fill: #808080;}
        .stroke14 {fill: #808080;}
        .stroke15 {fill: #808080;}
        .stroke16 {fill: #808080;}
        .stroke17 {fill: #808080;}
        .stroke18 {fill: #808080;}
        .stroke19 {fill: #808080;}
        .stroke20 {fill: #808080;}
        
    </style>

    <path d="M 453 738 Q 489 710 527 674 Q 543 658 562 660 Q 575 661 580 676 Q 586 695 574 729 Q 567 754 528 772 Q 438 803 420 796 Q 414 792 416 775 Q 420 762 453 738 Z" class="stroke1"/>
    <text x="425" y="789" transform="translate(425,789) scale(1,-1) translate(-425,-789)" font-family="Helvetica" font-size="72" font-weight="800" fill="#000000">1</text>
    <path d="M 264 551 Q 252 578 240 589 Q 221 605 218 577 Q 224 541 166 475 Q 124 436 155 371 Q 170 343 193 371 Q 212 399 229 441 Q 247 492 263 524 C 270 538 270 538 264 551 Z" class="stroke2"/>
    <text x="229" y="582" transform="translate(229,582) scale(1,-1) translate(-229,-582)" font-family="Helvetica" font-size="72" font-weight="800" fill="#000000">2</text>
    <path d="M 263 524 Q 293 503 331 515 Q 475 560 672 578 Q 712 582 727 580 Q 745 567 741 558 Q 729 510 715 462 L 717 461 Q 726 457 742 471 Q 797 513 844 528 Q 881 543 880 551 Q 879 561 800 614 Q 776 632 695 615 Q 581 602 373 566 Q 321 557 267 552 Q 266 552 264 551 C 234 547 236 538 263 524 Z" class="stroke3"/>
    <text x="268" y="544" transform="translate(268,544) scale(1,-1) translate(-268,-544)" font-family="Helvetica" font-size="72" font-weight="800" fill="#000000">3</text>
    <path d="M 347 340 Q 348 232 218 100 Q 182 76 146 37 Q 136 21 153 25 Q 175 26 207 47 Q 304 110 363 195 Q 400 246 434 287 Q 447 300 432 318 Q 383 360 358 358 Q 345 357 347 340 Z" class="stroke4"/>
    <text x="359" y="345" transform="translate(359,345) scale(1,-1) translate(-359,-345)" font-family="Helvetica" font-size="72" font-weight="800" fill="#000000">4</text>
    <path d="M 494 401 Q 528 376 549 337 Q 649 168 731 51 Q 747 29 775 26 Q 878 22 917 26 Q 935 27 941 34 Q 947 41 936 47 Q 806 110 743 169 Q 665 242 557 397 Q 547 416 529 420 Q 498 424 488 415 Q 484 408 494 401 Z" class="stroke5"/>
    <text x="496" y="410" transform="translate(496,410) scale(1,-1) translate(-496,-410)" font-family="Helvetica" font-size="72" font-weight="800" fill="#000000">5</text>
</g>
</svg>