<svg version="1.1" viewBox="0 0 1024 1024" xmlns="http://www.w3.org/2000/svg">
  <rect width="1024" height="1024" fill="white"/>
  <rect width="1024" height="1024" fill="none" stroke="black" stroke-width="4"/>
  <g stroke="black" stroke-dasharray="4,4" stroke-width="1" transform="scale(4, 4)">
    <line x1="0" y1="0" x2="256" y2="256"/>
    <line x1="256" y1="0" x2="0" y2="256"/>
    <line x1="128" y1="0" x2="128" y2="256"/>
    <line x1="0" y1="128" x2="256" y2="128"/>
  </g>
  <g transform="scale(1, -1) translate(0, -900)">
    <style type="text/css">
        .stroke1 {fill: #808080;}
        .stroke2 {fill: #808080;}
        .stroke3 {fill: #808080;}
        .stroke4 {fill: #808080;}
        .stroke5 {fill: #808080;}
        .stroke6 {fill: #808080;}
        .stroke7 {fill: #808080;}
        .stroke8 {fill: #808080;}
        .stroke9 {fill: #808080;}
        .stroke10 {fill: #808080;}
        .stroke11 {fill: #808080;}
        .stroke12 {fill: #808080;}
        .stroke13 {fill: #808080;}
        .stroke14 {fill: #808080;}
        .stroke15 {fill: #808080;}
        .stroke16 {fill: #808080;}
        .stroke17 {fill: #808080;}
        .stroke18 {fill: #808080;}
        .stroke19 {fill: #808080;}
        .stroke20 {fill: #808080;}
        
    </style>

    <path d="M 292 617 Q 319 592 347 561 Q 362 546 379 546 Q 391 546 396 561 Q 402 577 394 610 Q 388 631 356 647 Q 283 678 264 671 Q 258 667 260 653 Q 263 640 292 617 Z" class="stroke1"/>
    <text x="269" y="663" transform="translate(269,663) scale(1,-1) translate(-269,-663)" font-family="Helvetica" font-size="72" font-weight="800" fill="#000000">1</text>
    <path d="M 672 704 Q 657 680 587 592 Q 575 573 595 577 Q 622 592 719 653 Q 741 672 768 683 Q 792 693 780 714 Q 765 733 736 750 Q 709 766 695 762 Q 680 761 685 745 Q 689 724 672 704 Z" class="stroke2"/>
    <text x="694" y="751" transform="translate(694,751) scale(1,-1) translate(-694,-751)" font-family="Helvetica" font-size="72" font-weight="800" fill="#000000">2</text>
    <path d="M 524 439 Q 597 451 810 470 Q 823 469 835 483 Q 836 498 809 512 Q 770 536 736 529 Q 595 496 522 485 L 478 477 Q 451 474 171 447 Q 135 444 162 422 Q 175 409 193 398 Q 209 388 237 395 Q 328 413 438 427 L 524 439 Z" class="stroke3"/>
    <text x="164" y="435" transform="translate(164,435) scale(1,-1) translate(-164,-435)" font-family="Helvetica" font-size="72" font-weight="800" fill="#000000">3</text>
    <path d="M 475 387 Q 472 186 461 131 Q 439 22 451 -8 Q 455 -21 462 -37 Q 469 -56 477 -59 Q 484 -66 492 -57 Q 499 -53 510 -31 Q 520 -6 520 28 Q 519 71 521 392 L 522 485 Q 528 704 541 751 Q 550 788 550 791 Q 543 801 485 837 Q 460 855 439 838 Q 433 834 440 817 Q 476 765 476 712 Q 477 636 480 548 Q 479 514 478 477 L 475 387 Z" class="stroke4"/>
    <text x="453" y="829" transform="translate(453,829) scale(1,-1) translate(-453,-829)" font-family="Helvetica" font-size="72" font-weight="800" fill="#000000">4</text>
    <path d="M 438 427 Q 354 262 119 87 Q 107 75 116 73 Q 125 69 137 74 Q 269 126 386 267 Q 441 342 475 387 C 513 438 463 475 438 427 Z" class="stroke5"/>
    <text x="471" y="425" transform="translate(471,425) scale(1,-1) translate(-471,-425)" font-family="Helvetica" font-size="72" font-weight="800" fill="#000000">5</text>
    <path d="M 521 392 Q 678 158 763 98 Q 778 89 794 89 Q 869 99 932 107 Q 960 110 960 117 Q 961 124 929 138 Q 767 198 721 238 Q 616 325 524 439 L 522 439 C 500 459 504 417 521 392 Z" class="stroke6"/>
    <text x="524" y="431" transform="translate(524,431) scale(1,-1) translate(-524,-431)" font-family="Helvetica" font-size="72" font-weight="800" fill="#000000">6</text>
</g>
</svg>