<svg version="1.1" viewBox="0 0 1024 1024" xmlns="http://www.w3.org/2000/svg">
  <rect width="1024" height="1024" fill="white"/>
  <rect width="1024" height="1024" fill="none" stroke="black" stroke-width="4"/>
  <g stroke="black" stroke-dasharray="4,4" stroke-width="1" transform="scale(4, 4)">
    <line x1="0" y1="0" x2="256" y2="256"/>
    <line x1="256" y1="0" x2="0" y2="256"/>
    <line x1="128" y1="0" x2="128" y2="256"/>
    <line x1="0" y1="128" x2="256" y2="128"/>
  </g>
  <g transform="scale(1, -1) translate(0, -900)">
    <style type="text/css">
        .stroke1 {fill: #808080;}
        .stroke2 {fill: #808080;}
        .stroke3 {fill: #808080;}
        .stroke4 {fill: #808080;}
        .stroke5 {fill: #808080;}
        .stroke6 {fill: #808080;}
        .stroke7 {fill: #808080;}
        .stroke8 {fill: #808080;}
        .stroke9 {fill: #808080;}
        .stroke10 {fill: #808080;}
        .stroke11 {fill: #808080;}
        .stroke12 {fill: #808080;}
        .stroke13 {fill: #808080;}
        .stroke14 {fill: #808080;}
        .stroke15 {fill: #808080;}
        .stroke16 {fill: #808080;}
        .stroke17 {fill: #808080;}
        .stroke18 {fill: #808080;}
        .stroke19 {fill: #808080;}
        .stroke20 {fill: #808080;}
        
    </style>

    <path d="M 486 547 Q 474 554 446 563 Q 403 576 378 585 Q 366 589 366 598 Q 366 604 517 749 Q 547 765 532 790 Q 510 829 487 841 Q 471 848 461 844 Q 452 837 458 823 Q 474 765 353 646 Q 350 645 348 642 Q 323 618 308 618 Q 281 617 271 601 Q 256 573 259 558 Q 262 540 280 547 Q 301 560 457 530 Q 460 530 465 528 C 494 522 513 534 486 547 Z" class="stroke1"/>
    <text x="468" y="834" transform="translate(468,834) scale(1,-1) translate(-468,-834)" font-family="Helvetica" font-size="72" font-weight="800" fill="#000000">1</text>
    <path d="M 480 380 Q 493 389 670 419 L 672 419 C 702 424 687 440 657 438 Q 542 431 401 404 Q 380 400 396 415 Q 448 461 567 553 Q 607 587 642 606 Q 658 615 653 627 Q 646 652 613 681 Q 597 696 586 695 Q 574 694 573 675 Q 567 632 486 547 L 465 528 Q 327 410 303 401 Q 285 394 286 377 Q 285 362 310 335 Q 320 319 339 330 Q 390 355 444 370 L 480 380 Z" class="stroke2"/>
    <text x="589" y="680" transform="translate(589,680) scale(1,-1) translate(-589,-680)" font-family="Helvetica" font-size="72" font-weight="800" fill="#000000">2</text>
    <path d="M 672 419 Q 715 362 728 360 Q 738 359 745 369 Q 752 382 750 410 Q 747 447 644 506 Q 631 512 624 511 Q 620 508 618 496 Q 619 486 639 462 Q 648 452 657 438 L 672 419 Z" class="stroke3"/>
    <text x="628" y="505" transform="translate(628,505) scale(1,-1) translate(-628,-505)" font-family="Helvetica" font-size="72" font-weight="800" fill="#000000">3</text>
    <path d="M 437 89 Q 395 102 354 115 Q 342 118 343 110 Q 344 103 354 95 Q 435 25 463 -17 Q 478 -33 493 -20 Q 535 19 528 110 Q 522 273 528 301 Q 529 311 534 319 Q 543 337 527 350 Q 505 369 480 380 C 453 393 429 396 444 370 Q 445 366 450 360 Q 484 300 470 118 Q 469 99 458 91 Q 451 84 437 89 Z" class="stroke4"/>
    <text x="451" y="367" transform="translate(451,367) scale(1,-1) translate(-451,-367)" font-family="Helvetica" font-size="72" font-weight="800" fill="#000000">4</text>
    <path d="M 268 253 Q 237 195 195 143 Q 168 109 185 71 Q 192 52 216 62 Q 241 78 260 110 Q 285 150 290 188 Q 299 222 294 251 Q 290 261 283 262 Q 274 262 268 253 Z" class="stroke5"/>
    <text x="282" y="250" transform="translate(282,250) scale(1,-1) translate(-282,-250)" font-family="Helvetica" font-size="72" font-weight="800" fill="#000000">5</text>
    <path d="M 647 254 Q 699 196 761 112 Q 776 90 791 83 Q 800 82 809 91 Q 824 103 815 151 Q 809 212 651 287 Q 642 294 639 280 Q 638 267 647 254 Z" class="stroke6"/>
    <text x="650" y="275" transform="translate(650,275) scale(1,-1) translate(-650,-275)" font-family="Helvetica" font-size="72" font-weight="800" fill="#000000">6</text>
</g>
</svg>