<svg version="1.1" viewBox="0 0 1024 1024" xmlns="http://www.w3.org/2000/svg">
  <rect width="1024" height="1024" fill="white"/>
  <rect width="1024" height="1024" fill="none" stroke="black" stroke-width="4"/>
  <g stroke="black" stroke-dasharray="4,4" stroke-width="1" transform="scale(4, 4)">
    <line x1="0" y1="0" x2="256" y2="256"/>
    <line x1="256" y1="0" x2="0" y2="256"/>
    <line x1="128" y1="0" x2="128" y2="256"/>
    <line x1="0" y1="128" x2="256" y2="128"/>
  </g>
  <g transform="scale(1, -1) translate(0, -900)">
    <style type="text/css">
        .stroke1 {fill: #808080;}
        .stroke2 {fill: #808080;}
        .stroke3 {fill: #808080;}
        .stroke4 {fill: #808080;}
        .stroke5 {fill: #808080;}
        .stroke6 {fill: #808080;}
        .stroke7 {fill: #808080;}
        .stroke8 {fill: #808080;}
        .stroke9 {fill: #808080;}
        .stroke10 {fill: #808080;}
        .stroke11 {fill: #808080;}
        .stroke12 {fill: #808080;}
        .stroke13 {fill: #808080;}
        .stroke14 {fill: #808080;}
        .stroke15 {fill: #808080;}
        .stroke16 {fill: #808080;}
        .stroke17 {fill: #808080;}
        .stroke18 {fill: #808080;}
        .stroke19 {fill: #808080;}
        .stroke20 {fill: #808080;}
        
    </style>

    <path d="M 266 678 Q 241 699 212 708 Q 202 711 194 701 Q 190 694 199 682 Q 226 616 226 544 Q 232 259 188 121 Q 178 93 184 70 Q 194 33 207 17 Q 220 2 230 18 Q 267 57 268 275 Q 268 533 280 634 C 283 664 283 665 266 678 Z" class="stroke1"/>
    <text x="205" y="696" transform="translate(205,696) scale(1,-1) translate(-205,-696)" font-family="Helvetica" font-size="72" font-weight="800" fill="#000000">1</text>
    <path d="M 280 634 Q 287 634 295 635 Q 476 672 695 696 Q 722 700 734 685 Q 749 676 755 609 Q 773 383 762 126 Q 762 87 748 77 Q 729 64 635 83 Q 616 86 618 75 Q 619 68 635 61 Q 719 13 764 -26 Q 788 -47 801 -43 Q 814 -39 826 -8 Q 842 43 838 115 Q 805 613 829 663 Q 842 687 831 700 Q 819 716 768 742 Q 746 752 725 748 Q 563 700 266 678 C 236 676 250 629 280 634 Z" class="stroke2"/>
    <text x="276" y="673" transform="translate(276,673) scale(1,-1) translate(-276,-673)" font-family="Helvetica" font-size="72" font-weight="800" fill="#000000">2</text>
    <path d="M 425 361 Q 435 389 472 519 Q 473 529 478 539 Q 485 549 481 561 Q 471 576 447 589 Q 434 599 422 596 Q 412 592 416 580 Q 420 574 422 565 Q 422 502 396 397 L 381 355 Q 378 351 377 345 Q 352 288 299 220 Q 295 216 293 211 Q 290 204 298 204 Q 328 204 391 294 Q 391 295 404 317 L 425 361 Z" class="stroke3"/>
    <text x="426" y="585" transform="translate(426,585) scale(1,-1) translate(-426,-585)" font-family="Helvetica" font-size="72" font-weight="800" fill="#000000">3</text>
    <path d="M 404 317 Q 452 224 462 219 Q 466 218 473 222 Q 482 226 482 255 Q 483 283 425 361 L 396 397 Q 344 460 313 492 Q 309 496 305 490 Q 302 483 307 474 Q 341 422 381 355 L 404 317 Z" class="stroke4"/>
    <text x="310" y="485" transform="translate(310,485) scale(1,-1) translate(-310,-485)" font-family="Helvetica" font-size="72" font-weight="800" fill="#000000">4</text>
    <path d="M 633 370 Q 634 371 635 373 Q 647 412 675 541 Q 678 554 682 566 Q 691 578 685 590 Q 672 606 645 620 Q 629 630 617 628 Q 607 622 611 610 Q 624 586 618 532 Q 617 531 617 526 Q 608 445 597 409 L 583 361 Q 547 268 480 171 Q 474 165 473 160 Q 469 151 479 152 Q 512 156 578 252 Q 599 291 612 316 L 633 370 Z" class="stroke5"/>
    <text x="623" y="617" transform="translate(623,617) scale(1,-1) translate(-623,-617)" font-family="Helvetica" font-size="72" font-weight="800" fill="#000000">5</text>
    <path d="M 612 316 Q 684 199 691 194 Q 698 191 705 198 Q 717 205 715 240 Q 715 279 633 370 L 597 409 Q 546 464 515 493 Q 509 497 506 489 Q 503 479 509 470 Q 545 421 583 361 L 612 316 Z" class="stroke6"/>
    <text x="514" y="484" transform="translate(514,484) scale(1,-1) translate(-514,-484)" font-family="Helvetica" font-size="72" font-weight="800" fill="#000000">6</text>
</g>
</svg>