<svg version="1.1" viewBox="0 0 1024 1024" xmlns="http://www.w3.org/2000/svg">
  <rect width="1024" height="1024" fill="white"/>
  <rect width="1024" height="1024" fill="none" stroke="black" stroke-width="4"/>
  <g stroke="black" stroke-dasharray="4,4" stroke-width="1" transform="scale(4, 4)">
    <line x1="0" y1="0" x2="256" y2="256"/>
    <line x1="256" y1="0" x2="0" y2="256"/>
    <line x1="128" y1="0" x2="128" y2="256"/>
    <line x1="0" y1="128" x2="256" y2="128"/>
  </g>
  <g transform="scale(1, -1) translate(0, -900)">
    <style type="text/css">
        .stroke1 {fill: #808080;}
        .stroke2 {fill: #808080;}
        .stroke3 {fill: #808080;}
        .stroke4 {fill: #808080;}
        .stroke5 {fill: #808080;}
        .stroke6 {fill: #808080;}
        .stroke7 {fill: #808080;}
        .stroke8 {fill: #808080;}
        .stroke9 {fill: #808080;}
        .stroke10 {fill: #808080;}
        .stroke11 {fill: #808080;}
        .stroke12 {fill: #808080;}
        .stroke13 {fill: #808080;}
        .stroke14 {fill: #808080;}
        .stroke15 {fill: #808080;}
        .stroke16 {fill: #808080;}
        .stroke17 {fill: #808080;}
        .stroke18 {fill: #808080;}
        .stroke19 {fill: #808080;}
        .stroke20 {fill: #808080;}
        
    </style>

    <path d="M 636 765 Q 715 774 784 778 Q 796 777 807 790 Q 808 803 783 816 Q 747 844 662 821 Q 499 791 294 773 Q 263 772 231 768 Q 198 767 222 745 Q 255 715 305 722 Q 312 723 323 724 L 382 733 Q 463 748 561 757 L 636 765 Z" class="stroke1"/>
    <text x="224" y="757" transform="translate(224,757) scale(1,-1) translate(-224,-757)" font-family="Helvetica" font-size="72" font-weight="800" fill="#000000">1</text>
    <path d="M 323 724 Q 336 697 337 352 C 337 322 384 327 385 357 Q 386 418 388 475 L 389 506 Q 390 555 392 600 L 393 628 Q 393 665 396 692 Q 402 711 382 733 C 363 757 316 753 323 724 Z" class="stroke2"/>
    <text x="332" y="721" transform="translate(332,721) scale(1,-1) translate(-332,-721)" font-family="Helvetica" font-size="72" font-weight="800" fill="#000000">2</text>
    <path d="M 641 388 Q 641 655 656 730 Q 659 749 644 760 Q 640 763 636 765 C 615 786 549 785 561 757 Q 585 702 587 689 Q 590 661 587 380 L 586 339 Q 577 -6 601 -41 Q 607 -48 615 -46 Q 631 -37 638 28 Q 648 125 645 223 Q 642 260 642 341 L 641 388 Z" class="stroke3"/>
    <text x="569" y="749" transform="translate(569,749) scale(1,-1) translate(-569,-749)" font-family="Helvetica" font-size="72" font-weight="800" fill="#000000">3</text>
    <path d="M 392 600 Q 434 594 538 619 Q 538 620 540 620 Q 547 627 543 634 Q 536 644 511 649 Q 510 649 393 628 C 363 623 362 603 392 600 Z" class="stroke4"/>
    <text x="397" y="607" transform="translate(397,607) scale(1,-1) translate(-397,-607)" font-family="Helvetica" font-size="72" font-weight="800" fill="#000000">4</text>
    <path d="M 388 475 Q 440 466 553 493 Q 553 494 555 494 Q 562 501 559 509 Q 552 519 526 527 Q 508 530 432 512 Q 411 509 389 506 C 359 502 358 479 388 475 Z" class="stroke5"/>
    <text x="394" y="483" transform="translate(394,483) scale(1,-1) translate(-394,-483)" font-family="Helvetica" font-size="72" font-weight="800" fill="#000000">5</text>
    <path d="M 642 341 Q 730 345 838 342 Q 922 339 931 350 Q 937 363 919 380 Q 853 431 786 411 Q 722 402 641 388 L 587 380 Q 544 377 499 370 Q 444 364 385 357 L 337 352 Q 228 342 111 329 Q 86 328 104 307 Q 138 273 183 282 Q 373 331 586 339 L 642 341 Z" class="stroke6"/>
    <text x="107" y="318" transform="translate(107,318) scale(1,-1) translate(-107,-318)" font-family="Helvetica" font-size="72" font-weight="800" fill="#000000">6</text>
</g>
</svg>