<svg version="1.1" viewBox="0 0 1024 1024" xmlns="http://www.w3.org/2000/svg">
  <rect width="1024" height="1024" fill="white"/>
  <rect width="1024" height="1024" fill="none" stroke="black" stroke-width="4"/>
  <g stroke="black" stroke-dasharray="4,4" stroke-width="1" transform="scale(4, 4)">
    <line x1="0" y1="0" x2="256" y2="256"/>
    <line x1="256" y1="0" x2="0" y2="256"/>
    <line x1="128" y1="0" x2="128" y2="256"/>
    <line x1="0" y1="128" x2="256" y2="128"/>
  </g>
  <g transform="scale(1, -1) translate(0, -900)">
    <style type="text/css">
        .stroke1 {fill: #808080;}
        .stroke2 {fill: #808080;}
        .stroke3 {fill: #808080;}
        .stroke4 {fill: #808080;}
        .stroke5 {fill: #808080;}
        .stroke6 {fill: #808080;}
        .stroke7 {fill: #808080;}
        .stroke8 {fill: #808080;}
        .stroke9 {fill: #808080;}
        .stroke10 {fill: #808080;}
        .stroke11 {fill: #808080;}
        .stroke12 {fill: #808080;}
        .stroke13 {fill: #808080;}
        .stroke14 {fill: #808080;}
        .stroke15 {fill: #808080;}
        .stroke16 {fill: #808080;}
        .stroke17 {fill: #808080;}
        .stroke18 {fill: #808080;}
        .stroke19 {fill: #808080;}
        .stroke20 {fill: #808080;}
        
    </style>

    <path d="M 670 503 Q 680 545 690 572 L 713 623 Q 725 645 740 658 Q 758 677 743 696 Q 668 753 609 727 Q 569 714 531 702 L 474 691 Q 395 678 312 670 Q 296 669 296 659 Q 299 650 318 644 Q 343 631 381 643 Q 427 652 474 659 L 530 669 Q 564 676 601 683 Q 629 689 641 677 Q 653 667 650 642 Q 647 627 644 612 L 636 569 Q 629 539 621 512 C 613 483 663 474 670 503 Z" class="stroke1"/>
    <text x="305" y="659" transform="translate(305,659) scale(1,-1) translate(-305,-659)" font-family="Helvetica" font-size="72" font-weight="800" fill="#000000">1</text>
    <path d="M 690 572 Q 760 576 842 576 Q 923 573 931 585 Q 938 598 919 613 Q 858 659 796 639 Q 757 633 713 623 L 644 612 Q 589 605 528 594 L 474 586 Q 317 567 133 544 Q 111 541 128 523 Q 143 508 162 503 Q 184 497 202 502 Q 322 535 458 551 Q 462 552 473 553 L 527 560 Q 576 567 636 569 L 690 572 Z" class="stroke2"/>
    <text x="131" y="533" transform="translate(131,533) scale(1,-1) translate(-131,-533)" font-family="Helvetica" font-size="72" font-weight="800" fill="#000000">2</text>
    <path d="M 525 449 Q 555 456 678 469 Q 688 468 696 479 Q 697 489 676 500 Q 673 501 670 503 C 644 517 644 517 621 512 Q 575 503 526 489 L 473 480 Q 422 474 329 463 Q 301 460 322 443 Q 352 418 380 424 Q 423 433 473 441 L 525 449 Z" class="stroke3"/>
    <text x="324" y="454" transform="translate(324,454) scale(1,-1) translate(-324,-454)" font-family="Helvetica" font-size="72" font-weight="800" fill="#000000">3</text>
    <path d="M 525 326 Q 546 329 672 343 Q 682 342 692 354 Q 693 366 671 376 Q 632 400 531 370 Q 527 370 525 369 L 472 359 Q 438 355 406 352 Q 369 349 329 344 Q 301 341 322 324 Q 350 296 383 303 Q 422 310 471 318 L 525 326 Z" class="stroke4"/>
    <text x="324" y="335" transform="translate(324,335) scale(1,-1) translate(-324,-335)" font-family="Helvetica" font-size="72" font-weight="800" fill="#000000">4</text>
    <path d="M 525 192 Q 600 199 816 200 Q 838 200 843 209 Q 849 222 831 237 Q 777 279 735 270 Q 656 254 525 233 L 469 226 Q 339 210 190 192 Q 168 189 184 171 Q 199 156 218 150 Q 240 144 258 149 Q 354 174 461 186 Q 464 187 468 186 L 525 192 Z" class="stroke5"/>
    <text x="188" y="181" transform="translate(188,181) scale(1,-1) translate(-188,-181)" font-family="Helvetica" font-size="72" font-weight="800" fill="#000000">5</text>
    <path d="M 468 186 Q 468 -18 484 -44 Q 499 -60 508 -39 Q 521 1 525 192 L 525 233 Q 525 276 525 326 L 525 369 Q 525 412 525 449 L 526 489 Q 526 526 527 560 L 528 594 Q 528 636 530 669 L 531 702 Q 537 765 553 788 Q 560 804 540 820 Q 515 839 472 851 Q 453 855 439 842 Q 429 833 442 821 Q 472 796 474 759 Q 474 729 474 691 L 474 659 Q 473 626 474 586 L 473 553 Q 473 519 473 480 L 473 441 Q 473 401 472 359 L 471 318 Q 470 266 469 226 L 468 186 Z" class="stroke6"/>
    <text x="447" y="832" transform="translate(447,832) scale(1,-1) translate(-447,-832)" font-family="Helvetica" font-size="72" font-weight="800" fill="#000000">6</text>
</g>
</svg>