<svg version="1.1" viewBox="0 0 1024 1024" xmlns="http://www.w3.org/2000/svg">
  <rect width="1024" height="1024" fill="white"/>
  <rect width="1024" height="1024" fill="none" stroke="black" stroke-width="4"/>
  <g stroke="black" stroke-dasharray="4,4" stroke-width="1" transform="scale(4, 4)">
    <line x1="0" y1="0" x2="256" y2="256"/>
    <line x1="256" y1="0" x2="0" y2="256"/>
    <line x1="128" y1="0" x2="128" y2="256"/>
    <line x1="0" y1="128" x2="256" y2="128"/>
  </g>
  <g transform="scale(1, -1) translate(0, -900)">
    <style type="text/css">
        .stroke1 {fill: #808080;}
        .stroke2 {fill: #808080;}
        .stroke3 {fill: #808080;}
        .stroke4 {fill: #808080;}
        .stroke5 {fill: #808080;}
        .stroke6 {fill: #808080;}
        .stroke7 {fill: #808080;}
        .stroke8 {fill: #808080;}
        .stroke9 {fill: #808080;}
        .stroke10 {fill: #808080;}
        .stroke11 {fill: #808080;}
        .stroke12 {fill: #808080;}
        .stroke13 {fill: #808080;}
        .stroke14 {fill: #808080;}
        .stroke15 {fill: #808080;}
        .stroke16 {fill: #808080;}
        .stroke17 {fill: #808080;}
        .stroke18 {fill: #808080;}
        .stroke19 {fill: #808080;}
        .stroke20 {fill: #808080;}
        
    </style>

    <path d="M 427 626 Q 433 633 517 750 Q 530 772 553 791 Q 571 809 554 824 Q 535 837 503 843 Q 473 849 461 842 Q 448 835 457 823 Q 469 799 422 678 Q 409 651 397 620 C 386 592 409 602 427 626 Z" class="stroke1"/>
    <text x="464" y="831" transform="translate(464,831) scale(1,-1) translate(-464,-831)" font-family="Helvetica" font-size="72" font-weight="800" fill="#000000">1</text>
    <path d="M 361 614 Q 318 648 297 641 Q 290 635 295 622 Q 314 540 316 536 Q 316 272 301 203 Q 282 121 311 78 Q 314 75 317 70 Q 327 55 339 69 Q 345 78 349 87 L 355 126 Q 358 154 358 197 Q 358 233 359 265 L 359 294 Q 360 364 363 414 L 364 442 Q 367 560 369 573 Q 369 577 369 579 C 371 607 371 607 361 614 Z" class="stroke2"/>
    <text x="303" y="633" transform="translate(303,633) scale(1,-1) translate(-303,-633)" font-family="Helvetica" font-size="72" font-weight="800" fill="#000000">2</text>
    <path d="M 618 108 Q 657 62 684 18 Q 696 -1 708 -1 Q 727 0 744 40 Q 763 83 759 138 Q 746 283 734 553 Q 731 589 750 615 Q 760 630 749 641 Q 727 663 667 689 Q 645 699 628 688 Q 580 666 427 626 L 397 620 Q 375 617 361 614 C 331 609 339 575 369 579 Q 393 579 605 629 Q 636 636 653 625 Q 692 591 676 149 Q 675 145 675 139 Q 671 121 657 124 C 637 102 606 122 618 108 Z" class="stroke3"/>
    <text x="367" y="609" transform="translate(367,609) scale(1,-1) translate(-367,-609)" font-family="Helvetica" font-size="72" font-weight="800" fill="#000000">3</text>
    <path d="M 363 414 Q 366 414 581 449 Q 606 453 597 467 Q 585 483 557 488 Q 530 491 364 442 C 335 434 333 410 363 414 Z" class="stroke4"/>
    <text x="365" y="421" transform="translate(365,421) scale(1,-1) translate(-365,-421)" font-family="Helvetica" font-size="72" font-weight="800" fill="#000000">4</text>
    <path d="M 359 265 Q 369 264 384 265 Q 499 283 584 293 Q 611 297 601 311 Q 589 327 562 334 Q 535 338 489 326 Q 419 308 359 294 C 330 287 329 267 359 265 Z" class="stroke5"/>
    <text x="365" y="272" transform="translate(365,272) scale(1,-1) translate(-365,-272)" font-family="Helvetica" font-size="72" font-weight="800" fill="#000000">5</text>
    <path d="M 349 87 Q 358 86 369 87 Q 450 102 618 108 C 648 109 666 110 657 124 Q 654 134 626 154 Q 608 166 573 159 Q 453 135 355 126 C 325 123 319 88 349 87 Z" class="stroke6"/>
    <text x="354" y="93" transform="translate(354,93) scale(1,-1) translate(-354,-93)" font-family="Helvetica" font-size="72" font-weight="800" fill="#000000">6</text>
</g>
</svg>