<svg version="1.1" viewBox="0 0 1024 1024" xmlns="http://www.w3.org/2000/svg">
  <rect width="1024" height="1024" fill="white"/>
  <rect width="1024" height="1024" fill="none" stroke="black" stroke-width="4"/>
  <g stroke="black" stroke-dasharray="4,4" stroke-width="1" transform="scale(4, 4)">
    <line x1="0" y1="0" x2="256" y2="256"/>
    <line x1="256" y1="0" x2="0" y2="256"/>
    <line x1="128" y1="0" x2="128" y2="256"/>
    <line x1="0" y1="128" x2="256" y2="128"/>
  </g>
  <g transform="scale(1, -1) translate(0, -900)">
    <style type="text/css">
        .stroke1 {fill: #808080;}
        .stroke2 {fill: #808080;}
        .stroke3 {fill: #808080;}
        .stroke4 {fill: #808080;}
        .stroke5 {fill: #808080;}
        .stroke6 {fill: #808080;}
        .stroke7 {fill: #808080;}
        .stroke8 {fill: #808080;}
        .stroke9 {fill: #808080;}
        .stroke10 {fill: #808080;}
        .stroke11 {fill: #808080;}
        .stroke12 {fill: #808080;}
        .stroke13 {fill: #808080;}
        .stroke14 {fill: #808080;}
        .stroke15 {fill: #808080;}
        .stroke16 {fill: #808080;}
        .stroke17 {fill: #808080;}
        .stroke18 {fill: #808080;}
        .stroke19 {fill: #808080;}
        .stroke20 {fill: #808080;}
        
    </style>

    <path d="M 291 530 Q 278 536 241 540 Q 228 543 223 536 Q 216 529 227 511 Q 264 447 290 338 Q 296 305 317 284 Q 339 260 344 279 Q 347 289 347 304 L 342 341 Q 326 392 309 493 C 304 523 303 526 291 530 Z" class="stroke1"/>
    <text x="233" y="528" transform="translate(233,528) scale(1,-1) translate(-233,-528)" font-family="Helvetica" font-size="72" font-weight="800" fill="#000000">1</text>
    <path d="M 721 384 Q 754 480 791 509 Q 812 530 795 551 Q 720 614 672 600 Q 597 576 530 560 L 472 550 Q 384 538 291 530 C 261 527 280 488 309 493 Q 319 494 330 497 Q 402 510 473 519 L 530 528 Q 578 538 627 545 Q 664 552 679 537 Q 689 527 687 505 Q 677 444 663 393 C 655 364 711 356 721 384 Z" class="stroke2"/>
    <text x="299" y="526" transform="translate(299,526) scale(1,-1) translate(-299,-526)" font-family="Helvetica" font-size="72" font-weight="800" fill="#000000">2</text>
    <path d="M 526 327 Q 614 339 733 346 Q 745 347 747 357 Q 747 364 721 384 C 702 400 693 398 663 393 Q 591 381 527 366 L 475 358 Q 405 348 342 341 C 312 338 317 305 347 304 Q 354 303 365 304 Q 410 314 475 321 L 526 327 Z" class="stroke3"/>
    <text x="351" y="311" transform="translate(351,311) scale(1,-1) translate(-351,-311)" font-family="Helvetica" font-size="72" font-weight="800" fill="#000000">3</text>
    <path d="M 521 148 Q 524 239 526 327 L 527 366 Q 528 448 530 528 L 530 560 Q 530 617 555 742 Q 559 755 533 774 Q 487 798 457 802 Q 436 806 426 795 Q 416 785 428 766 Q 465 711 467 673 Q 470 613 472 550 L 473 519 Q 474 441 475 358 L 475 321 Q 474 233 470 138 C 469 108 520 118 521 148 Z" class="stroke4"/>
    <text x="442" y="782" transform="translate(442,782) scale(1,-1) translate(-442,-782)" font-family="Helvetica" font-size="72" font-weight="800" fill="#000000">4</text>
    <path d="M 680 180 Q 602 165 521 148 L 470 138 Q 370 122 263 104 Q 230 98 180 105 Q 164 106 160 94 Q 156 78 165 66 Q 190 42 228 14 Q 240 8 256 17 Q 325 53 523 102 Q 659 138 698 152 C 726 162 709 186 680 180 Z" class="stroke5"/>
    <text x="176" y="88" transform="translate(176,88) scale(1,-1) translate(-176,-88)" font-family="Helvetica" font-size="72" font-weight="800" fill="#000000">5</text>
    <path d="M 698 152 Q 732 98 773 31 Q 786 6 802 -3 Q 811 -7 822 2 Q 838 14 835 66 Q 835 129 661 253 Q 652 260 647 248 Q 641 230 680 180 L 698 152 Z" class="stroke6"/>
    <text x="657" y="243" transform="translate(657,243) scale(1,-1) translate(-657,-243)" font-family="Helvetica" font-size="72" font-weight="800" fill="#000000">6</text>
</g>
</svg>