<svg version="1.1" viewBox="0 0 1024 1024" xmlns="http://www.w3.org/2000/svg">
  <rect width="1024" height="1024" fill="white"/>
  <rect width="1024" height="1024" fill="none" stroke="black" stroke-width="4"/>
  <g stroke="black" stroke-dasharray="4,4" stroke-width="1" transform="scale(4, 4)">
    <line x1="0" y1="0" x2="256" y2="256"/>
    <line x1="256" y1="0" x2="0" y2="256"/>
    <line x1="128" y1="0" x2="128" y2="256"/>
    <line x1="0" y1="128" x2="256" y2="128"/>
  </g>
  <g transform="scale(1, -1) translate(0, -900)">
    <style type="text/css">
        .stroke1 {fill: #808080;}
        .stroke2 {fill: #808080;}
        .stroke3 {fill: #808080;}
        .stroke4 {fill: #808080;}
        .stroke5 {fill: #808080;}
        .stroke6 {fill: #808080;}
        .stroke7 {fill: #808080;}
        .stroke8 {fill: #808080;}
        .stroke9 {fill: #808080;}
        .stroke10 {fill: #808080;}
        .stroke11 {fill: #808080;}
        .stroke12 {fill: #808080;}
        .stroke13 {fill: #808080;}
        .stroke14 {fill: #808080;}
        .stroke15 {fill: #808080;}
        .stroke16 {fill: #808080;}
        .stroke17 {fill: #808080;}
        .stroke18 {fill: #808080;}
        .stroke19 {fill: #808080;}
        .stroke20 {fill: #808080;}
        
    </style>

    <path d="M 322 810 Q 335 771 252 668 Q 213 620 162 568 Q 152 559 148 554 Q 144 544 157 545 Q 205 545 343 696 Q 376 738 393 750 Q 403 759 401 772 Q 398 785 375 809 Q 353 828 334 831 Q 318 831 322 810 Z" class="stroke1"/>
    <text x="334" y="817" transform="translate(334,817) scale(1,-1) translate(-334,-817)" font-family="Helvetica" font-size="72" font-weight="800" fill="#000000">1</text>
    <path d="M 273 414 Q 399 555 401 560 Q 400 564 400 567 Q 399 580 374 605 Q 352 626 333 628 Q 315 629 320 607 Q 329 579 315 556 Q 272 483 214 416 Q 157 352 82 284 Q 72 277 69 270 Q 65 260 78 261 Q 111 261 214 358 Q 227 371 244 385 L 273 414 Z" class="stroke2"/>
    <text x="331" y="615" transform="translate(331,615) scale(1,-1) translate(-331,-615)" font-family="Helvetica" font-size="72" font-weight="800" fill="#000000">2</text>
    <path d="M 244 385 Q 274 325 247 152 Q 223 68 266 24 Q 282 8 294 34 Q 309 74 308 119 Q 307 299 312 339 Q 319 366 310 376 Q 277 412 273 414 C 251 434 232 413 244 385 Z" class="stroke3"/>
    <text x="270" y="407" transform="translate(270,407) scale(1,-1) translate(-270,-407)" font-family="Helvetica" font-size="72" font-weight="800" fill="#000000">3</text>
    <path d="M 549 671 Q 509 661 539 644 Q 587 620 650 638 Q 714 654 781 671 Q 812 680 817 684 Q 826 694 820 703 Q 811 716 778 722 Q 744 726 710 712 Q 676 699 639 688 Q 597 678 549 671 Z" class="stroke4"/>
    <text x="541" y="659" transform="translate(541,659) scale(1,-1) translate(-541,-659)" font-family="Helvetica" font-size="72" font-weight="800" fill="#000000">4</text>
    <path d="M 715 469 Q 796 482 914 486 Q 974 486 981 498 Q 987 511 968 524 Q 911 563 870 552 Q 734 516 416 460 Q 394 457 411 439 Q 447 409 487 422 Q 610 462 666 462 L 715 469 Z" class="stroke5"/>
    <text x="414" y="449" transform="translate(414,449) scale(1,-1) translate(-414,-449)" font-family="Helvetica" font-size="72" font-weight="800" fill="#000000">5</text>
    <path d="M 635 61 Q 613 68 585 76 Q 572 80 573 72 Q 573 65 583 53 Q 644 -2 683 -48 Q 696 -58 710 -41 Q 749 10 750 117 Q 740 267 749 404 Q 756 432 749 443 Q 742 453 715 469 C 690 485 657 491 666 462 Q 681 416 683 387 Q 683 80 682 75 Q 679 66 674 59 Q 662 52 635 61 Z" class="stroke6"/>
    <text x="673" y="455" transform="translate(673,455) scale(1,-1) translate(-673,-455)" font-family="Helvetica" font-size="72" font-weight="800" fill="#000000">6</text>
</g>
</svg>