<svg version="1.1" viewBox="0 0 1024 1024" xmlns="http://www.w3.org/2000/svg">
  <rect width="1024" height="1024" fill="white"/>
  <rect width="1024" height="1024" fill="none" stroke="black" stroke-width="4"/>
  <g stroke="black" stroke-dasharray="4,4" stroke-width="1" transform="scale(4, 4)">
    <line x1="0" y1="0" x2="256" y2="256"/>
    <line x1="256" y1="0" x2="0" y2="256"/>
    <line x1="128" y1="0" x2="128" y2="256"/>
    <line x1="0" y1="128" x2="256" y2="128"/>
  </g>
  <g transform="scale(1, -1) translate(0, -900)">
    <style type="text/css">
        .stroke1 {fill: #808080;}
        .stroke2 {fill: #808080;}
        .stroke3 {fill: #808080;}
        .stroke4 {fill: #808080;}
        .stroke5 {fill: #808080;}
        .stroke6 {fill: #808080;}
        .stroke7 {fill: #808080;}
        .stroke8 {fill: #808080;}
        .stroke9 {fill: #808080;}
        .stroke10 {fill: #808080;}
        .stroke11 {fill: #808080;}
        .stroke12 {fill: #808080;}
        .stroke13 {fill: #808080;}
        .stroke14 {fill: #808080;}
        .stroke15 {fill: #808080;}
        .stroke16 {fill: #808080;}
        .stroke17 {fill: #808080;}
        .stroke18 {fill: #808080;}
        .stroke19 {fill: #808080;}
        .stroke20 {fill: #808080;}
        
    </style>

    <path d="M 452 779 Q 516 713 557 698 Q 576 695 586 712 Q 593 728 588 749 Q 579 777 557 792 Q 545 798 462 827 Q 443 830 433 826 Q 426 825 430 809 Q 431 796 452 779 Z" class="stroke1"/>
    <text x="439" y="816" transform="translate(439,816) scale(1,-1) translate(-439,-816)" font-family="Helvetica" font-size="72" font-weight="800" fill="#000000">1</text>
    <path d="M 131 598 Q 106 595 124 575 Q 157 542 206 551 Q 447 615 846 616 Q 871 616 894 615 Q 918 615 923 625 Q 930 638 911 655 Q 842 706 774 686 Q 549 646 131 598 Z" class="stroke2"/>
    <text x="128" y="586" transform="translate(128,586) scale(1,-1) translate(-128,-586)" font-family="Helvetica" font-size="72" font-weight="800" fill="#000000">2</text>
    <path d="M 371 489 Q 334 485 360 466 Q 399 439 459 452 Q 538 465 619 479 Q 656 486 662 491 Q 671 498 667 508 Q 660 520 630 528 Q 606 534 499 506 Q 391 491 371 489 Z" class="stroke3"/>
    <text x="363" y="479" transform="translate(363,479) scale(1,-1) translate(-363,-479)" font-family="Helvetica" font-size="72" font-weight="800" fill="#000000">3</text>
    <path d="M 379 361 Q 342 357 368 338 Q 407 311 467 324 Q 539 336 614 348 Q 648 355 654 359 Q 663 366 659 376 Q 652 388 622 397 Q 591 404 561 393 Q 522 381 480 372 Q 434 365 379 361 Z" class="stroke4"/>
    <text x="371" y="351" transform="translate(371,351) scale(1,-1) translate(-371,-351)" font-family="Helvetica" font-size="72" font-weight="800" fill="#000000">4</text>
    <path d="M 372 218 Q 359 224 329 230 Q 314 234 310 229 Q 301 222 311 202 Q 339 139 354 38 Q 355 7 373 -13 Q 394 -41 401 -22 Q 405 -9 407 11 L 404 49 Q 394 157 393 185 C 392 210 392 210 372 218 Z" class="stroke5"/>
    <text x="318" y="220" transform="translate(318,220) scale(1,-1) translate(-318,-220)" font-family="Helvetica" font-size="72" font-weight="800" fill="#000000">5</text>
    <path d="M 680 76 Q 707 169 744 193 Q 762 212 747 232 Q 663 298 606 265 Q 491 232 372 218 C 342 214 363 182 393 185 Q 406 185 425 191 Q 519 207 608 222 Q 632 226 641 217 Q 651 207 648 187 Q 638 129 625 82 C 617 53 671 47 680 76 Z" class="stroke6"/>
    <text x="380" y="216" transform="translate(380,216) scale(1,-1) translate(-380,-216)" font-family="Helvetica" font-size="72" font-weight="800" fill="#000000">6</text>
    <path d="M 407 11 Q 414 11 425 12 Q 510 27 696 34 Q 709 35 710 45 Q 711 54 680 76 C 662 89 654 88 625 82 Q 502 58 404 49 C 374 46 377 10 407 11 Z" class="stroke7"/>
    <text x="411" y="18" transform="translate(411,18) scale(1,-1) translate(-411,-18)" font-family="Helvetica" font-size="72" font-weight="800" fill="#000000">7</text>
</g>
</svg>