<svg version="1.1" viewBox="0 0 1024 1024" xmlns="http://www.w3.org/2000/svg">
  <rect width="1024" height="1024" fill="white"/>
  <rect width="1024" height="1024" fill="none" stroke="black" stroke-width="4"/>
  <g stroke="black" stroke-dasharray="4,4" stroke-width="1" transform="scale(4, 4)">
    <line x1="0" y1="0" x2="256" y2="256"/>
    <line x1="256" y1="0" x2="0" y2="256"/>
    <line x1="128" y1="0" x2="128" y2="256"/>
    <line x1="0" y1="128" x2="256" y2="128"/>
  </g>
  <g transform="scale(1, -1) translate(0, -900)">
    <style type="text/css">
        .stroke1 {fill: #808080;}
        .stroke2 {fill: #808080;}
        .stroke3 {fill: #808080;}
        .stroke4 {fill: #808080;}
        .stroke5 {fill: #808080;}
        .stroke6 {fill: #808080;}
        .stroke7 {fill: #808080;}
        .stroke8 {fill: #808080;}
        .stroke9 {fill: #808080;}
        .stroke10 {fill: #808080;}
        .stroke11 {fill: #808080;}
        .stroke12 {fill: #808080;}
        .stroke13 {fill: #808080;}
        .stroke14 {fill: #808080;}
        .stroke15 {fill: #808080;}
        .stroke16 {fill: #808080;}
        .stroke17 {fill: #808080;}
        .stroke18 {fill: #808080;}
        .stroke19 {fill: #808080;}
        .stroke20 {fill: #808080;}
        
    </style>

    <path d="M 435 698 Q 558 720 686 742 Q 755 757 766 765 Q 776 774 771 783 Q 764 796 733 805 Q 697 814 613 785 Q 459 743 296 731 Q 256 727 284 707 Q 329 680 389 691 Q 392 692 397 691 L 435 698 Z" class="stroke1"/>
    <text x="287" y="721" transform="translate(287,721) scale(1,-1) translate(-287,-721)" font-family="Helvetica" font-size="72" font-weight="800" fill="#000000">1</text>
    <path d="M 374 578 Q 468 660 470 671 L 470 672 Q 469 685 445 694 Q 441 697 435 698 C 407 709 405 710 397 691 Q 372 619 198 503 Q 176 491 202 492 Q 247 492 351 561 L 374 578 Z" class="stroke2"/>
    <text x="465" y="672" transform="translate(465,672) scale(1,-1) translate(-465,-672)" font-family="Helvetica" font-size="72" font-weight="800" fill="#000000">2</text>
    <path d="M 521 460 Q 508 500 432 548 Q 396 572 374 578 C 346 589 324 575 351 561 Q 373 551 389 538 L 441 498 Q 460 480 476 457 L 505 398 Q 538 293 509 144 Q 497 86 480 78 Q 465 71 406 79 Q 355 88 356 80 Q 355 73 368 62 Q 441 19 474 -13 Q 487 -29 501 -24 Q 525 -17 545 20 Q 581 104 577 258 Q 574 327 550 398 L 521 460 Z" class="stroke3"/>
    <text x="360" y="561" transform="translate(360,561) scale(1,-1) translate(-360,-561)" font-family="Helvetica" font-size="72" font-weight="800" fill="#000000">3</text>
    <path d="M 389 538 Q 367 466 177 350 Q 158 340 181 340 Q 250 337 390 452 L 441 498 C 463 518 400 566 389 538 Z" class="stroke4"/>
    <text x="393" y="532" transform="translate(393,532) scale(1,-1) translate(-393,-532)" font-family="Helvetica" font-size="72" font-weight="800" fill="#000000">4</text>
    <path d="M 476 457 Q 475 456 472 451 Q 387 298 174 158 Q 159 149 145 139 Q 130 127 140 125 Q 149 119 162 124 Q 298 164 437 314 Q 444 323 453 332 Q 499 384 499 388 Q 502 392 505 398 C 520 424 492 483 476 457 Z" class="stroke5"/>
    <text x="479" y="451" transform="translate(479,451) scale(1,-1) translate(-479,-451)" font-family="Helvetica" font-size="72" font-weight="800" fill="#000000">5</text>
    <path d="M 569 422 Q 630 468 666 500 Q 733 564 767 582 Q 789 594 777 613 Q 761 629 732 644 Q 705 657 691 653 Q 678 652 683 636 Q 689 603 625 521 Q 591 479 555 434 C 536 411 545 404 569 422 Z" class="stroke6"/>
    <text x="691" y="642" transform="translate(691,642) scale(1,-1) translate(-691,-642)" font-family="Helvetica" font-size="72" font-weight="800" fill="#000000">6</text>
    <path d="M 555 434 Q 537 447 521 460 C 497 479 529 419 550 398 Q 647 301 762 201 Q 787 180 821 186 Q 939 204 976 215 Q 986 219 988 225 Q 987 231 970 237 Q 784 273 707 326 Q 641 369 569 422 L 555 434 Z" class="stroke7"/>
    <text x="526" y="455" transform="translate(526,455) scale(1,-1) translate(-526,-455)" font-family="Helvetica" font-size="72" font-weight="800" fill="#000000">7</text>
</g>
</svg>