<svg version="1.1" viewBox="0 0 1024 1024" xmlns="http://www.w3.org/2000/svg">
  <rect width="1024" height="1024" fill="white"/>
  <rect width="1024" height="1024" fill="none" stroke="black" stroke-width="4"/>
  <g stroke="black" stroke-dasharray="4,4" stroke-width="1" transform="scale(4, 4)">
    <line x1="0" y1="0" x2="256" y2="256"/>
    <line x1="256" y1="0" x2="0" y2="256"/>
    <line x1="128" y1="0" x2="128" y2="256"/>
    <line x1="0" y1="128" x2="256" y2="128"/>
  </g>
  <g transform="scale(1, -1) translate(0, -900)">
    <style type="text/css">
        .stroke1 {fill: #808080;}
        .stroke2 {fill: #808080;}
        .stroke3 {fill: #808080;}
        .stroke4 {fill: #808080;}
        .stroke5 {fill: #808080;}
        .stroke6 {fill: #808080;}
        .stroke7 {fill: #808080;}
        .stroke8 {fill: #808080;}
        .stroke9 {fill: #808080;}
        .stroke10 {fill: #808080;}
        .stroke11 {fill: #808080;}
        .stroke12 {fill: #808080;}
        .stroke13 {fill: #808080;}
        .stroke14 {fill: #808080;}
        .stroke15 {fill: #808080;}
        .stroke16 {fill: #808080;}
        .stroke17 {fill: #808080;}
        .stroke18 {fill: #808080;}
        .stroke19 {fill: #808080;}
        .stroke20 {fill: #808080;}
        
    </style>

    <path d="M 541 606 Q 587 616 638 624 Q 690 636 698 643 Q 708 650 703 660 Q 696 672 666 680 Q 645 686 543 656 L 492 642 Q 485 642 479 640 Q 407 624 322 618 Q 285 612 311 594 Q 350 573 427 585 Q 458 591 493 597 L 541 606 Z" class="stroke1"/>
    <text x="314" y="607" transform="translate(314,607) scale(1,-1) translate(-314,-607)" font-family="Helvetica" font-size="72" font-weight="800" fill="#000000">1</text>
    <path d="M 533 485 Q 537 546 541 606 L 543 656 Q 544 719 562 788 Q 565 798 546 813 Q 512 831 488 835 Q 472 838 464 830 Q 457 823 465 808 Q 486 778 486 758 Q 490 703 492 642 L 493 597 Q 493 540 492 477 C 492 447 531 455 533 485 Z" class="stroke2"/>
    <text x="475" y="821" transform="translate(475,821) scale(1,-1) translate(-475,-821)" font-family="Helvetica" font-size="72" font-weight="800" fill="#000000">2</text>
    <path d="M 520 446 Q 565 453 832 469 Q 851 470 857 479 Q 861 492 844 505 Q 792 541 750 533 Q 666 512 533 485 L 492 477 Q 491 478 489 477 Q 341 452 168 423 Q 146 420 163 403 Q 196 376 236 385 Q 363 427 479 440 L 520 446 Z" class="stroke3"/>
    <text x="165" y="413" transform="translate(165,413) scale(1,-1) translate(-165,-413)" font-family="Helvetica" font-size="72" font-weight="800" fill="#000000">3</text>
    <path d="M 533 154 Q 536 223 540 281 L 541 308 Q 542 377 547 399 Q 554 415 545 425 Q 532 438 520 446 C 496 464 469 468 479 440 Q 491 409 492 390 Q 493 368 492 182 C 492 152 532 124 533 154 Z" class="stroke4"/>
    <text x="487" y="434" transform="translate(487,434) scale(1,-1) translate(-487,-434)" font-family="Helvetica" font-size="72" font-weight="800" fill="#000000">4</text>
    <path d="M 540 281 Q 550 277 567 280 Q 660 298 729 309 Q 757 316 746 331 Q 733 347 701 352 Q 671 355 541 308 C 513 298 511 289 540 281 Z" class="stroke5"/>
    <text x="547" y="287" transform="translate(547,287) scale(1,-1) translate(-547,-287)" font-family="Helvetica" font-size="72" font-weight="800" fill="#000000">5</text>
    <path d="M 377 271 Q 384 284 395 297 Q 405 310 391 325 Q 349 359 322 357 Q 310 356 312 340 Q 319 213 181 66 Q 139 32 105 -8 Q 96 -23 112 -19 Q 172 -9 274 113 Q 281 123 360 244 L 377 271 Z" class="stroke6"/>
    <text x="323" y="345" transform="translate(323,345) scale(1,-1) translate(-323,-345)" font-family="Helvetica" font-size="72" font-weight="800" fill="#000000">6</text>
    <path d="M 360 244 Q 465 139 598 48 Q 617 36 639 22 Q 726 -36 758 -39 Q 777 -39 914 -13 Q 948 -6 956 6 Q 962 18 942 19 Q 861 34 811 38 Q 678 51 542 149 Q 536 152 533 154 L 492 182 Q 434 224 377 271 C 354 290 339 265 360 244 Z" class="stroke7"/>
    <text x="378" y="261" transform="translate(378,261) scale(1,-1) translate(-378,-261)" font-family="Helvetica" font-size="72" font-weight="800" fill="#000000">7</text>
</g>
</svg>