<svg version="1.1" viewBox="0 0 1024 1024" xmlns="http://www.w3.org/2000/svg">
  <rect width="1024" height="1024" fill="white"/>
  <rect width="1024" height="1024" fill="none" stroke="black" stroke-width="4"/>
  <g stroke="black" stroke-dasharray="4,4" stroke-width="1" transform="scale(4, 4)">
    <line x1="0" y1="0" x2="256" y2="256"/>
    <line x1="256" y1="0" x2="0" y2="256"/>
    <line x1="128" y1="0" x2="128" y2="256"/>
    <line x1="0" y1="128" x2="256" y2="128"/>
  </g>
  <g transform="scale(1, -1) translate(0, -900)">
    <style type="text/css">
        .stroke1 {fill: #808080;}
        .stroke2 {fill: #808080;}
        .stroke3 {fill: #808080;}
        .stroke4 {fill: #808080;}
        .stroke5 {fill: #808080;}
        .stroke6 {fill: #808080;}
        .stroke7 {fill: #808080;}
        .stroke8 {fill: #808080;}
        .stroke9 {fill: #808080;}
        .stroke10 {fill: #808080;}
        .stroke11 {fill: #808080;}
        .stroke12 {fill: #808080;}
        .stroke13 {fill: #808080;}
        .stroke14 {fill: #808080;}
        .stroke15 {fill: #808080;}
        .stroke16 {fill: #808080;}
        .stroke17 {fill: #808080;}
        .stroke18 {fill: #808080;}
        .stroke19 {fill: #808080;}
        .stroke20 {fill: #808080;}
        
    </style>

    <path d="M 404 683 Q 506 786 545 808 Q 564 821 552 837 Q 536 852 509 862 Q 484 872 472 868 Q 460 864 466 852 Q 472 831 412 730 Q 399 711 385 687 C 370 661 383 662 404 683 Z" class="stroke1"/>
    <text x="474" y="858" transform="translate(474,858) scale(1,-1) translate(-474,-858)" font-family="Helvetica" font-size="72" font-weight="800" fill="#000000">1</text>
    <path d="M 385 687 Q 366 703 349 712 Q 337 716 328 711 Q 319 707 322 696 Q 338 666 343 581 Q 343 509 346 331 C 347 301 390 308 391 338 Q 392 387 393 431 L 393 457 Q 394 497 395 535 L 396 561 Q 396 624 399 652 C 401 674 401 674 385 687 Z" class="stroke2"/>
    <text x="332" y="701" transform="translate(332,701) scale(1,-1) translate(-332,-701)" font-family="Helvetica" font-size="72" font-weight="800" fill="#000000">2</text>
    <path d="M 617 295 Q 614 64 598 38 Q 592 32 496 55 Q 474 61 476 51 Q 549 -3 591 -42 Q 604 -61 621 -67 Q 631 -71 640 -60 Q 677 -12 679 67 Q 672 185 671 342 L 670 406 Q 670 488 671 579 Q 670 640 684 667 Q 697 686 684 698 Q 662 717 623 733 Q 604 740 587 733 Q 514 694 404 683 C 374 679 347 645 399 652 Q 411 651 577 685 Q 598 691 603 680 Q 618 635 618 378 L 617 295 Z" class="stroke3"/>
    <text x="389" y="682" transform="translate(389,682) scale(1,-1) translate(-389,-682)" font-family="Helvetica" font-size="72" font-weight="800" fill="#000000">3</text>
    <path d="M 395 535 Q 399 535 405 536 Q 492 552 555 561 Q 577 565 569 577 Q 559 590 535 594 Q 507 597 396 561 C 367 552 365 533 395 535 Z" class="stroke4"/>
    <text x="399" y="541" transform="translate(399,541) scale(1,-1) translate(-399,-541)" font-family="Helvetica" font-size="72" font-weight="800" fill="#000000">4</text>
    <path d="M 393 431 Q 397 431 405 432 Q 492 448 555 457 Q 577 461 569 473 Q 559 486 535 490 Q 508 493 393 457 C 364 448 363 429 393 431 Z" class="stroke5"/>
    <text x="399" y="438" transform="translate(399,438) scale(1,-1) translate(-399,-438)" font-family="Helvetica" font-size="72" font-weight="800" fill="#000000">5</text>
    <path d="M 346 331 Q 291 324 237 315 Q 209 311 163 317 Q 148 318 145 307 Q 141 294 149 283 Q 171 262 203 237 Q 213 233 227 239 Q 294 272 364 288 Q 472 313 579 338 Q 592 342 610 346 C 639 353 651 384 618 378 Q 512 359 391 338 L 346 331 Z" class="stroke6"/>
    <text x="159" y="303" transform="translate(159,303) scale(1,-1) translate(-159,-303)" font-family="Helvetica" font-size="72" font-weight="800" fill="#000000">6</text>
    <path d="M 610 346 Q 432 186 153 45 Q 144 41 142 34 Q 141 28 146 27 Q 179 24 321 91 Q 334 100 348 106 Q 465 169 617 295 L 671 342 Q 711 379 746 414 Q 803 474 836 500 Q 848 510 844 528 Q 823 594 791 602 Q 775 608 774 584 Q 765 536 765 533 Q 743 490 670 406 L 610 346 Z" class="stroke7"/>
    <text x="786" y="589" transform="translate(786,589) scale(1,-1) translate(-786,-589)" font-family="Helvetica" font-size="72" font-weight="800" fill="#000000">7</text>
</g>
</svg>