<svg version="1.1" viewBox="0 0 1024 1024" xmlns="http://www.w3.org/2000/svg">
  <rect width="1024" height="1024" fill="white"/>
  <rect width="1024" height="1024" fill="none" stroke="black" stroke-width="4"/>
  <g stroke="black" stroke-dasharray="4,4" stroke-width="1" transform="scale(4, 4)">
    <line x1="0" y1="0" x2="256" y2="256"/>
    <line x1="256" y1="0" x2="0" y2="256"/>
    <line x1="128" y1="0" x2="128" y2="256"/>
    <line x1="0" y1="128" x2="256" y2="128"/>
  </g>
  <g transform="scale(1, -1) translate(0, -900)">
    <style type="text/css">
        .stroke1 {fill: #808080;}
        .stroke2 {fill: #808080;}
        .stroke3 {fill: #808080;}
        .stroke4 {fill: #808080;}
        .stroke5 {fill: #808080;}
        .stroke6 {fill: #808080;}
        .stroke7 {fill: #808080;}
        .stroke8 {fill: #808080;}
        .stroke9 {fill: #808080;}
        .stroke10 {fill: #808080;}
        .stroke11 {fill: #808080;}
        .stroke12 {fill: #808080;}
        .stroke13 {fill: #808080;}
        .stroke14 {fill: #808080;}
        .stroke15 {fill: #808080;}
        .stroke16 {fill: #808080;}
        .stroke17 {fill: #808080;}
        .stroke18 {fill: #808080;}
        .stroke19 {fill: #808080;}
        .stroke20 {fill: #808080;}
        
    </style>

    <path d="M 552 695 Q 610 707 671 717 Q 723 729 730 735 Q 740 742 735 752 Q 728 764 698 772 Q 667 779 637 768 Q 595 755 553 743 L 490 729 Q 429 719 363 713 Q 326 709 352 690 Q 391 666 464 680 Q 476 683 490 683 L 552 695 Z" class="stroke1"/>
    <text x="355" y="703" transform="translate(355,703) scale(1,-1) translate(-355,-703)" font-family="Helvetica" font-size="72" font-weight="800" fill="#000000">1</text>
    <path d="M 317 580 Q 293 592 270 595 Q 263 596 257 591 Q 250 584 261 573 Q 294 534 319 403 Q 326 337 368 312 Q 369 312 371 311 Q 386 308 388 330 L 385 364 Q 381 388 372 413 Q 353 518 349 541 C 344 567 344 567 317 580 Z" class="stroke2"/>
    <text x="266" y="584" transform="translate(266,584) scale(1,-1) translate(-266,-584)" font-family="Helvetica" font-size="72" font-weight="800" fill="#000000">2</text>
    <path d="M 655 361 Q 655 358 657 354 Q 661 336 676 337 Q 692 338 701 354 Q 717 372 746 461 Q 767 519 808 551 Q 830 569 813 587 Q 794 606 737 638 Q 719 651 650 633 Q 598 630 549 619 L 490 609 Q 460 605 435 599 Q 365 586 317 580 C 287 576 320 533 349 541 Q 400 557 491 571 L 549 580 Q 678 601 701 589 Q 711 582 704 547 Q 674 418 660 390 L 655 361 Z" class="stroke3"/>
    <text x="324" y="577" transform="translate(324,577) scale(1,-1) translate(-324,-577)" font-family="Helvetica" font-size="72" font-weight="800" fill="#000000">3</text>
    <path d="M 549 466 Q 586 473 622 476 Q 644 479 637 492 Q 627 507 601 513 Q 582 517 549 509 L 492 495 Q 449 485 412 477 Q 396 473 415 458 Q 425 451 446 453 Q 468 457 492 459 L 549 466 Z" class="stroke4"/>
    <text x="414" y="468" transform="translate(414,468) scale(1,-1) translate(-414,-468)" font-family="Helvetica" font-size="72" font-weight="800" fill="#000000">4</text>
    <path d="M 550 352 Q 595 358 655 361 C 685 363 686 375 660 390 Q 630 412 549 391 L 493 380 Q 435 370 385 364 C 355 360 358 329 388 330 Q 395 330 403 331 Q 437 340 493 345 L 550 352 Z" class="stroke5"/>
    <text x="395" y="336" transform="translate(395,336) scale(1,-1) translate(-395,-336)" font-family="Helvetica" font-size="72" font-weight="800" fill="#000000">5</text>
    <path d="M 551 225 Q 630 231 900 232 Q 925 231 931 242 Q 938 257 918 274 Q 839 334 793 311 Q 697 295 551 273 L 492 264 Q 323 245 124 223 Q 97 222 117 199 Q 159 160 203 173 Q 374 218 461 218 Q 474 221 492 220 L 551 225 Z" class="stroke6"/>
    <text x="120" y="211" transform="translate(120,211) scale(1,-1) translate(-120,-211)" font-family="Helvetica" font-size="72" font-weight="800" fill="#000000">6</text>
    <path d="M 492 220 Q 483 43 500 -38 Q 503 -56 511 -68 Q 527 -84 536 -61 Q 552 -22 551 225 L 551 273 Q 550 310 550 352 L 549 391 Q 549 431 549 466 L 549 509 Q 549 546 549 580 L 549 619 Q 550 662 552 695 L 553 743 Q 553 744 554 745 Q 555 781 574 812 Q 581 830 559 846 Q 532 867 486 878 Q 465 884 451 868 Q 441 859 455 846 Q 486 819 489 781 Q 489 759 490 729 L 490 683 Q 490 650 490 609 L 491 571 Q 491 537 492 495 L 492 459 Q 492 420 493 380 L 493 345 Q 493 302 492 264 L 492 220 Z" class="stroke7"/>
    <text x="461" y="858" transform="translate(461,858) scale(1,-1) translate(-461,-858)" font-family="Helvetica" font-size="72" font-weight="800" fill="#000000">7</text>
</g>
</svg>