<svg version="1.1" viewBox="0 0 1024 1024" xmlns="http://www.w3.org/2000/svg">
  <rect width="1024" height="1024" fill="white"/>
  <rect width="1024" height="1024" fill="none" stroke="black" stroke-width="4"/>
  <g stroke="black" stroke-dasharray="4,4" stroke-width="1" transform="scale(4, 4)">
    <line x1="0" y1="0" x2="256" y2="256"/>
    <line x1="256" y1="0" x2="0" y2="256"/>
    <line x1="128" y1="0" x2="128" y2="256"/>
    <line x1="0" y1="128" x2="256" y2="128"/>
  </g>
  <g transform="scale(1, -1) translate(0, -900)">
    <style type="text/css">
        .stroke1 {fill: #808080;}
        .stroke2 {fill: #808080;}
        .stroke3 {fill: #808080;}
        .stroke4 {fill: #808080;}
        .stroke5 {fill: #808080;}
        .stroke6 {fill: #808080;}
        .stroke7 {fill: #808080;}
        .stroke8 {fill: #808080;}
        .stroke9 {fill: #808080;}
        .stroke10 {fill: #808080;}
        .stroke11 {fill: #808080;}
        .stroke12 {fill: #808080;}
        .stroke13 {fill: #808080;}
        .stroke14 {fill: #808080;}
        .stroke15 {fill: #808080;}
        .stroke16 {fill: #808080;}
        .stroke17 {fill: #808080;}
        .stroke18 {fill: #808080;}
        .stroke19 {fill: #808080;}
        .stroke20 {fill: #808080;}
        
    </style>

    <path d="M 467 814 Q 492 795 517 771 Q 533 759 549 761 Q 561 762 565 776 Q 569 792 557 823 Q 545 851 459 864 Q 443 867 436 863 Q 430 859 433 845 Q 437 835 467 814 Z" class="stroke1"/>
    <text x="443" y="855" transform="translate(443,855) scale(1,-1) translate(-443,-855)" font-family="Helvetica" font-size="72" font-weight="800" fill="#000000">1</text>
    <path d="M 307 697 Q 270 693 296 674 Q 332 650 412 662 Q 533 683 659 703 Q 720 715 730 723 Q 739 730 735 740 Q 728 753 698 761 Q 670 768 580 740 Q 427 706 307 697 Z" class="stroke2"/>
    <text x="299" y="687" transform="translate(299,687) scale(1,-1) translate(-299,-687)" font-family="Helvetica" font-size="72" font-weight="800" fill="#000000">2</text>
    <path d="M 343 588 Q 391 506 412 501 Q 425 497 435 514 Q 439 527 434 548 Q 427 567 404 582 Q 370 607 353 613 Q 344 617 341 606 Q 338 597 343 588 Z" class="stroke3"/>
    <text x="352" y="600" transform="translate(352,600) scale(1,-1) translate(-352,-600)" font-family="Helvetica" font-size="72" font-weight="800" fill="#000000">3</text>
    <path d="M 562 481 Q 580 500 627 570 Q 637 588 658 610 Q 674 620 666 632 Q 657 650 629 672 Q 616 684 598 679 Q 588 675 593 663 Q 600 627 540 504 Q 531 488 529 476 C 522 447 542 459 562 481 Z" class="stroke4"/>
    <text x="601" y="669" transform="translate(601,669) scale(1,-1) translate(-601,-669)" font-family="Helvetica" font-size="72" font-weight="800" fill="#000000">4</text>
    <path d="M 529 440 Q 653 453 836 451 Q 870 450 899 451 Q 921 450 927 460 Q 934 473 915 488 Q 846 542 803 520 Q 709 504 562 481 L 529 476 Q 516 476 501 473 Q 323 451 114 428 Q 92 427 108 407 Q 124 391 143 385 Q 167 379 184 384 Q 307 417 445 431 Q 449 432 458 432 L 529 440 Z" class="stroke5"/>
    <text x="111" y="417" transform="translate(111,417) scale(1,-1) translate(-111,-417)" font-family="Helvetica" font-size="72" font-weight="800" fill="#000000">5</text>
    <path d="M 534 269 Q 619 278 743 278 Q 803 275 811 287 Q 817 299 800 313 Q 740 358 668 336 Q 611 327 536 312 L 475 302 Q 364 289 237 271 Q 215 270 231 251 Q 262 223 314 234 Q 389 255 476 262 L 534 269 Z" class="stroke6"/>
    <text x="234" y="261" transform="translate(234,261) scale(1,-1) translate(-234,-261)" font-family="Helvetica" font-size="72" font-weight="800" fill="#000000">6</text>
    <path d="M 481 -38 Q 487 -63 494 -73 Q 500 -80 507 -78 Q 520 -69 529 -9 Q 529 9 534 269 L 536 312 Q 536 369 545 410 Q 548 438 530 439 L 529 440 C 504 456 450 461 458 432 Q 470 392 475 341 Q 475 323 475 302 L 476 262 Q 476 3 481 -38 Z" class="stroke7"/>
    <text x="466" y="427" transform="translate(466,427) scale(1,-1) translate(-466,-427)" font-family="Helvetica" font-size="72" font-weight="800" fill="#000000">7</text>
</g>
</svg>