<svg version="1.1" viewBox="0 0 1024 1024" xmlns="http://www.w3.org/2000/svg">
  <rect width="1024" height="1024" fill="white"/>
  <rect width="1024" height="1024" fill="none" stroke="black" stroke-width="4"/>
  <g stroke="black" stroke-dasharray="4,4" stroke-width="1" transform="scale(4, 4)">
    <line x1="0" y1="0" x2="256" y2="256"/>
    <line x1="256" y1="0" x2="0" y2="256"/>
    <line x1="128" y1="0" x2="128" y2="256"/>
    <line x1="0" y1="128" x2="256" y2="128"/>
  </g>
  <g transform="scale(1, -1) translate(0, -900)">
    <style type="text/css">
        .stroke1 {fill: #808080;}
        .stroke2 {fill: #808080;}
        .stroke3 {fill: #808080;}
        .stroke4 {fill: #808080;}
        .stroke5 {fill: #808080;}
        .stroke6 {fill: #808080;}
        .stroke7 {fill: #808080;}
        .stroke8 {fill: #808080;}
        .stroke9 {fill: #808080;}
        .stroke10 {fill: #808080;}
        .stroke11 {fill: #808080;}
        .stroke12 {fill: #808080;}
        .stroke13 {fill: #808080;}
        .stroke14 {fill: #808080;}
        .stroke15 {fill: #808080;}
        .stroke16 {fill: #808080;}
        .stroke17 {fill: #808080;}
        .stroke18 {fill: #808080;}
        .stroke19 {fill: #808080;}
        .stroke20 {fill: #808080;}
        
    </style>

    <path d="M 366 687 Q 396 678 439 687 Q 554 711 672 735 Q 727 748 735 755 Q 744 762 739 772 Q 732 784 702 792 Q 675 798 556 759 Q 460 735 356 722 C 326 718 337 694 366 687 Z" class="stroke1"/>
    <text x="365" y="718" transform="translate(365,718) scale(1,-1) translate(-365,-718)" font-family="Helvetica" font-size="72" font-weight="800" fill="#000000">1</text>
    <path d="M 316 439 Q 332 508 343 575 Q 356 678 366 687 C 374 708 374 708 356 722 Q 341 735 318 748 Q 299 761 284 756 Q 271 749 277 734 Q 295 703 290 645 Q 287 629 286 608 Q 268 428 216 303 Q 179 216 81 72 Q 75 65 73 59 Q 69 47 81 49 Q 114 55 202 173 Q 220 200 238 232 Q 290 332 305 401 L 316 439 Z" class="stroke2"/>
    <text x="290" y="742" transform="translate(290,742) scale(1,-1) translate(-290,-742)" font-family="Helvetica" font-size="72" font-weight="800" fill="#000000">2</text>
    <path d="M 409 590 Q 372 583 399 567 Q 444 543 499 558 Q 566 574 638 590 Q 671 599 676 603 Q 685 612 680 620 Q 673 632 642 638 Q 611 644 581 631 Q 544 618 504 607 Q 461 597 409 590 Z" class="stroke3"/>
    <text x="401" y="580" transform="translate(401,580) scale(1,-1) translate(-401,-580)" font-family="Helvetica" font-size="72" font-weight="800" fill="#000000">3</text>
    <path d="M 478 432 Q 629 463 787 464 Q 808 464 813 474 Q 817 486 801 498 Q 750 534 713 522 Q 632 501 316 439 C 287 433 275 406 305 401 Q 329 395 352 400 L 405 415 Q 421 419 439 423 L 478 432 Z" class="stroke4"/>
    <text x="314" y="405" transform="translate(314,405) scale(1,-1) translate(-314,-405)" font-family="Helvetica" font-size="72" font-weight="800" fill="#000000">4</text>
    <path d="M 352 400 Q 365 367 366 336 Q 369 129 335 82 Q 305 39 351 -13 Q 354 -16 358 -19 Q 370 -28 385 -7 Q 419 33 535 133 Q 557 148 558 157 Q 561 172 537 160 Q 426 112 417 114 Q 407 121 409 146 Q 416 324 425 370 Q 429 389 405 415 C 386 438 342 428 352 400 Z" class="stroke5"/>
    <text x="360" y="396" transform="translate(360,396) scale(1,-1) translate(-360,-396)" font-family="Helvetica" font-size="72" font-weight="800" fill="#000000">5</text>
    <path d="M 633 260 Q 777 365 792 371 Q 814 381 803 400 Q 788 418 761 433 Q 736 446 722 443 Q 709 442 713 428 Q 719 391 660 329 Q 639 305 617 277 C 598 253 609 242 633 260 Z" class="stroke6"/>
    <text x="721" y="433" transform="translate(721,433) scale(1,-1) translate(-721,-433)" font-family="Helvetica" font-size="72" font-weight="800" fill="#000000">6</text>
    <path d="M 617 277 Q 562 335 501 411 Q 491 424 478 432 C 455 451 415 440 439 423 Q 440 422 444 420 Q 472 405 571 260 Q 623 182 731 74 Q 752 59 817 57 Q 877 63 922 67 Q 938 68 952 74 Q 961 81 948 92 Q 932 102 796 151 Q 721 178 633 260 L 617 277 Z" class="stroke7"/>
    <text x="449" y="422" transform="translate(449,422) scale(1,-1) translate(-449,-422)" font-family="Helvetica" font-size="72" font-weight="800" fill="#000000">7</text>
</g>
</svg>