<svg version="1.1" viewBox="0 0 1024 1024" xmlns="http://www.w3.org/2000/svg">
  <rect width="1024" height="1024" fill="white"/>
  <rect width="1024" height="1024" fill="none" stroke="black" stroke-width="4"/>
  <g stroke="black" stroke-dasharray="4,4" stroke-width="1" transform="scale(4, 4)">
    <line x1="0" y1="0" x2="256" y2="256"/>
    <line x1="256" y1="0" x2="0" y2="256"/>
    <line x1="128" y1="0" x2="128" y2="256"/>
    <line x1="0" y1="128" x2="256" y2="128"/>
  </g>
  <g transform="scale(1, -1) translate(0, -900)">
    <style type="text/css">
        .stroke1 {fill: #808080;}
        .stroke2 {fill: #808080;}
        .stroke3 {fill: #808080;}
        .stroke4 {fill: #808080;}
        .stroke5 {fill: #808080;}
        .stroke6 {fill: #808080;}
        .stroke7 {fill: #808080;}
        .stroke8 {fill: #808080;}
        .stroke9 {fill: #808080;}
        .stroke10 {fill: #808080;}
        .stroke11 {fill: #808080;}
        .stroke12 {fill: #808080;}
        .stroke13 {fill: #808080;}
        .stroke14 {fill: #808080;}
        .stroke15 {fill: #808080;}
        .stroke16 {fill: #808080;}
        .stroke17 {fill: #808080;}
        .stroke18 {fill: #808080;}
        .stroke19 {fill: #808080;}
        .stroke20 {fill: #808080;}
        
    </style>

    <path d="M 573 726 Q 639 732 868 732 Q 890 732 895 741 Q 901 754 883 769 Q 820 817 759 797 Q 573 764 170 720 Q 148 717 164 699 Q 179 684 198 678 Q 220 672 238 677 Q 311 696 391 707 L 436 713 Q 455 717 508 721 L 573 726 Z" class="stroke1"/>
    <text x="168" y="709" transform="translate(168,709) scale(1,-1) translate(-168,-709)" font-family="Helvetica" font-size="72" font-weight="800" fill="#000000">1</text>
    <path d="M 309 538 Q 290 554 266 560 Q 256 561 250 553 Q 246 547 254 536 Q 299 428 266 195 Q 260 164 250 129 Q 241 102 246 82 Q 256 46 268 33 Q 280 18 290 33 Q 299 43 305 62 L 313 104 Q 317 134 323 308 Q 324 462 331 502 C 333 521 333 521 309 538 Z" class="stroke2"/>
    <text x="260" y="548" transform="translate(260,548) scale(1,-1) translate(-260,-548)" font-family="Helvetica" font-size="72" font-weight="800" fill="#000000">2</text>
    <path d="M 650 90 Q 680 53 702 18 Q 712 -1 724 -1 Q 742 0 759 38 Q 778 80 773 131 Q 763 252 752 477 Q 751 513 768 537 Q 778 552 768 563 Q 746 585 687 611 Q 666 621 650 610 Q 613 595 568 582 L 530 572 Q 499 566 464 559 Q 463 559 462 558 L 417 551 Q 347 542 309 538 C 279 535 301 497 331 502 Q 347 503 376 510 Q 395 514 415 517 L 460 525 Q 494 532 529 538 L 565 545 Q 650 563 674 546 Q 713 518 694 133 Q 688 114 673 118 C 650 99 646 95 650 90 Z" class="stroke3"/>
    <text x="315" y="534" transform="translate(315,534) scale(1,-1) translate(-315,-534)" font-family="Helvetica" font-size="72" font-weight="800" fill="#000000">3</text>
    <path d="M 391 707 Q 416 682 417 551 L 415 517 Q 412 433 359 310 Q 355 304 354 299 Q 353 290 362 293 Q 392 305 435 407 Q 435 411 437 414 Q 446 444 460 525 L 462 558 Q 463 595 464 653 Q 464 663 466 675 Q 472 688 464 697 Q 454 707 436 713 C 408 724 374 732 391 707 Z" class="stroke4"/>
    <text x="399" y="708" transform="translate(399,708) scale(1,-1) translate(-399,-708)" font-family="Helvetica" font-size="72" font-weight="800" fill="#000000">4</text>
    <path d="M 568 582 Q 572 637 588 698 Q 592 713 583 721 Q 579 724 573 726 C 548 742 490 745 508 721 Q 509 717 515 712 Q 533 691 530 572 L 529 538 Q 528 505 527 469 Q 521 366 567 331 Q 580 318 642 323 Q 673 324 684 340 Q 693 350 686 357 Q 682 361 615 366 Q 552 373 565 545 L 568 582 Z" class="stroke5"/>
    <text x="515" y="719" transform="translate(515,719) scale(1,-1) translate(-515,-719)" font-family="Helvetica" font-size="72" font-weight="800" fill="#000000">5</text>
    <path d="M 401 228 Q 382 224 405 206 Q 414 199 433 202 Q 527 215 596 224 Q 624 228 613 243 Q 601 259 571 266 Q 543 270 495 257 Q 446 241 401 228 Z" class="stroke6"/>
    <text x="403" y="217" transform="translate(403,217) scale(1,-1) translate(-403,-217)" font-family="Helvetica" font-size="72" font-weight="800" fill="#000000">6</text>
    <path d="M 305 62 Q 315 61 328 63 Q 431 82 650 90 C 680 91 694 97 673 118 Q 664 128 648 139 Q 629 151 592 143 Q 438 115 313 104 C 283 101 275 62 305 62 Z" class="stroke7"/>
    <text x="311" y="68" transform="translate(311,68) scale(1,-1) translate(-311,-68)" font-family="Helvetica" font-size="72" font-weight="800" fill="#000000">7</text>
</g>
</svg>