<svg version="1.1" viewBox="0 0 1024 1024" xmlns="http://www.w3.org/2000/svg">
  <rect width="1024" height="1024" fill="white"/>
  <rect width="1024" height="1024" fill="none" stroke="black" stroke-width="4"/>
  <g stroke="black" stroke-dasharray="4,4" stroke-width="1" transform="scale(4, 4)">
    <line x1="0" y1="0" x2="256" y2="256"/>
    <line x1="256" y1="0" x2="0" y2="256"/>
    <line x1="128" y1="0" x2="128" y2="256"/>
    <line x1="0" y1="128" x2="256" y2="128"/>
  </g>
  <g transform="scale(1, -1) translate(0, -900)">
    <style type="text/css">
        .stroke1 {fill: #808080;}
        .stroke2 {fill: #808080;}
        .stroke3 {fill: #808080;}
        .stroke4 {fill: #808080;}
        .stroke5 {fill: #808080;}
        .stroke6 {fill: #808080;}
        .stroke7 {fill: #808080;}
        .stroke8 {fill: #808080;}
        .stroke9 {fill: #808080;}
        .stroke10 {fill: #808080;}
        .stroke11 {fill: #808080;}
        .stroke12 {fill: #808080;}
        .stroke13 {fill: #808080;}
        .stroke14 {fill: #808080;}
        .stroke15 {fill: #808080;}
        .stroke16 {fill: #808080;}
        .stroke17 {fill: #808080;}
        .stroke18 {fill: #808080;}
        .stroke19 {fill: #808080;}
        .stroke20 {fill: #808080;}
        
    </style>

    <path d="M 285 715 Q 266 724 245 727 Q 238 730 233 723 Q 226 716 236 706 Q 287 640 307 467 Q 314 407 355 377 Q 356 377 359 375 Q 377 372 377 401 L 372 437 Q 368 456 360 477 Q 333 618 325 678 C 322 699 313 703 285 715 Z" class="stroke1"/>
    <text x="241" y="716" transform="translate(241,716) scale(1,-1) translate(-241,-716)" font-family="Helvetica" font-size="72" font-weight="800" fill="#000000">1</text>
    <path d="M 628 430 Q 646 399 664 388 Q 674 378 694 402 Q 716 436 768 626 Q 781 662 809 689 Q 825 702 812 719 Q 796 740 748 772 Q 726 785 706 778 Q 663 768 604 761 Q 528 751 430 736 Q 351 723 285 715 C 255 711 296 670 325 678 Q 377 693 453 703 L 507 711 Q 568 721 644 729 Q 690 735 703 718 Q 719 696 715 675 Q 664 477 643 461 C 627 435 626 433 628 430 Z" class="stroke2"/>
    <text x="292" y="713" transform="translate(292,713) scale(1,-1) translate(-292,-713)" font-family="Helvetica" font-size="72" font-weight="800" fill="#000000">2</text>
    <path d="M 396 570 Q 378 566 400 550 Q 407 546 479 553 L 533 561 Q 579 568 621 574 Q 646 578 637 592 Q 627 608 599 613 Q 575 616 535 606 L 479 591 Q 436 581 396 570 Z" class="stroke3"/>
    <text x="398" y="560" transform="translate(398,560) scale(1,-1) translate(-398,-560)" font-family="Helvetica" font-size="72" font-weight="800" fill="#000000">3</text>
    <path d="M 530 422 Q 573 426 628 430 C 658 432 667 443 643 461 Q 618 486 531 464 L 478 453 Q 421 444 372 437 C 342 433 347 399 377 401 Q 383 401 390 402 Q 423 409 478 416 L 530 422 Z" class="stroke4"/>
    <text x="380" y="432" transform="translate(380,432) scale(1,-1) translate(-380,-432)" font-family="Helvetica" font-size="72" font-weight="800" fill="#000000">4</text>
    <path d="M 523 119 Q 524 183 526 242 L 527 293 Q 528 360 530 422 L 531 464 Q 532 515 533 561 L 535 606 Q 538 682 536 687 Q 523 700 507 711 C 483 729 441 731 453 703 Q 477 651 479 609 Q 479 600 479 591 L 479 553 Q 479 517 478 453 L 478 416 Q 477 359 475 282 L 474 234 Q 473 179 472 113 C 472 83 522 89 523 119 Z" class="stroke5"/>
    <text x="461" y="698" transform="translate(461,698) scale(1,-1) translate(-461,-698)" font-family="Helvetica" font-size="72" font-weight="800" fill="#000000">5</text>
    <path d="M 526 242 Q 691 273 697 277 Q 707 286 703 295 Q 696 308 665 317 Q 632 324 599 314 Q 563 304 527 293 L 475 282 Q 411 272 336 267 Q 296 263 324 243 Q 369 216 443 230 Q 456 233 474 234 L 526 242 Z" class="stroke6"/>
    <text x="327" y="257" transform="translate(327,257) scale(1,-1) translate(-327,-257)" font-family="Helvetica" font-size="72" font-weight="800" fill="#000000">6</text>
    <path d="M 472 113 Q 309 97 121 79 Q 94 78 113 55 Q 131 37 152 30 Q 179 23 199 28 Q 503 101 919 80 Q 920 81 923 80 Q 948 79 955 90 Q 962 105 942 122 Q 873 179 798 158 Q 690 140 523 119 L 472 113 Z" class="stroke7"/>
    <text x="117" y="67" transform="translate(117,67) scale(1,-1) translate(-117,-67)" font-family="Helvetica" font-size="72" font-weight="800" fill="#000000">7</text>
</g>
</svg>