<svg version="1.1" viewBox="0 0 1024 1024" xmlns="http://www.w3.org/2000/svg">
  <rect width="1024" height="1024" fill="white"/>
  <rect width="1024" height="1024" fill="none" stroke="black" stroke-width="4"/>
  <g stroke="black" stroke-dasharray="4,4" stroke-width="1" transform="scale(4, 4)">
    <line x1="0" y1="0" x2="256" y2="256"/>
    <line x1="256" y1="0" x2="0" y2="256"/>
    <line x1="128" y1="0" x2="128" y2="256"/>
    <line x1="0" y1="128" x2="256" y2="128"/>
  </g>
  <g transform="scale(1, -1) translate(0, -900)">
    <style type="text/css">
        .stroke1 {fill: #808080;}
        .stroke2 {fill: #808080;}
        .stroke3 {fill: #808080;}
        .stroke4 {fill: #808080;}
        .stroke5 {fill: #808080;}
        .stroke6 {fill: #808080;}
        .stroke7 {fill: #808080;}
        .stroke8 {fill: #808080;}
        .stroke9 {fill: #808080;}
        .stroke10 {fill: #808080;}
        .stroke11 {fill: #808080;}
        .stroke12 {fill: #808080;}
        .stroke13 {fill: #808080;}
        .stroke14 {fill: #808080;}
        .stroke15 {fill: #808080;}
        .stroke16 {fill: #808080;}
        .stroke17 {fill: #808080;}
        .stroke18 {fill: #808080;}
        .stroke19 {fill: #808080;}
        .stroke20 {fill: #808080;}
        
    </style>

    <path d="M 425 716 Q 447 735 465 749 Q 532 806 543 812 Q 562 824 551 840 Q 536 855 510 867 Q 485 877 473 874 Q 460 871 466 859 Q 472 832 429 770 Q 408 742 387 709 C 371 684 402 696 425 716 Z" class="stroke1"/>
    <text x="473" y="865" transform="translate(473,865) scale(1,-1) translate(-473,-865)" font-family="Helvetica" font-size="72" font-weight="800" fill="#000000">1</text>
    <path d="M 382 495 Q 382 529 381 564 L 381 596 Q 381 654 384 675 C 386 696 386 696 369 707 Q 348 722 326 728 Q 317 729 311 721 Q 308 717 316 706 Q 353 613 330 442 Q 318 385 321 370 Q 331 339 341 327 Q 351 315 361 328 Q 368 338 373 353 L 380 388 Q 384 440 382 463 L 382 495 Z" class="stroke2"/>
    <text x="321" y="716" transform="translate(321,716) scale(1,-1) translate(-321,-716)" font-family="Helvetica" font-size="72" font-weight="800" fill="#000000">2</text>
    <path d="M 641 633 Q 671 679 692 690 Q 708 708 695 725 Q 620 785 569 756 Q 497 732 425 716 L 387 709 Q 377 709 369 707 C 339 703 355 667 384 675 Q 391 678 572 717 Q 594 723 603 714 Q 607 710 606 698 Q 599 667 590 640 C 581 611 624 608 641 633 Z" class="stroke3"/>
    <text x="374" y="703" transform="translate(374,703) scale(1,-1) translate(-374,-703)" font-family="Helvetica" font-size="72" font-weight="800" fill="#000000">3</text>
    <path d="M 381 564 Q 385 564 392 565 Q 473 584 649 604 Q 659 605 660 613 Q 660 620 641 633 L 590 640 Q 589 640 588 640 Q 474 612 381 596 C 351 591 351 562 381 564 Z" class="stroke4"/>
    <text x="386" y="569" transform="translate(386,569) scale(1,-1) translate(-386,-569)" font-family="Helvetica" font-size="72" font-weight="800" fill="#000000">4</text>
    <path d="M 668 422 Q 690 467 714 480 Q 730 498 717 515 Q 647 573 596 548 Q 511 515 382 495 C 352 490 352 458 382 463 Q 391 463 591 505 Q 613 511 622 502 Q 629 496 627 484 Q 621 453 614 426 C 607 397 654 395 668 422 Z" class="stroke5"/>
    <text x="383" y="468" transform="translate(383,468) scale(1,-1) translate(-383,-468)" font-family="Helvetica" font-size="72" font-weight="800" fill="#000000">5</text>
    <path d="M 517 372 Q 587 381 683 386 Q 693 387 695 396 Q 695 403 668 422 C 652 433 643 432 614 426 Q 485 401 380 388 C 350 384 343 351 373 353 Q 377 353 387 354 Q 417 361 459 365 L 517 372 Z" class="stroke6"/>
    <text x="380" y="358" transform="translate(380,358) scale(1,-1) translate(-380,-358)" font-family="Helvetica" font-size="72" font-weight="800" fill="#000000">6</text>
    <path d="M 542 243 Q 773 264 902 250 Q 935 250 940 255 Q 947 268 936 280 Q 869 344 802 322 Q 738 310 672 299 Q 597 292 544 285 L 478 277 Q 348 265 282 256 Q 209 246 98 244 Q 85 244 83 233 Q 82 220 101 206 Q 117 193 149 181 Q 159 177 177 185 Q 195 192 273 205 Q 366 227 479 237 L 542 243 Z" class="stroke7"/>
    <text x="96" y="231" transform="translate(96,231) scale(1,-1) translate(-96,-231)" font-family="Helvetica" font-size="72" font-weight="800" fill="#000000">7</text>
    <path d="M 482 -37 Q 486 -62 494 -73 Q 500 -80 507 -78 Q 537 -60 537 85 Q 536 121 542 243 L 544 285 Q 545 297 547 304 Q 550 317 552 329 Q 556 347 541 357 Q 528 367 517 372 C 491 386 446 392 459 365 Q 460 364 462 360 Q 477 327 478 277 L 479 237 Q 479 -18 482 -37 Z" class="stroke8"/>
    <text x="471" y="357" transform="translate(471,357) scale(1,-1) translate(-471,-357)" font-family="Helvetica" font-size="72" font-weight="800" fill="#000000">8</text>
</g>
</svg>