<svg version="1.1" viewBox="0 0 1024 1024" xmlns="http://www.w3.org/2000/svg">
  <rect width="1024" height="1024" fill="white"/>
  <rect width="1024" height="1024" fill="none" stroke="black" stroke-width="4"/>
  <g stroke="black" stroke-dasharray="4,4" stroke-width="1" transform="scale(4, 4)">
    <line x1="0" y1="0" x2="256" y2="256"/>
    <line x1="256" y1="0" x2="0" y2="256"/>
    <line x1="128" y1="0" x2="128" y2="256"/>
    <line x1="0" y1="128" x2="256" y2="128"/>
  </g>
  <g transform="scale(1, -1) translate(0, -900)">
    <style type="text/css">
        .stroke1 {fill: #808080;}
        .stroke2 {fill: #808080;}
        .stroke3 {fill: #808080;}
        .stroke4 {fill: #808080;}
        .stroke5 {fill: #808080;}
        .stroke6 {fill: #808080;}
        .stroke7 {fill: #808080;}
        .stroke8 {fill: #808080;}
        .stroke9 {fill: #808080;}
        .stroke10 {fill: #808080;}
        .stroke11 {fill: #808080;}
        .stroke12 {fill: #808080;}
        .stroke13 {fill: #808080;}
        .stroke14 {fill: #808080;}
        .stroke15 {fill: #808080;}
        .stroke16 {fill: #808080;}
        .stroke17 {fill: #808080;}
        .stroke18 {fill: #808080;}
        .stroke19 {fill: #808080;}
        .stroke20 {fill: #808080;}
        
    </style>

    <path d="M 306 551 Q 340 605 379 667 Q 412 730 442 760 Q 452 773 447 789 Q 443 805 408 831 Q 377 853 354 852 Q 332 851 341 824 Q 360 784 344 748 Q 298 631 225 523 Q 155 420 60 305 Q 48 292 45 285 Q 41 272 58 275 Q 112 287 277 510 L 306 551 Z" class="stroke1"/>
    <text x="354" y="835" transform="translate(354,835) scale(1,-1) translate(-354,-835)" font-family="Helvetica" font-size="72" font-weight="800" fill="#000000">1</text>
    <path d="M 346 138 Q 346 396 356 458 Q 365 488 340 514 Q 310 548 306 551 C 285 573 264 537 277 510 Q 278 504 283 498 Q 301 461 303 424 Q 303 378 302 332 Q 302 205 269 75 Q 263 53 273 16 Q 286 -23 298 -35 Q 319 -53 331 -23 Q 344 19 346 107 L 346 138 Z" class="stroke2"/>
    <text x="304" y="545" transform="translate(304,545) scale(1,-1) translate(-304,-545)" font-family="Helvetica" font-size="72" font-weight="800" fill="#000000">2</text>
    <path d="M 566 754 Q 593 732 621 707 Q 637 694 655 695 Q 668 696 672 712 Q 676 730 664 763 Q 657 782 624 794 Q 548 815 532 807 Q 526 803 529 788 Q 533 775 566 754 Z" class="stroke3"/>
    <text x="538" y="799" transform="translate(538,799) scale(1,-1) translate(-538,-799)" font-family="Helvetica" font-size="72" font-weight="800" fill="#000000">3</text>
    <path d="M 606 566 Q 667 579 735 591 Q 787 601 794 609 Q 803 616 799 624 Q 792 636 764 644 Q 737 650 616 613 Q 475 589 430 584 Q 394 578 419 562 Q 453 538 557 557 L 606 566 Z" class="stroke4"/>
    <text x="422" y="574" transform="translate(422,574) scale(1,-1) translate(-422,-574)" font-family="Helvetica" font-size="72" font-weight="800" fill="#000000">4</text>
    <path d="M 632 411 Q 675 421 725 429 Q 768 439 774 445 Q 783 452 779 460 Q 772 472 744 479 Q 723 485 633 458 L 576 444 Q 521 434 457 428 Q 423 422 447 406 Q 481 385 557 397 Q 564 398 576 400 L 632 411 Z" class="stroke5"/>
    <text x="450" y="418" transform="translate(450,418) scale(1,-1) translate(-450,-418)" font-family="Helvetica" font-size="72" font-weight="800" fill="#000000">5</text>
    <path d="M 628 280 Q 779 311 786 317 Q 795 324 791 332 Q 784 344 756 352 Q 732 358 629 326 L 576 313 Q 518 303 450 296 Q 414 290 439 274 Q 473 253 547 265 Q 559 268 576 270 L 628 280 Z" class="stroke6"/>
    <text x="442" y="286" transform="translate(442,286) scale(1,-1) translate(-442,-286)" font-family="Helvetica" font-size="72" font-weight="800" fill="#000000">6</text>
    <path d="M 625 171 Q 626 228 628 280 L 629 326 Q 630 371 632 411 L 633 458 Q 633 485 636 512 Q 645 539 606 566 C 582 584 547 585 557 557 Q 572 521 576 444 L 576 400 Q 576 364 576 313 L 576 270 Q 576 224 576 165 C 576 135 624 141 625 171 Z" class="stroke7"/>
    <text x="564" y="554" transform="translate(564,554) scale(1,-1) translate(-564,-554)" font-family="Helvetica" font-size="72" font-weight="800" fill="#000000">7</text>
    <path d="M 576 165 Q 470 153 346 138 C 316 134 319 119 346 107 Q 373 92 400 98 Q 553 137 848 137 Q 864 137 882 136 Q 901 136 907 144 Q 911 156 896 170 Q 836 215 787 198 Q 721 188 625 171 L 576 165 Z" class="stroke8"/>
    <text x="355" y="130" transform="translate(355,130) scale(1,-1) translate(-355,-130)" font-family="Helvetica" font-size="72" font-weight="800" fill="#000000">8</text>
</g>
</svg>