<svg version="1.1" viewBox="0 0 1024 1024" xmlns="http://www.w3.org/2000/svg">
  <rect width="1024" height="1024" fill="white"/>
  <rect width="1024" height="1024" fill="none" stroke="black" stroke-width="4"/>
  <g stroke="black" stroke-dasharray="4,4" stroke-width="1" transform="scale(4, 4)">
    <line x1="0" y1="0" x2="256" y2="256"/>
    <line x1="256" y1="0" x2="0" y2="256"/>
    <line x1="128" y1="0" x2="128" y2="256"/>
    <line x1="0" y1="128" x2="256" y2="128"/>
  </g>
  <g transform="scale(1, -1) translate(0, -900)">
    <style type="text/css">
        .stroke1 {fill: #808080;}
        .stroke2 {fill: #808080;}
        .stroke3 {fill: #808080;}
        .stroke4 {fill: #808080;}
        .stroke5 {fill: #808080;}
        .stroke6 {fill: #808080;}
        .stroke7 {fill: #808080;}
        .stroke8 {fill: #808080;}
        .stroke9 {fill: #808080;}
        .stroke10 {fill: #808080;}
        .stroke11 {fill: #808080;}
        .stroke12 {fill: #808080;}
        .stroke13 {fill: #808080;}
        .stroke14 {fill: #808080;}
        .stroke15 {fill: #808080;}
        .stroke16 {fill: #808080;}
        .stroke17 {fill: #808080;}
        .stroke18 {fill: #808080;}
        .stroke19 {fill: #808080;}
        .stroke20 {fill: #808080;}
        
    </style>

    <path d="M 502 676 Q 587 689 679 701 Q 743 711 753 719 Q 763 726 758 736 Q 752 749 723 758 Q 692 767 661 756 Q 588 737 509 722 Q 422 709 321 705 Q 284 701 308 682 Q 350 655 424 667 Q 440 670 458 670 L 502 676 Z" class="stroke1"/>
    <text x="312" y="695" transform="translate(312,695) scale(1,-1) translate(-312,-695)" font-family="Helvetica" font-size="72" font-weight="800" fill="#000000">1</text>
    <path d="M 219 488 Q 191 512 164 517 Q 158 520 153 513 Q 149 506 153 492 Q 184 438 187 392 Q 196 284 185 165 Q 181 140 192 118 Q 205 97 224 84 Q 239 75 241 87 Q 248 91 250 115 Q 256 142 246 231 Q 234 390 234 450 C 234 476 234 476 219 488 Z" class="stroke2"/>
    <text x="162" y="506" transform="translate(162,506) scale(1,-1) translate(-162,-506)" font-family="Helvetica" font-size="72" font-weight="800" fill="#000000">2</text>
    <path d="M 529 507 Q 559 514 789 532 Q 808 533 814 524 Q 824 517 822 466 Q 816 258 783 141 Q 773 105 742 111 Q 703 120 668 127 Q 655 131 654 125 Q 653 118 664 107 Q 740 49 761 17 Q 771 -1 784 2 Q 800 3 815 33 Q 843 76 852 129 Q 868 199 882 446 Q 885 491 899 515 Q 917 537 903 542 Q 887 558 849 576 Q 825 592 799 581 Q 763 571 672 560 Q 596 553 530 543 L 485 536 Q 430 529 386 519 Q 301 501 219 488 C 189 483 206 440 234 450 Q 255 468 486 500 L 529 507 Z" class="stroke3"/>
    <text x="232" y="457" transform="translate(232,457) scale(1,-1) translate(-232,-457)" font-family="Helvetica" font-size="72" font-weight="800" fill="#000000">3</text>
    <path d="M 530 543 Q 531 589 541 623 Q 548 636 546 646 Q 540 653 502 676 C 476 692 443 696 458 670 Q 458 669 460 665 Q 482 635 483 604 Q 484 573 485 536 L 486 500 Q 486 281 474 230 Q 459 203 485 142 Q 491 127 497 125 Q 503 119 508 126 Q 515 130 523 147 Q 530 166 530 193 Q 529 224 529 507 L 530 543 Z" class="stroke4"/>
    <text x="465" y="670" transform="translate(465,670) scale(1,-1) translate(-465,-670)" font-family="Helvetica" font-size="72" font-weight="800" fill="#000000">4</text>
    <path d="M 327 380 Q 378 347 405 341 Q 415 341 420 352 Q 423 362 418 373 Q 399 409 331 409 L 330 409 Q 317 410 312 406 Q 308 405 311 396 Q 314 389 327 380 Z" class="stroke5"/>
    <text x="318" y="400" transform="translate(318,400) scale(1,-1) translate(-318,-400)" font-family="Helvetica" font-size="72" font-weight="800" fill="#000000">5</text>
    <path d="M 319 246 Q 370 206 395 201 Q 407 201 412 212 Q 415 222 411 235 Q 404 253 388 260 Q 369 270 324 277 Q 311 278 304 275 Q 300 274 303 264 Q 306 255 319 246 Z" class="stroke6"/>
    <text x="310" y="269" transform="translate(310,269) scale(1,-1) translate(-310,-269)" font-family="Helvetica" font-size="72" font-weight="800" fill="#000000">6</text>
    <path d="M 611 413 Q 669 383 697 382 Q 709 383 712 395 Q 713 407 707 418 Q 689 445 632 445 Q 598 445 591 439 Q 587 436 592 428 Q 596 419 611 413 Z" class="stroke7"/>
    <text x="598" y="434" transform="translate(598,434) scale(1,-1) translate(-598,-434)" font-family="Helvetica" font-size="72" font-weight="800" fill="#000000">7</text>
    <path d="M 609 269 Q 658 233 686 228 Q 699 228 704 240 Q 707 252 702 264 Q 684 297 633 300 Q 600 304 592 299 Q 588 298 591 287 Q 594 278 609 269 Z" class="stroke8"/>
    <text x="598" y="292" transform="translate(598,292) scale(1,-1) translate(-598,-292)" font-family="Helvetica" font-size="72" font-weight="800" fill="#000000">8</text>
</g>
</svg>