<svg version="1.1" viewBox="0 0 1024 1024" xmlns="http://www.w3.org/2000/svg">
  <rect width="1024" height="1024" fill="white"/>
  <rect width="1024" height="1024" fill="none" stroke="black" stroke-width="4"/>
  <g stroke="black" stroke-dasharray="4,4" stroke-width="1" transform="scale(4, 4)">
    <line x1="0" y1="0" x2="256" y2="256"/>
    <line x1="256" y1="0" x2="0" y2="256"/>
    <line x1="128" y1="0" x2="128" y2="256"/>
    <line x1="0" y1="128" x2="256" y2="128"/>
  </g>
  <g transform="scale(1, -1) translate(0, -900)">
    <style type="text/css">
        .stroke1 {fill: #808080;}
        .stroke2 {fill: #808080;}
        .stroke3 {fill: #808080;}
        .stroke4 {fill: #808080;}
        .stroke5 {fill: #808080;}
        .stroke6 {fill: #808080;}
        .stroke7 {fill: #808080;}
        .stroke8 {fill: #808080;}
        .stroke9 {fill: #808080;}
        .stroke10 {fill: #808080;}
        .stroke11 {fill: #808080;}
        .stroke12 {fill: #808080;}
        .stroke13 {fill: #808080;}
        .stroke14 {fill: #808080;}
        .stroke15 {fill: #808080;}
        .stroke16 {fill: #808080;}
        .stroke17 {fill: #808080;}
        .stroke18 {fill: #808080;}
        .stroke19 {fill: #808080;}
        .stroke20 {fill: #808080;}
        
    </style>

    <path d="M 539 701 Q 701 734 706 737 Q 715 744 710 752 Q 704 764 676 772 Q 648 779 618 769 Q 581 759 543 748 L 481 735 Q 415 725 343 719 Q 307 715 332 698 Q 368 671 425 683 Q 453 687 484 692 L 539 701 Z" class="stroke1"/>
    <text x="334" y="710" transform="translate(334,710) scale(1,-1) translate(-334,-710)" font-family="Helvetica" font-size="72" font-weight="800" fill="#000000">1</text>
    <path d="M 533 593 Q 567 602 672 614 Q 681 613 689 624 Q 690 634 670 644 Q 642 665 540 633 Q 537 633 535 632 L 486 621 Q 441 615 348 602 Q 323 598 342 583 Q 373 562 408 569 Q 442 578 487 584 L 533 593 Z" class="stroke2"/>
    <text x="344" y="593" transform="translate(344,593) scale(1,-1) translate(-344,-593)" font-family="Helvetica" font-size="72" font-weight="800" fill="#000000">2</text>
    <path d="M 528 506 Q 531 551 533 593 L 535 632 Q 536 668 539 701 L 543 748 Q 544 763 547 773 Q 551 789 554 800 Q 558 810 538 825 Q 504 843 480 847 Q 464 850 456 841 Q 449 834 457 819 Q 478 791 479 772 Q 480 754 481 735 L 484 692 Q 485 658 486 621 L 487 584 Q 487 544 487 500 C 487 470 526 476 528 506 Z" class="stroke3"/>
    <text x="469" y="831" transform="translate(469,831) scale(1,-1) translate(-469,-831)" font-family="Helvetica" font-size="72" font-weight="800" fill="#000000">3</text>
    <path d="M 487 500 Q 367 487 306 475 Q 236 462 129 458 Q 116 458 115 447 Q 115 435 133 421 Q 178 394 209 405 Q 240 418 402 449 Q 456 459 517 466 Q 572 472 624 479 Q 780 500 911 488 Q 933 487 940 495 Q 947 508 935 519 Q 869 576 806 554 Q 745 541 681 529 Q 587 516 528 506 L 487 500 Z" class="stroke4"/>
    <text x="127" y="446" transform="translate(127,446) scale(1,-1) translate(-127,-446)" font-family="Helvetica" font-size="72" font-weight="800" fill="#000000">4</text>
    <path d="M 391 177 Q 392 217 397 247 L 400 274 Q 404 328 408 346 Q 408 350 408 353 C 410 370 410 370 396 381 Q 378 399 347 399 Q 334 395 339 383 Q 381 289 330 109 Q 297 40 328 -2 Q 334 -15 344 -10 Q 377 11 387 121 Q 388 137 389 151 L 391 177 Z" class="stroke5"/>
    <text x="348" y="388" transform="translate(348,388) scale(1,-1) translate(-348,-388)" font-family="Helvetica" font-size="72" font-weight="800" fill="#000000">5</text>
    <path d="M 408 353 Q 420 354 437 359 Q 570 387 592 377 Q 605 373 609 346 Q 625 184 620 58 Q 619 33 605 27 Q 593 23 534 38 Q 521 41 522 32 Q 523 25 539 15 Q 576 -16 605 -50 Q 621 -66 638 -65 Q 654 -61 672 -15 Q 696 31 691 79 Q 681 193 670 296 Q 666 338 682 371 Q 695 387 679 402 Q 660 418 620 431 Q 598 441 579 429 Q 560 422 525 410 Q 438 389 396 381 C 367 375 379 347 408 353 Z" class="stroke6"/>
    <text x="402" y="375" transform="translate(402,375) scale(1,-1) translate(-402,-375)" font-family="Helvetica" font-size="72" font-weight="800" fill="#000000">6</text>
    <path d="M 397 247 Q 418 241 541 261 Q 542 262 547 262 Q 568 266 571 269 Q 578 276 574 283 Q 568 292 545 298 Q 532 301 448 281 Q 426 277 400 274 C 370 270 367 252 397 247 Z" class="stroke7"/>
    <text x="401" y="253" transform="translate(401,253) scale(1,-1) translate(-401,-253)" font-family="Helvetica" font-size="72" font-weight="800" fill="#000000">7</text>
    <path d="M 389 151 Q 419 147 505 155 Q 527 159 551 162 Q 575 166 578 169 Q 585 176 582 182 Q 576 192 553 199 Q 529 205 505 196 Q 480 189 451 184 Q 423 180 391 177 C 361 174 359 154 389 151 Z" class="stroke8"/>
    <text x="394" y="157" transform="translate(394,157) scale(1,-1) translate(-394,-157)" font-family="Helvetica" font-size="72" font-weight="800" fill="#000000">8</text>
</g>
</svg>