<svg version="1.1" viewBox="0 0 1024 1024" xmlns="http://www.w3.org/2000/svg">
  <rect width="1024" height="1024" fill="white"/>
  <rect width="1024" height="1024" fill="none" stroke="black" stroke-width="4"/>
  <g stroke="black" stroke-dasharray="4,4" stroke-width="1" transform="scale(4, 4)">
    <line x1="0" y1="0" x2="256" y2="256"/>
    <line x1="256" y1="0" x2="0" y2="256"/>
    <line x1="128" y1="0" x2="128" y2="256"/>
    <line x1="0" y1="128" x2="256" y2="128"/>
  </g>
  <g transform="scale(1, -1) translate(0, -900)">
    <style type="text/css">
        .stroke1 {fill: #808080;}
        .stroke2 {fill: #808080;}
        .stroke3 {fill: #808080;}
        .stroke4 {fill: #808080;}
        .stroke5 {fill: #808080;}
        .stroke6 {fill: #808080;}
        .stroke7 {fill: #808080;}
        .stroke8 {fill: #808080;}
        .stroke9 {fill: #808080;}
        .stroke10 {fill: #808080;}
        .stroke11 {fill: #808080;}
        .stroke12 {fill: #808080;}
        .stroke13 {fill: #808080;}
        .stroke14 {fill: #808080;}
        .stroke15 {fill: #808080;}
        .stroke16 {fill: #808080;}
        .stroke17 {fill: #808080;}
        .stroke18 {fill: #808080;}
        .stroke19 {fill: #808080;}
        .stroke20 {fill: #808080;}
        
    </style>

    <path d="M 483 693 Q 579 708 678 722 Q 742 734 753 742 Q 763 749 759 759 Q 752 772 721 782 Q 688 791 595 763 Q 444 730 309 723 Q 269 719 296 699 Q 339 672 415 684 Q 428 687 445 687 L 483 693 Z" class="stroke1"/>
    <text x="300" y="713" transform="translate(300,713) scale(1,-1) translate(-300,-713)" font-family="Helvetica" font-size="72" font-weight="800" fill="#000000">1</text>
    <path d="M 418 526 Q 443 556 471 592 Q 484 608 506 630 Q 522 640 515 651 Q 508 670 483 693 C 461 714 445 717 445 687 Q 448 648 379 531 Q 375 524 371 517 C 356 491 399 503 418 526 Z" class="stroke2"/>
    <text x="452" y="683" transform="translate(452,683) scale(1,-1) translate(-452,-683)" font-family="Helvetica" font-size="72" font-weight="800" fill="#000000">2</text>
    <path d="M 199 487 Q 180 497 161 503 Q 152 506 147 500 Q 137 493 148 480 Q 200 389 205 159 Q 206 84 249 52 L 251 51 Q 270 45 273 79 L 272 117 Q 271 139 264 163 Q 243 404 242 438 Q 242 442 241 447 C 239 467 226 474 199 487 Z" class="stroke3"/>
    <text x="154" y="490" transform="translate(154,490) scale(1,-1) translate(-154,-490)" font-family="Helvetica" font-size="72" font-weight="800" fill="#000000">3</text>
    <path d="M 730 106 Q 734 100 736 94 Q 746 60 761 45 Q 771 35 780 36 Q 792 37 803 59 Q 839 117 860 368 Q 864 431 883 472 Q 895 488 891 497 Q 891 513 849 548 Q 797 591 760 576 Q 757 576 754 574 Q 732 570 661 561 Q 502 543 418 526 L 371 517 Q 334 513 305 505 Q 235 493 199 487 C 169 482 212 438 241 447 Q 241 448 243 448 Q 295 466 363 478 L 395 485 Q 447 497 558 510 L 599 515 Q 675 525 746 528 Q 771 529 781 515 Q 797 502 798 472 Q 804 397 782 261 Q 769 153 761 139 Q 760 135 753 132 Q 749 132 743 133 C 725 117 725 117 730 106 Z" class="stroke4"/>
    <text x="205" y="483" transform="translate(205,483) scale(1,-1) translate(-205,-483)" font-family="Helvetica" font-size="72" font-weight="800" fill="#000000">4</text>
    <path d="M 432 126 Q 432 181 432 230 L 432 259 Q 432 310 432 354 L 432 384 Q 432 457 431 459 L 430 460 Q 412 476 395 485 C 369 500 351 506 363 478 Q 363 475 376 452 Q 383 434 392 123 C 393 93 432 96 432 126 Z" class="stroke5"/>
    <text x="369" y="476" transform="translate(369,476) scale(1,-1) translate(-369,-476)" font-family="Helvetica" font-size="72" font-weight="800" fill="#000000">5</text>
    <path d="M 613 148 Q 620 311 625 435 Q 626 454 627 467 Q 634 483 625 493 Q 612 506 599 515 C 575 533 548 538 558 510 Q 573 477 575 379 Q 574 304 572 142 C 572 112 612 118 613 148 Z" class="stroke6"/>
    <text x="565" y="508" transform="translate(565,508) scale(1,-1) translate(-565,-508)" font-family="Helvetica" font-size="72" font-weight="800" fill="#000000">6</text>
    <path d="M 432 354 Q 487 364 529 372 Q 551 378 542 389 Q 530 402 506 404 Q 463 407 432 384 C 408 367 402 349 432 354 Z" class="stroke7"/>
    <text x="439" y="362" transform="translate(439,362) scale(1,-1) translate(-439,-362)" font-family="Helvetica" font-size="72" font-weight="800" fill="#000000">7</text>
    <path d="M 432 230 Q 489 239 529 248 Q 551 254 542 265 Q 530 278 506 280 Q 464 283 432 259 C 408 241 402 225 432 230 Z" class="stroke8"/>
    <text x="439" y="237" transform="translate(439,237) scale(1,-1) translate(-439,-237)" font-family="Helvetica" font-size="72" font-weight="800" fill="#000000">8</text>
    <path d="M 273 79 Q 283 78 297 78 Q 435 100 730 106 C 760 107 765 113 743 133 Q 734 142 722 151 Q 704 164 613 148 L 572 142 Q 499 135 432 126 L 392 123 Q 328 122 272 117 C 242 114 243 81 273 79 Z" class="stroke9"/>
    <text x="279" y="85" transform="translate(279,85) scale(1,-1) translate(-279,-85)" font-family="Helvetica" font-size="72" font-weight="800" fill="#000000">9</text>
</g>
</svg>