<svg version="1.1" viewBox="0 0 1024 1024" xmlns="http://www.w3.org/2000/svg">
  <rect width="1024" height="1024" fill="white"/>
  <rect width="1024" height="1024" fill="none" stroke="black" stroke-width="4"/>
  <g stroke="black" stroke-dasharray="4,4" stroke-width="1" transform="scale(4, 4)">
    <line x1="0" y1="0" x2="256" y2="256"/>
    <line x1="256" y1="0" x2="0" y2="256"/>
    <line x1="128" y1="0" x2="128" y2="256"/>
    <line x1="0" y1="128" x2="256" y2="128"/>
  </g>
  <g transform="scale(1, -1) translate(0, -900)">
    <style type="text/css">
        .stroke1 {fill: #808080;}
        .stroke2 {fill: #808080;}
        .stroke3 {fill: #808080;}
        .stroke4 {fill: #808080;}
        .stroke5 {fill: #808080;}
        .stroke6 {fill: #808080;}
        .stroke7 {fill: #808080;}
        .stroke8 {fill: #808080;}
        .stroke9 {fill: #808080;}
        .stroke10 {fill: #808080;}
        .stroke11 {fill: #808080;}
        .stroke12 {fill: #808080;}
        .stroke13 {fill: #808080;}
        .stroke14 {fill: #808080;}
        .stroke15 {fill: #808080;}
        .stroke16 {fill: #808080;}
        .stroke17 {fill: #808080;}
        .stroke18 {fill: #808080;}
        .stroke19 {fill: #808080;}
        .stroke20 {fill: #808080;}
        
    </style>

    <path d="M 421 81 Q 433 108 434 203 Q 428 570 445 636 Q 452 649 450 662 Q 443 671 392 701 Q 370 716 352 701 Q 348 697 354 683 Q 378 649 380 613 Q 380 597 381 579 L 383 534 Q 383 483 385 431 L 385 394 Q 385 345 385 290 L 384 264 Q 381 221 371 180 Q 365 155 389 79 C 398 50 413 52 421 81 Z" class="stroke1"/>
    <text x="363" y="695" transform="translate(363,695) scale(1,-1) translate(-363,-695)" font-family="Helvetica" font-size="72" font-weight="800" fill="#000000">1</text>
    <path d="M 381 579 Q 353 585 325 573 Q 300 564 270 557 Q 239 551 201 548 Q 165 542 191 526 Q 224 505 298 519 Q 338 528 383 534 C 413 538 411 574 381 579 Z" class="stroke2"/>
    <text x="193" y="538" transform="translate(193,538) scale(1,-1) translate(-193,-538)" font-family="Helvetica" font-size="72" font-weight="800" fill="#000000">2</text>
    <path d="M 385 431 Q 363 443 281 420 Q 277 420 272 418 Q 248 414 221 412 Q 185 406 211 390 Q 244 372 320 383 Q 350 389 382 394 Q 383 395 385 394 C 415 396 413 420 385 431 Z" class="stroke3"/>
    <text x="213" y="402" transform="translate(213,402) scale(1,-1) translate(-213,-402)" font-family="Helvetica" font-size="72" font-weight="800" fill="#000000">3</text>
    <path d="M 385 290 Q 301 271 201 248 Q 188 244 163 246 Q 151 245 149 236 Q 148 224 155 216 Q 176 201 205 183 Q 214 179 225 187 Q 243 202 384 264 C 411 276 414 297 385 290 Z" class="stroke4"/>
    <text x="162" y="233" transform="translate(162,233) scale(1,-1) translate(-162,-233)" font-family="Helvetica" font-size="72" font-weight="800" fill="#000000">4</text>
    <path d="M 603 96 Q 615 139 616 212 Q 616 227 616 245 L 616 276 Q 617 333 618 414 L 619 439 Q 619 496 621 562 L 622 590 Q 623 654 637 697 Q 644 710 642 724 Q 636 733 583 765 Q 561 781 542 766 Q 538 762 543 747 Q 568 710 570 670 Q 571 613 573 549 Q 572 437 570 314 Q 567 253 551 196 Q 542 169 568 93 C 577 64 596 67 603 96 Z" class="stroke5"/>
    <text x="553" y="759" transform="translate(553,759) scale(1,-1) translate(-553,-759)" font-family="Helvetica" font-size="72" font-weight="800" fill="#000000">5</text>
    <path d="M 621 562 Q 654 552 741 566 Q 763 572 788 576 Q 804 580 808 583 Q 817 592 812 600 Q 805 612 774 618 Q 743 622 713 609 Q 694 603 672 598 Q 648 594 622 590 C 592 585 592 569 621 562 Z" class="stroke6"/>
    <text x="627" y="569" transform="translate(627,569) scale(1,-1) translate(-627,-569)" font-family="Helvetica" font-size="72" font-weight="800" fill="#000000">6</text>
    <path d="M 618 414 Q 658 396 705 407 Q 742 413 782 419 Q 800 422 803 425 Q 812 432 807 440 Q 800 452 772 459 Q 744 466 714 454 Q 678 445 621 440 Q 620 440 619 439 C 590 433 590 426 618 414 Z" class="stroke7"/>
    <text x="623" y="433" transform="translate(623,433) scale(1,-1) translate(-623,-433)" font-family="Helvetica" font-size="72" font-weight="800" fill="#000000">7</text>
    <path d="M 616 245 Q 634 242 697 252 Q 739 267 830 267 Q 836 268 844 267 Q 857 266 862 276 Q 866 286 852 298 Q 812 332 728 305 Q 679 292 616 276 C 587 269 586 247 616 245 Z" class="stroke8"/>
    <text x="620" y="253" transform="translate(620,253) scale(1,-1) translate(-620,-253)" font-family="Helvetica" font-size="72" font-weight="800" fill="#000000">8</text>
    <path d="M 493 40 Q 544 41 592 46 Q 730 58 858 38 Q 883 35 889 44 Q 896 57 885 70 Q 816 136 759 118 Q 675 105 603 96 L 568 93 Q 471 90 421 81 L 389 79 Q 325 75 286 69 Q 220 62 122 62 Q 107 63 106 51 Q 105 38 124 23 Q 166 -8 213 2 Q 258 14 386 30 Q 435 37 493 40 Z" class="stroke9"/>
    <text x="118" y="50" transform="translate(118,50) scale(1,-1) translate(-118,-50)" font-family="Helvetica" font-size="72" font-weight="800" fill="#000000">9</text>
</g>
</svg>