<svg version="1.1" viewBox="0 0 1024 1024" xmlns="http://www.w3.org/2000/svg">
  <rect width="1024" height="1024" fill="white"/>
  <rect width="1024" height="1024" fill="none" stroke="black" stroke-width="4"/>
  <g stroke="black" stroke-dasharray="4,4" stroke-width="1" transform="scale(4, 4)">
    <line x1="0" y1="0" x2="256" y2="256"/>
    <line x1="256" y1="0" x2="0" y2="256"/>
    <line x1="128" y1="0" x2="128" y2="256"/>
    <line x1="0" y1="128" x2="256" y2="128"/>
  </g>
  <g transform="scale(1, -1) translate(0, -900)">
    <style type="text/css">
        .stroke1 {fill: #808080;}
        .stroke2 {fill: #808080;}
        .stroke3 {fill: #808080;}
        .stroke4 {fill: #808080;}
        .stroke5 {fill: #808080;}
        .stroke6 {fill: #808080;}
        .stroke7 {fill: #808080;}
        .stroke8 {fill: #808080;}
        .stroke9 {fill: #808080;}
        .stroke10 {fill: #808080;}
        .stroke11 {fill: #808080;}
        .stroke12 {fill: #808080;}
        .stroke13 {fill: #808080;}
        .stroke14 {fill: #808080;}
        .stroke15 {fill: #808080;}
        .stroke16 {fill: #808080;}
        .stroke17 {fill: #808080;}
        .stroke18 {fill: #808080;}
        .stroke19 {fill: #808080;}
        .stroke20 {fill: #808080;}
        
    </style>

    <path d="M 486 755 Q 501 764 639 768 Q 673 769 877 770 Q 898 770 903 779 Q 909 791 892 805 Q 828 856 786 835 Q 591 802 209 759 Q 187 758 203 739 Q 218 724 236 719 Q 258 712 275 717 Q 354 739 445 750 L 486 755 Z" class="stroke1"/>
    <text x="206" y="749" transform="translate(206,749) scale(1,-1) translate(-206,-749)" font-family="Helvetica" font-size="72" font-weight="800" fill="#000000">1</text>
    <path d="M 431 603 Q 450 625 464 641 Q 516 704 526 710 Q 542 725 528 737 Q 512 749 486 755 C 457 762 441 766 445 750 Q 444 747 448 741 Q 457 717 403 600 C 390 573 411 580 431 603 Z" class="stroke2"/>
    <text x="452" y="747" transform="translate(452,747) scale(1,-1) translate(-452,-747)" font-family="Helvetica" font-size="72" font-weight="800" fill="#000000">2</text>
    <path d="M 358 597 Q 349 604 337 608 Q 327 612 315 608 Q 308 604 313 590 Q 346 497 329 317 Q 314 230 331 198 Q 337 188 345 177 Q 355 164 367 177 Q 376 190 378 205 L 381 240 Q 381 250 382 330 L 382 356 Q 382 411 383 450 L 383 476 Q 384 537 385 544 Q 386 557 386 566 C 386 580 384 581 358 597 Z" class="stroke3"/>
    <text x="323" y="599" transform="translate(323,599) scale(1,-1) translate(-323,-599)" font-family="Helvetica" font-size="72" font-weight="800" fill="#000000">3</text>
    <path d="M 662 230 Q 663 220 672 209 Q 688 176 698 178 Q 714 179 731 216 Q 747 244 746 268 Q 733 359 734 503 Q 733 545 756 580 Q 766 596 758 608 Q 728 633 677 656 Q 661 662 635 652 Q 560 622 431 603 L 403 600 Q 378 599 358 597 C 328 595 357 560 386 566 Q 390 566 394 567 Q 520 597 611 611 Q 642 617 653 600 Q 669 579 670 506 Q 674 299 664 259 Q 663 258 663 256 L 662 230 Z" class="stroke4"/>
    <text x="365" y="594" transform="translate(365,594) scale(1,-1) translate(-365,-594)" font-family="Helvetica" font-size="72" font-weight="800" fill="#000000">4</text>
    <path d="M 383 450 Q 393 447 410 449 Q 522 468 605 479 Q 630 482 621 496 Q 611 512 583 517 Q 562 520 383 476 C 354 469 354 456 383 450 Z" class="stroke5"/>
    <text x="390" y="457" transform="translate(390,457) scale(1,-1) translate(-390,-457)" font-family="Helvetica" font-size="72" font-weight="800" fill="#000000">5</text>
    <path d="M 382 330 Q 392 327 410 329 Q 525 345 609 355 Q 634 358 625 372 Q 615 388 588 393 Q 563 397 519 387 Q 446 371 382 356 C 353 349 353 336 382 330 Z" class="stroke6"/>
    <text x="389" y="337" transform="translate(389,337) scale(1,-1) translate(-389,-337)" font-family="Helvetica" font-size="72" font-weight="800" fill="#000000">6</text>
    <path d="M 378 205 Q 468 220 662 230 C 692 232 686 237 663 256 Q 656 262 646 269 Q 630 279 600 273 Q 479 251 381 240 C 351 237 348 200 378 205 Z" class="stroke7"/>
    <text x="382" y="210" transform="translate(382,210) scale(1,-1) translate(-382,-210)" font-family="Helvetica" font-size="72" font-weight="800" fill="#000000">7</text>
    <path d="M 399 159 Q 384 89 199 -39 Q 174 -54 204 -52 Q 276 -55 419 63 Q 420 69 476 113 Q 489 125 487 136 Q 486 151 457 162 Q 426 177 412 174 Q 403 173 399 159 Z" class="stroke8"/>
    <text x="467" y="133" transform="translate(467,133) scale(1,-1) translate(-467,-133)" font-family="Helvetica" font-size="72" font-weight="800" fill="#000000">8</text>
    <path d="M 615 132 Q 672 65 738 -29 Q 754 -54 770 -61 Q 780 -64 789 -53 Q 805 -40 797 11 Q 793 77 621 167 Q 611 174 607 160 Q 604 145 615 132 Z" class="stroke9"/>
    <text x="619" y="153" transform="translate(619,153) scale(1,-1) translate(-619,-153)" font-family="Helvetica" font-size="72" font-weight="800" fill="#000000">9</text>
</g>
</svg>