<svg version="1.1" viewBox="0 0 1024 1024" xmlns="http://www.w3.org/2000/svg">
  <rect width="1024" height="1024" fill="white"/>
  <rect width="1024" height="1024" fill="none" stroke="black" stroke-width="4"/>
  <g stroke="black" stroke-dasharray="4,4" stroke-width="1" transform="scale(4, 4)">
    <line x1="0" y1="0" x2="256" y2="256"/>
    <line x1="256" y1="0" x2="0" y2="256"/>
    <line x1="128" y1="0" x2="128" y2="256"/>
    <line x1="0" y1="128" x2="256" y2="128"/>
  </g>
  <g transform="scale(1, -1) translate(0, -900)">
    <style type="text/css">
        .stroke1 {fill: #808080;}
        .stroke2 {fill: #808080;}
        .stroke3 {fill: #808080;}
        .stroke4 {fill: #808080;}
        .stroke5 {fill: #808080;}
        .stroke6 {fill: #808080;}
        .stroke7 {fill: #808080;}
        .stroke8 {fill: #808080;}
        .stroke9 {fill: #808080;}
        .stroke10 {fill: #808080;}
        .stroke11 {fill: #808080;}
        .stroke12 {fill: #808080;}
        .stroke13 {fill: #808080;}
        .stroke14 {fill: #808080;}
        .stroke15 {fill: #808080;}
        .stroke16 {fill: #808080;}
        .stroke17 {fill: #808080;}
        .stroke18 {fill: #808080;}
        .stroke19 {fill: #808080;}
        .stroke20 {fill: #808080;}
        
    </style>

    <path d="M 306 723 Q 306 724 305 724 Q 253 746 237 742 Q 216 738 235 715 Q 272 660 266 446 Q 265 358 226 253 Q 199 177 104 72 Q 89 57 85 48 Q 84 41 96 42 Q 141 46 215 137 Q 299 242 314 407 Q 324 509 319 660 Q 320 673 321 683 C 323 713 324 716 306 723 Z" class="stroke1"/>
    <text x="239" y="728" transform="translate(239,728) scale(1,-1) translate(-239,-728)" font-family="Helvetica" font-size="72" font-weight="800" fill="#000000">1</text>
    <path d="M 321 683 Q 325 686 333 688 Q 489 727 685 750 Q 704 751 714 744 Q 720 740 715 688 Q 657 292 795 120 Q 867 30 955 1 Q 976 -8 987 5 Q 994 14 992 34 Q 980 104 972 225 Q 972 240 965 245 Q 958 249 954 234 Q 929 144 917 129 Q 902 122 885 133 Q 833 158 795 244 Q 764 320 755 418 Q 748 518 773 648 Q 780 694 811 727 Q 830 740 819 754 Q 806 775 771 803 Q 750 818 691 797 Q 648 785 306 723 C 276 718 292 675 321 683 Z" class="stroke2"/>
    <text x="324" y="692" transform="translate(324,692) scale(1,-1) translate(-324,-692)" font-family="Helvetica" font-size="72" font-weight="800" fill="#000000">2</text>
    <path d="M 494 530 Q 570 569 596 573 Q 618 579 611 598 Q 602 617 580 636 Q 561 654 547 654 Q 535 655 536 641 Q 536 614 459 556 Q 420 528 377 497 Q 364 484 381 483 Q 424 499 457 512 L 494 530 Z" class="stroke3"/>
    <text x="545" y="644" transform="translate(545,644) scale(1,-1) translate(-545,-644)" font-family="Helvetica" font-size="72" font-weight="800" fill="#000000">3</text>
    <path d="M 376 399 Q 366 403 339 407 Q 329 410 326 405 Q 322 399 329 386 Q 353 346 369 275 Q 373 254 386 241 Q 402 223 405 237 Q 406 244 407 252 L 405 282 Q 392 348 387 372 C 382 397 382 397 376 399 Z" class="stroke4"/>
    <text x="333" y="400" transform="translate(333,400) scale(1,-1) translate(-333,-400)" font-family="Helvetica" font-size="72" font-weight="800" fill="#000000">4</text>
    <path d="M 615 311 Q 642 375 673 395 Q 688 411 675 427 Q 609 481 557 451 Q 535 444 513 434 L 468 420 Q 422 410 376 399 C 347 392 357 367 387 372 Q 399 373 413 378 Q 438 385 468 392 L 513 403 Q 537 410 565 417 Q 584 423 592 415 Q 599 408 596 392 Q 584 353 571 320 C 560 292 603 284 615 311 Z" class="stroke5"/>
    <text x="385" y="395" transform="translate(385,395) scale(1,-1) translate(-385,-395)" font-family="Helvetica" font-size="72" font-weight="800" fill="#000000">5</text>
    <path d="M 511 268 Q 557 277 621 283 Q 631 284 632 293 Q 632 300 615 311 L 571 320 Q 556 320 511 305 L 469 295 Q 435 288 405 282 C 376 276 377 253 407 252 Q 416 251 428 253 Q 444 257 469 261 L 511 268 Z" class="stroke6"/>
    <text x="412" y="260" transform="translate(412,260) scale(1,-1) translate(-412,-260)" font-family="Helvetica" font-size="72" font-weight="800" fill="#000000">6</text>
    <path d="M 509 159 Q 510 217 511 268 L 511 305 Q 512 357 513 403 L 513 434 Q 513 462 516 490 Q 522 506 513 515 Q 503 525 494 530 C 469 547 448 541 457 512 Q 463 506 468 420 L 468 392 Q 468 355 469 295 L 469 261 Q 469 212 469 149 C 469 119 508 129 509 159 Z" class="stroke7"/>
    <text x="464" y="513" transform="translate(464,513) scale(1,-1) translate(-464,-513)" font-family="Helvetica" font-size="72" font-weight="800" fill="#000000">7</text>
    <path d="M 599 182 Q 554 172 509 159 L 469 149 Q 411 139 350 124 Q 331 120 301 122 Q 288 121 286 112 Q 283 100 292 92 Q 311 76 340 57 Q 349 53 361 61 Q 391 82 577 148 Q 595 155 611 163 C 638 176 628 189 599 182 Z" class="stroke8"/>
    <text x="300" y="108" transform="translate(300,108) scale(1,-1) translate(-300,-108)" font-family="Helvetica" font-size="72" font-weight="800" fill="#000000">8</text>
    <path d="M 611 163 Q 654 87 667 82 Q 677 79 685 89 Q 694 101 695 129 Q 696 151 671 178 Q 608 230 593 231 Q 587 230 584 217 Q 584 207 599 182 L 611 163 Z" class="stroke9"/>
    <text x="594" y="224" transform="translate(594,224) scale(1,-1) translate(-594,-224)" font-family="Helvetica" font-size="72" font-weight="800" fill="#000000">9</text>
</g>
</svg>