<svg version="1.1" viewBox="0 0 1024 1024" xmlns="http://www.w3.org/2000/svg">
  <rect width="1024" height="1024" fill="white"/>
  <rect width="1024" height="1024" fill="none" stroke="black" stroke-width="4"/>
  <g stroke="black" stroke-dasharray="4,4" stroke-width="1" transform="scale(4, 4)">
    <line x1="0" y1="0" x2="256" y2="256"/>
    <line x1="256" y1="0" x2="0" y2="256"/>
    <line x1="128" y1="0" x2="128" y2="256"/>
    <line x1="0" y1="128" x2="256" y2="128"/>
  </g>
  <g transform="scale(1, -1) translate(0, -900)">
    <style type="text/css">
        .stroke1 {fill: #808080;}
        .stroke2 {fill: #808080;}
        .stroke3 {fill: #808080;}
        .stroke4 {fill: #808080;}
        .stroke5 {fill: #808080;}
        .stroke6 {fill: #808080;}
        .stroke7 {fill: #808080;}
        .stroke8 {fill: #808080;}
        .stroke9 {fill: #808080;}
        .stroke10 {fill: #808080;}
        .stroke11 {fill: #808080;}
        .stroke12 {fill: #808080;}
        .stroke13 {fill: #808080;}
        .stroke14 {fill: #808080;}
        .stroke15 {fill: #808080;}
        .stroke16 {fill: #808080;}
        .stroke17 {fill: #808080;}
        .stroke18 {fill: #808080;}
        .stroke19 {fill: #808080;}
        .stroke20 {fill: #808080;}
        
    </style>

    <path d="M 367 758 Q 410 698 441 681 Q 456 677 467 689 Q 474 702 474 719 Q 467 761 384 796 Q 368 803 358 800 Q 351 799 353 787 Q 353 774 367 758 Z" class="stroke1"/>
    <text x="364" y="790" transform="translate(364,790) scale(1,-1) translate(-364,-790)" font-family="Helvetica" font-size="72" font-weight="800" fill="#000000">1</text>
    <path d="M 532 620 Q 559 644 670 755 Q 688 774 711 789 Q 732 802 718 819 Q 702 835 672 846 Q 645 856 632 852 Q 619 849 625 835 Q 634 808 577 718 Q 516 628 510 616 C 495 590 510 600 532 620 Z" class="stroke2"/>
    <text x="633" y="842" transform="translate(633,842) scale(1,-1) translate(-633,-842)" font-family="Helvetica" font-size="72" font-weight="800" fill="#000000">2</text>
    <path d="M 491 581 Q 606 596 908 596 Q 930 596 935 605 Q 941 618 923 633 Q 860 681 796 661 Q 693 643 532 620 L 510 616 Q 338 597 138 576 Q 116 573 132 555 Q 147 540 166 534 Q 188 528 206 533 Q 321 563 450 576 L 491 581 Z" class="stroke3"/>
    <text x="136" y="565" transform="translate(136,565) scale(1,-1) translate(-136,-565)" font-family="Helvetica" font-size="72" font-weight="800" fill="#000000">3</text>
    <path d="M 434 437 Q 470 483 508 530 Q 523 540 516 550 Q 510 565 491 581 C 468 601 449 606 450 576 Q 453 543 408 452 Q 402 442 399 432 C 389 404 416 413 434 437 Z" class="stroke4"/>
    <text x="457" y="572" transform="translate(457,572) scale(1,-1) translate(-457,-572)" font-family="Helvetica" font-size="72" font-weight="800" fill="#000000">4</text>
    <path d="M 376 431 Q 360 443 340 448 Q 331 449 325 442 Q 322 436 329 426 Q 371 335 337 138 Q 319 83 325 61 Q 334 28 345 16 Q 355 3 365 16 Q 375 29 382 54 L 387 84 Q 391 115 392 177 L 393 203 Q 393 248 394 292 L 395 314 Q 395 377 401 400 C 403 413 401 415 376 431 Z" class="stroke5"/>
    <text x="333" y="438" transform="translate(333,438) scale(1,-1) translate(-333,-438)" font-family="Helvetica" font-size="72" font-weight="800" fill="#000000">5</text>
    <path d="M 598 71 Q 629 31 651 -6 Q 661 -25 672 -25 Q 690 -24 706 11 Q 725 51 722 100 Q 715 191 708 361 Q 708 392 725 415 Q 735 428 726 439 Q 707 458 654 484 Q 635 494 620 485 Q 566 463 434 437 L 399 432 Q 386 432 376 431 C 346 430 371 396 401 400 Q 429 403 595 434 Q 623 440 637 429 Q 655 414 653 195 Q 652 192 646 104 Q 642 86 626 91 C 600 77 595 75 598 71 Z" class="stroke6"/>
    <text x="382" y="427" transform="translate(382,427) scale(1,-1) translate(-382,-427)" font-family="Helvetica" font-size="72" font-weight="800" fill="#000000">6</text>
    <path d="M 394 292 Q 401 288 418 290 Q 505 302 570 308 Q 592 311 585 324 Q 575 339 549 345 Q 527 348 395 314 C 366 307 366 302 394 292 Z" class="stroke7"/>
    <text x="400" y="297" transform="translate(400,297) scale(1,-1) translate(-400,-297)" font-family="Helvetica" font-size="72" font-weight="800" fill="#000000">7</text>
    <path d="M 392 177 Q 399 176 412 176 Q 506 186 577 192 Q 601 195 593 208 Q 583 224 558 230 Q 528 236 393 203 C 364 196 362 180 392 177 Z" class="stroke8"/>
    <text x="397" y="183" transform="translate(397,183) scale(1,-1) translate(-397,-183)" font-family="Helvetica" font-size="72" font-weight="800" fill="#000000">8</text>
    <path d="M 382 54 Q 388 53 400 54 Q 512 66 598 71 C 628 73 642 74 626 91 Q 616 104 592 111 Q 568 117 523 109 Q 450 96 387 84 C 358 78 352 56 382 54 Z" class="stroke9"/>
    <text x="386" y="61" transform="translate(386,61) scale(1,-1) translate(-386,-61)" font-family="Helvetica" font-size="72" font-weight="800" fill="#000000">9</text>
</g>
</svg>