<svg version="1.1" viewBox="0 0 1024 1024" xmlns="http://www.w3.org/2000/svg">
  <rect width="1024" height="1024" fill="white"/>
  <rect width="1024" height="1024" fill="none" stroke="black" stroke-width="4"/>
  <g stroke="black" stroke-dasharray="4,4" stroke-width="1" transform="scale(4, 4)">
    <line x1="0" y1="0" x2="256" y2="256"/>
    <line x1="256" y1="0" x2="0" y2="256"/>
    <line x1="128" y1="0" x2="128" y2="256"/>
    <line x1="0" y1="128" x2="256" y2="128"/>
  </g>
  <g transform="scale(1, -1) translate(0, -900)">
    <style type="text/css">
        .stroke1 {fill: #808080;}
        .stroke2 {fill: #808080;}
        .stroke3 {fill: #808080;}
        .stroke4 {fill: #808080;}
        .stroke5 {fill: #808080;}
        .stroke6 {fill: #808080;}
        .stroke7 {fill: #808080;}
        .stroke8 {fill: #808080;}
        .stroke9 {fill: #808080;}
        .stroke10 {fill: #808080;}
        .stroke11 {fill: #808080;}
        .stroke12 {fill: #808080;}
        .stroke13 {fill: #808080;}
        .stroke14 {fill: #808080;}
        .stroke15 {fill: #808080;}
        .stroke16 {fill: #808080;}
        .stroke17 {fill: #808080;}
        .stroke18 {fill: #808080;}
        .stroke19 {fill: #808080;}
        .stroke20 {fill: #808080;}
        
    </style>

    <path d="M 548 771 Q 737 807 742 810 Q 749 817 746 825 Q 740 837 714 844 Q 693 850 582 820 Q 465 796 366 789 Q 363 789 361 787 C 332 781 350 760 380 757 Q 396 753 490 762 Q 493 763 498 763 L 548 771 Z" class="stroke1"/>
    <text x="366" y="783" transform="translate(366,783) scale(1,-1) translate(-366,-783)" font-family="Helvetica" font-size="72" font-weight="800" fill="#000000">1</text>
    <path d="M 361 787 Q 357 791 350 795 Q 313 820 293 823 Q 278 822 275 811 Q 272 799 282 790 Q 298 763 302 742 Q 317 582 286 407 Q 279 382 280 377 Q 281 367 296 355 Q 312 342 319 340 C 345 325 355 398 353 428 Q 349 456 355 606 Q 365 730 373 742 Q 377 749 380 757 C 386 769 385 769 361 787 Z" class="stroke2"/>
    <text x="291" y="806" transform="translate(291,806) scale(1,-1) translate(-291,-806)" font-family="Helvetica" font-size="72" font-weight="800" fill="#000000">2</text>
    <path d="M 566 641 Q 669 668 671 669 Q 678 676 675 683 Q 668 692 645 697 Q 615 703 567 681 L 513 666 Q 479 659 438 654 Q 410 648 430 635 Q 463 617 509 629 Q 510 630 513 629 L 566 641 Z" class="stroke3"/>
    <text x="432" y="645" transform="translate(432,645) scale(1,-1) translate(-432,-645)" font-family="Helvetica" font-size="72" font-weight="800" fill="#000000">3</text>
    <path d="M 561 518 Q 598 528 638 536 Q 671 545 675 549 Q 682 556 679 563 Q 672 572 649 577 Q 625 581 562 557 L 513 544 Q 471 537 426 530 Q 398 526 418 512 Q 445 499 510 508 Q 511 508 513 508 L 561 518 Z" class="stroke4"/>
    <text x="420" y="522" transform="translate(420,522) scale(1,-1) translate(-420,-522)" font-family="Helvetica" font-size="72" font-weight="800" fill="#000000">4</text>
    <path d="M 562 557 Q 563 602 566 641 L 567 681 Q 567 699 570 726 Q 577 747 549 770 L 548 771 C 526 791 487 791 498 763 Q 508 745 513 666 L 513 629 Q 513 595 513 544 L 513 508 Q 514 471 514 427 C 514 397 558 403 559 433 Q 560 478 561 518 L 562 557 Z" class="stroke5"/>
    <text x="505" y="762" transform="translate(505,762) scale(1,-1) translate(-505,-762)" font-family="Helvetica" font-size="72" font-weight="800" fill="#000000">5</text>
    <path d="M 319 340 Q 496 406 765 418 Q 780 417 797 408 Q 810 398 808 379 Q 809 361 782 205 Q 761 112 739 78 Q 729 56 703 58 Q 675 67 647 74 Q 628 81 624 77 Q 620 71 637 58 Q 698 -21 702 -45 Q 706 -55 717 -57 Q 735 -61 771 -26 Q 805 8 817 52 Q 881 374 904 390 Q 914 397 913 405 Q 914 414 879 441 Q 831 471 800 461 Q 776 458 750 455 Q 669 455 559 433 L 514 427 Q 441 418 392 405 Q 355 401 353 428 C 332 450 291 330 319 340 Z" class="stroke6"/>
    <text x="324" y="347" transform="translate(324,347) scale(1,-1) translate(-324,-347)" font-family="Helvetica" font-size="72" font-weight="800" fill="#000000">6</text>
    <path d="M 184 301 Q 174 243 152 187 Q 140 150 166 118 Q 178 102 196 120 Q 215 142 222 177 Q 229 217 223 249 Q 222 283 208 307 Q 201 314 195 314 Q 186 310 184 301 Z" class="stroke7"/>
    <text x="197" y="303" transform="translate(197,303) scale(1,-1) translate(-197,-303)" font-family="Helvetica" font-size="72" font-weight="800" fill="#000000">7</text>
    <path d="M 304 255 Q 314 195 331 174 Q 340 165 352 171 Q 362 177 368 190 Q 375 229 333 273 Q 332 276 330 277 Q 320 287 312 289 Q 308 290 304 281 Q 300 272 304 255 Z" class="stroke8"/>
    <text x="313" y="280" transform="translate(313,280) scale(1,-1) translate(-313,-280)" font-family="Helvetica" font-size="72" font-weight="800" fill="#000000">8</text>
    <path d="M 423 278 Q 441 229 465 204 Q 477 197 488 206 Q 497 215 499 229 Q 500 251 490 267 Q 475 288 444 306 Q 432 315 423 314 Q 417 315 416 304 Q 415 294 423 278 Z" class="stroke9"/>
    <text x="426" y="304" transform="translate(426,304) scale(1,-1) translate(-426,-304)" font-family="Helvetica" font-size="72" font-weight="800" fill="#000000">9</text>
    <path d="M 565 311 Q 593 248 622 223 Q 635 216 647 226 Q 657 236 659 253 Q 659 295 588 342 L 587 343 Q 574 352 563 351 Q 557 351 556 339 Q 555 329 565 311 Z" class="stroke10"/>
    <text x="567" y="340" transform="translate(567,340) scale(1,-1) translate(-567,-340)" font-family="Helvetica" font-size="72" font-weight="800" fill="#000000">10</text>
</g>
</svg>