<svg version="1.1" viewBox="0 0 1024 1024" xmlns="http://www.w3.org/2000/svg">
  <rect width="1024" height="1024" fill="white"/>
  <rect width="1024" height="1024" fill="none" stroke="black" stroke-width="4"/>
  <g stroke="black" stroke-dasharray="4,4" stroke-width="1" transform="scale(4, 4)">
    <line x1="0" y1="0" x2="256" y2="256"/>
    <line x1="256" y1="0" x2="0" y2="256"/>
    <line x1="128" y1="0" x2="128" y2="256"/>
    <line x1="0" y1="128" x2="256" y2="128"/>
  </g>
  <g transform="scale(1, -1) translate(0, -900)">
    <style type="text/css">
        .stroke1 {fill: #808080;}
        .stroke2 {fill: #808080;}
        .stroke3 {fill: #808080;}
        .stroke4 {fill: #808080;}
        .stroke5 {fill: #808080;}
        .stroke6 {fill: #808080;}
        .stroke7 {fill: #808080;}
        .stroke8 {fill: #808080;}
        .stroke9 {fill: #808080;}
        .stroke10 {fill: #808080;}
        .stroke11 {fill: #808080;}
        .stroke12 {fill: #808080;}
        .stroke13 {fill: #808080;}
        .stroke14 {fill: #808080;}
        .stroke15 {fill: #808080;}
        .stroke16 {fill: #808080;}
        .stroke17 {fill: #808080;}
        .stroke18 {fill: #808080;}
        .stroke19 {fill: #808080;}
        .stroke20 {fill: #808080;}
        
    </style>

    <path d="M 388 756 Q 366 772 338 782 Q 325 786 316 780 Q 309 774 316 760 Q 346 706 369 513 C 373 483 409 489 407 519 Q 403 577 399 619 L 398 645 Q 398 649 398 653 Q 397 707 398 723 C 399 748 399 748 388 756 Z" class="stroke1"/>
    <text x="325" y="771" transform="translate(325,771) scale(1,-1) translate(-325,-771)" font-family="Helvetica" font-size="72" font-weight="800" fill="#000000">1</text>
    <path d="M 669 558 Q 682 702 724 750 Q 740 771 723 788 Q 705 801 649 822 Q 630 829 608 818 Q 530 784 388 756 C 359 750 369 716 398 723 Q 609 771 615 768 Q 618 767 621 764 Q 637 752 636 722 Q 632 626 618 550 C 613 520 666 528 669 558 Z" class="stroke2"/>
    <text x="398" y="753" transform="translate(398,753) scale(1,-1) translate(-398,-753)" font-family="Helvetica" font-size="72" font-weight="800" fill="#000000">2</text>
    <path d="M 534 539 Q 543 603 557 630 Q 564 637 560 646 Q 554 656 513 671 Q 507 674 398 645 C 369 637 369 619 399 619 Q 409 618 418 622 Q 484 646 493 641 Q 500 637 496 533 C 495 503 530 509 534 539 Z" class="stroke3"/>
    <text x="404" y="626" transform="translate(404,626) scale(1,-1) translate(-404,-626)" font-family="Helvetica" font-size="72" font-weight="800" fill="#000000">3</text>
    <path d="M 220 492 Q 208 516 197 523 Q 178 538 176 510 Q 180 480 147 430 Q 111 387 114 366 Q 120 333 131 315 Q 147 288 167 317 Q 183 344 196 384 Q 209 429 220 456 C 228 477 228 477 220 492 Z" class="stroke4"/>
    <text x="187" y="516" transform="translate(187,516) scale(1,-1) translate(-187,-516)" font-family="Helvetica" font-size="72" font-weight="800" fill="#000000">4</text>
    <path d="M 220 456 Q 239 447 263 453 Q 393 492 672 528 Q 763 540 786 536 Q 805 526 803 518 Q 803 515 769 439 Q 762 426 769 421 Q 776 417 793 429 Q 850 469 897 482 Q 934 495 934 503 Q 933 513 858 568 Q 837 584 813 580 Q 746 571 669 558 L 618 550 Q 579 546 534 539 L 496 533 Q 454 529 407 519 L 369 513 Q 354 513 339 509 Q 279 500 220 492 C 190 488 191 462 220 456 Z" class="stroke5"/>
    <text x="228" y="486" transform="translate(228,486) scale(1,-1) translate(-228,-486)" font-family="Helvetica" font-size="72" font-weight="800" fill="#000000">5</text>
    <path d="M 403 175 Q 404 218 409 252 L 411 276 Q 415 342 421 365 C 425 386 425 386 416 396 Q 395 423 356 423 Q 343 419 347 406 Q 396 292 337 97 Q 315 40 315 34 Q 315 1 334 -25 Q 341 -40 352 -34 Q 389 -13 399 112 Q 400 133 401 151 L 403 175 Z" class="stroke6"/>
    <text x="358" y="411" transform="translate(358,411) scale(1,-1) translate(-358,-411)" font-family="Helvetica" font-size="72" font-weight="800" fill="#000000">6</text>
    <path d="M 421 365 Q 433 365 573 399 Q 594 406 599 395 Q 618 343 619 115 Q 619 55 609 40 Q 606 37 524 44 Q 502 48 505 39 Q 568 -6 604 -40 Q 620 -59 636 -64 Q 646 -67 654 -56 Q 694 1 691 54 Q 655 334 680 383 Q 693 404 680 415 Q 656 434 618 449 Q 599 456 582 448 Q 513 409 416 396 C 386 391 391 360 421 365 Z" class="stroke7"/>
    <text x="422" y="373" transform="translate(422,373) scale(1,-1) translate(-422,-373)" font-family="Helvetica" font-size="72" font-weight="800" fill="#000000">7</text>
    <path d="M 409 252 Q 415 251 424 252 Q 496 265 548 273 Q 570 277 561 289 Q 551 302 527 306 Q 490 309 411 276 C 383 265 379 255 409 252 Z" class="stroke8"/>
    <text x="417" y="257" transform="translate(417,257) scale(1,-1) translate(-417,-257)" font-family="Helvetica" font-size="72" font-weight="800" fill="#000000">8</text>
    <path d="M 401 151 Q 407 150 418 151 Q 494 163 551 169 Q 573 173 565 185 Q 555 198 531 203 Q 497 207 403 175 C 375 165 371 154 401 151 Z" class="stroke9"/>
    <text x="405" y="157" transform="translate(405,157) scale(1,-1) translate(-405,-157)" font-family="Helvetica" font-size="72" font-weight="800" fill="#000000">9</text>
</g>
</svg>