<svg version="1.1" viewBox="0 0 1024 1024" xmlns="http://www.w3.org/2000/svg">
  <rect width="1024" height="1024" fill="white"/>
  <rect width="1024" height="1024" fill="none" stroke="black" stroke-width="4"/>
  <g stroke="black" stroke-dasharray="4,4" stroke-width="1" transform="scale(4, 4)">
    <line x1="0" y1="0" x2="256" y2="256"/>
    <line x1="256" y1="0" x2="0" y2="256"/>
    <line x1="128" y1="0" x2="128" y2="256"/>
    <line x1="0" y1="128" x2="256" y2="128"/>
  </g>
  <g transform="scale(1, -1) translate(0, -900)">
    <style type="text/css">
        .stroke1 {fill: #808080;}
        .stroke2 {fill: #808080;}
        .stroke3 {fill: #808080;}
        .stroke4 {fill: #808080;}
        .stroke5 {fill: #808080;}
        .stroke6 {fill: #808080;}
        .stroke7 {fill: #808080;}
        .stroke8 {fill: #808080;}
        .stroke9 {fill: #808080;}
        .stroke10 {fill: #808080;}
        .stroke11 {fill: #808080;}
        .stroke12 {fill: #808080;}
        .stroke13 {fill: #808080;}
        .stroke14 {fill: #808080;}
        .stroke15 {fill: #808080;}
        .stroke16 {fill: #808080;}
        .stroke17 {fill: #808080;}
        .stroke18 {fill: #808080;}
        .stroke19 {fill: #808080;}
        .stroke20 {fill: #808080;}
        
    </style>

    <path d="M 308 680 Q 345 674 429 689 Q 555 713 563 721 Q 572 728 567 737 Q 560 747 532 755 Q 502 761 473 749 Q 436 736 395 727 Q 350 717 297 712 Q 291 712 290 710 C 261 703 278 684 308 680 Z" class="stroke1"/>
    <text x="295" y="706" transform="translate(295,706) scale(1,-1) translate(-295,-706)" font-family="Helvetica" font-size="72" font-weight="800" fill="#000000">1</text>
    <path d="M 313 363 Q 310 415 308 458 L 307 480 Q 306 528 305 565 Q 304 569 304 572 L 304 592 Q 305 635 308 680 C 309 697 309 697 290 710 Q 268 726 244 734 Q 229 740 220 733 Q 213 726 219 711 Q 243 663 253 612 Q 260 560 271 355 C 273 325 315 333 313 363 Z" class="stroke2"/>
    <text x="229" y="724" transform="translate(229,724) scale(1,-1) translate(-229,-724)" font-family="Helvetica" font-size="72" font-weight="800" fill="#000000">2</text>
    <path d="M 304 572 Q 337 554 403 570 Q 439 579 477 586 Q 496 590 500 594 Q 507 601 503 609 Q 496 619 469 625 Q 441 629 372 605 Q 342 598 311 594 Q 307 594 304 592 C 279 584 279 584 304 572 Z" class="stroke3"/>
    <text x="309" y="587" transform="translate(309,587) scale(1,-1) translate(-309,-587)" font-family="Helvetica" font-size="72" font-weight="800" fill="#000000">3</text>
    <path d="M 308 458 Q 341 446 427 460 Q 502 478 503 478 Q 512 485 507 493 Q 500 503 474 510 Q 447 514 374 491 Q 308 482 307 480 C 278 472 279 467 308 458 Z" class="stroke4"/>
    <text x="311" y="475" transform="translate(311,475) scale(1,-1) translate(-311,-475)" font-family="Helvetica" font-size="72" font-weight="800" fill="#000000">4</text>
    <path d="M 314 324 Q 353 340 536 363 Q 552 366 553 373 Q 554 386 537 395 Q 510 407 488 402 Q 380 378 313 363 L 271 355 Q 184 340 97 330 Q 84 329 82 321 Q 78 311 93 299 Q 133 272 173 284 Q 219 299 260 310 L 314 324 Z" class="stroke5"/>
    <text x="94" y="317" transform="translate(94,317) scale(1,-1) translate(-94,-317)" font-family="Helvetica" font-size="72" font-weight="800" fill="#000000">5</text>
    <path d="M 468 197 Q 365 173 262 147 Q 253 144 251 146 Q 250 149 255 155 Q 321 257 347 284 Q 362 300 351 310 Q 341 320 314 324 C 285 330 260 336 260 310 Q 260 259 259 255 Q 214 162 159 129 Q 120 107 145 69 Q 145 68 147 66 Q 160 47 174 44 Q 181 41 192 48 Q 274 111 478 178 Q 478 179 480 179 C 508 189 497 204 468 197 Z" class="stroke6"/>
    <text x="339" y="299" transform="translate(339,299) scale(1,-1) translate(-339,-299)" font-family="Helvetica" font-size="72" font-weight="800" fill="#000000">6</text>
    <path d="M 480 179 Q 516 115 530 111 Q 537 108 545 117 Q 552 127 554 153 Q 555 192 461 260 Q 451 267 444 266 Q 440 265 437 254 L 468 197 L 480 179 Z" class="stroke7"/>
    <text x="447" y="256" transform="translate(447,256) scale(1,-1) translate(-447,-256)" font-family="Helvetica" font-size="72" font-weight="800" fill="#000000">7</text>
    <path d="M 782 755 Q 786 701 688 606 Q 685 606 684 603 Q 656 576 587 528 Q 577 524 588 519 Q 681 519 843 684 Q 850 693 856 696 Q 865 700 864 711 Q 864 721 853 735 Q 840 751 822 759 Q 803 769 791 769 Q 781 768 782 755 Z" class="stroke8"/>
    <text x="792" y="758" transform="translate(792,758) scale(1,-1) translate(-792,-758)" font-family="Helvetica" font-size="72" font-weight="800" fill="#000000">8</text>
    <path d="M 772 532 Q 776 478 676 393 Q 648 371 583 327 Q 574 323 584 319 Q 624 313 727 380 Q 728 383 732 384 Q 768 409 825 466 Q 832 473 837 476 Q 844 480 845 490 Q 845 499 836 512 Q 809 545 780 545 Q 773 544 772 532 Z" class="stroke9"/>
    <text x="784" y="533" transform="translate(784,533) scale(1,-1) translate(-784,-533)" font-family="Helvetica" font-size="72" font-weight="800" fill="#000000">9</text>
    <path d="M 804 355 Q 807 268 652 123 Q 642 116 633 107 Q 584 65 467 -12 Q 457 -16 468 -21 Q 525 -21 659 70 Q 749 142 861 274 Q 874 289 881 294 Q 890 298 889 310 Q 889 320 878 334 Q 845 373 813 369 Q 803 368 804 355 Z" class="stroke10"/>
    <text x="814" y="358" transform="translate(814,358) scale(1,-1) translate(-814,-358)" font-family="Helvetica" font-size="72" font-weight="800" fill="#000000">10</text>
</g>
</svg>