<svg version="1.1" viewBox="0 0 1024 1024" xmlns="http://www.w3.org/2000/svg">
  <rect width="1024" height="1024" fill="white"/>
  <rect width="1024" height="1024" fill="none" stroke="black" stroke-width="4"/>
  <g stroke="black" stroke-dasharray="4,4" stroke-width="1" transform="scale(4, 4)">
    <line x1="0" y1="0" x2="256" y2="256"/>
    <line x1="256" y1="0" x2="0" y2="256"/>
    <line x1="128" y1="0" x2="128" y2="256"/>
    <line x1="0" y1="128" x2="256" y2="128"/>
  </g>
  <g transform="scale(1, -1) translate(0, -900)">
    <style type="text/css">
        .stroke1 {fill: #808080;}
        .stroke2 {fill: #808080;}
        .stroke3 {fill: #808080;}
        .stroke4 {fill: #808080;}
        .stroke5 {fill: #808080;}
        .stroke6 {fill: #808080;}
        .stroke7 {fill: #808080;}
        .stroke8 {fill: #808080;}
        .stroke9 {fill: #808080;}
        .stroke10 {fill: #808080;}
        .stroke11 {fill: #808080;}
        .stroke12 {fill: #808080;}
        .stroke13 {fill: #808080;}
        .stroke14 {fill: #808080;}
        .stroke15 {fill: #808080;}
        .stroke16 {fill: #808080;}
        .stroke17 {fill: #808080;}
        .stroke18 {fill: #808080;}
        .stroke19 {fill: #808080;}
        .stroke20 {fill: #808080;}
        
    </style>

    <path d="M 515 574 Q 522 643 530 705 L 533 736 Q 533 739 534 741 Q 540 777 548 796 Q 551 808 531 823 Q 494 842 469 848 Q 453 852 444 843 Q 437 834 444 819 Q 460 797 461 782 Q 471 682 470 566 C 470 536 512 544 515 574 Z" class="stroke1"/>
    <text x="456" y="833" transform="translate(456,833) scale(1,-1) translate(-456,-833)" font-family="Helvetica" font-size="72" font-weight="800" fill="#000000">1</text>
    <path d="M 530 705 Q 581 699 614 710 Q 719 740 722 743 Q 729 752 724 760 Q 717 772 686 776 Q 664 779 582 749 Q 558 743 533 736 C 504 728 500 708 530 705 Z" class="stroke2"/>
    <text x="539" y="712" transform="translate(539,712) scale(1,-1) translate(-539,-712)" font-family="Helvetica" font-size="72" font-weight="800" fill="#000000">2</text>
    <path d="M 274 543 Q 261 556 239 563 Q 229 569 215 564 Q 208 560 213 545 Q 216 533 221 521 Q 248 466 230 174 Q 226 132 213 84 Q 198 21 236 -26 Q 248 -41 259 -27 Q 274 -9 274 20 L 277 54 Q 278 76 279 105 Q 280 238 284 327 L 284 342 Q 288 481 290 494 Q 291 500 291 505 C 293 529 293 529 274 543 Z" class="stroke3"/>
    <text x="223" y="554" transform="translate(223,554) scale(1,-1) translate(-223,-554)" font-family="Helvetica" font-size="72" font-weight="800" fill="#000000">3</text>
    <path d="M 654 46 Q 691 0 717 -45 Q 727 -66 740 -65 Q 759 -64 777 -25 Q 799 18 795 72 Q 786 216 783 480 Q 782 517 801 543 Q 811 558 801 570 Q 779 592 718 621 Q 697 631 679 621 Q 609 593 515 574 L 470 566 Q 356 548 274 543 C 244 541 261 501 291 505 Q 324 508 625 565 Q 677 575 704 554 Q 738 520 721 193 Q 720 103 712 76 Q 706 54 685 64 Q 682 65 680 67 C 650 64 641 63 654 46 Z" class="stroke4"/>
    <text x="281" y="538" transform="translate(281,538) scale(1,-1) translate(-281,-538)" font-family="Helvetica" font-size="72" font-weight="800" fill="#000000">4</text>
    <path d="M 505 328 Q 533 374 575 452 Q 590 480 590 484 Q 589 491 577 500 Q 553 521 524 515 Q 517 512 520 502 Q 532 459 472 347 L 452 314 Q 410 254 324 166 Q 318 162 326 159 Q 383 169 480 292 L 505 328 Z" class="stroke5"/>
    <text x="532" y="505" transform="translate(532,505) scale(1,-1) translate(-532,-505)" font-family="Helvetica" font-size="72" font-weight="800" fill="#000000">5</text>
    <path d="M 480 292 Q 610 181 617 179 Q 623 178 628 186 Q 637 196 625 230 Q 612 266 505 328 L 472 347 Q 408 383 370 400 Q 363 404 362 394 Q 363 384 372 377 Q 409 349 452 314 L 480 292 Z" class="stroke6"/>
    <text x="370" y="392" transform="translate(370,392) scale(1,-1) translate(-370,-392)" font-family="Helvetica" font-size="72" font-weight="800" fill="#000000">6</text>
    <path d="M 388 472 Q 430 423 451 421 Q 463 420 468 436 Q 469 448 460 465 Q 444 489 391 496 Q 382 497 382 487 Q 381 480 388 472 Z" class="stroke7"/>
    <text x="393" y="485" transform="translate(393,485) scale(1,-1) translate(-393,-485)" font-family="Helvetica" font-size="72" font-weight="800" fill="#000000">7</text>
    <path d="M 284 327 Q 288 320 304 310 Q 325 295 347 277 Q 357 270 368 270 Q 375 271 378 280 Q 379 290 372 310 Q 368 323 345 333 Q 291 348 284 342 C 276 339 276 339 284 327 Z" class="stroke8"/>
    <text x="289" y="335" transform="translate(289,335) scale(1,-1) translate(-289,-335)" font-family="Helvetica" font-size="72" font-weight="800" fill="#000000">8</text>
    <path d="M 609 369 Q 628 353 650 331 Q 660 321 673 322 Q 682 322 685 333 Q 689 343 682 367 Q 678 382 654 392 Q 597 410 588 407 Q 584 403 585 393 Q 588 386 609 369 Z" class="stroke9"/>
    <text x="591" y="399" transform="translate(591,399) scale(1,-1) translate(-591,-399)" font-family="Helvetica" font-size="72" font-weight="800" fill="#000000">9</text>
    <path d="M 448 168 Q 479 125 506 113 Q 519 109 528 121 Q 534 131 532 147 Q 528 168 512 179 Q 458 212 437 203 Q 433 202 434 191 Q 435 181 448 168 Z" class="stroke10"/>
    <text x="444" y="195" transform="translate(444,195) scale(1,-1) translate(-444,-195)" font-family="Helvetica" font-size="72" font-weight="800" fill="#000000">10</text>
    <path d="M 274 20 Q 277 20 282 20 Q 402 39 654 46 C 684 47 701 47 680 67 Q 671 76 658 86 Q 643 96 612 91 Q 426 63 277 54 C 247 52 244 18 274 20 Z" class="stroke11"/>
    <text x="278" y="25" transform="translate(278,25) scale(1,-1) translate(-278,-25)" font-family="Helvetica" font-size="72" font-weight="800" fill="#000000">11</text>
</g>
</svg>