<svg version="1.1" viewBox="0 0 1024 1024" xmlns="http://www.w3.org/2000/svg">
  <rect width="1024" height="1024" fill="white"/>
  <rect width="1024" height="1024" fill="none" stroke="black" stroke-width="4"/>
  <g stroke="black" stroke-dasharray="4,4" stroke-width="1" transform="scale(4, 4)">
    <line x1="0" y1="0" x2="256" y2="256"/>
    <line x1="256" y1="0" x2="0" y2="256"/>
    <line x1="128" y1="0" x2="128" y2="256"/>
    <line x1="0" y1="128" x2="256" y2="128"/>
  </g>
  <g transform="scale(1, -1) translate(0, -900)">
    <style type="text/css">
        .stroke1 {fill: #808080;}
        .stroke2 {fill: #808080;}
        .stroke3 {fill: #808080;}
        .stroke4 {fill: #808080;}
        .stroke5 {fill: #808080;}
        .stroke6 {fill: #808080;}
        .stroke7 {fill: #808080;}
        .stroke8 {fill: #808080;}
        .stroke9 {fill: #808080;}
        .stroke10 {fill: #808080;}
        .stroke11 {fill: #808080;}
        .stroke12 {fill: #808080;}
        .stroke13 {fill: #808080;}
        .stroke14 {fill: #808080;}
        .stroke15 {fill: #808080;}
        .stroke16 {fill: #808080;}
        .stroke17 {fill: #808080;}
        .stroke18 {fill: #808080;}
        .stroke19 {fill: #808080;}
        .stroke20 {fill: #808080;}
        
    </style>

    <path d="M 491 802 Q 539 748 573 735 Q 592 732 602 749 Q 609 765 605 785 Q 596 813 574 828 Q 520 858 479 852 Q 475 852 473 850 Q 466 849 469 833 Q 472 820 491 802 Z" class="stroke1"/>
    <text x="479" y="840" transform="translate(479,840) scale(1,-1) translate(-479,-840)" font-family="Helvetica" font-size="72" font-weight="800" fill="#000000">1</text>
    <path d="M 333 621 Q 366 612 435 621 Q 750 684 781 692 Q 790 696 794 699 Q 804 706 799 716 Q 792 728 762 736 Q 731 743 700 731 Q 520 671 327 654 C 297 651 304 627 333 621 Z" class="stroke2"/>
    <text x="335" y="650" transform="translate(335,650) scale(1,-1) translate(-335,-650)" font-family="Helvetica" font-size="72" font-weight="800" fill="#000000">2</text>
    <path d="M 310 479 Q 311 495 315 510 Q 321 582 333 621 C 339 645 339 645 327 654 Q 279 693 255 686 Q 242 679 249 665 Q 267 629 264 576 Q 246 354 198 230 Q 155 124 68 -5 Q 62 -12 60 -18 Q 57 -28 68 -27 Q 104 -21 190 109 Q 203 134 219 161 Q 279 293 309 466 L 310 479 Z" class="stroke3"/>
    <text x="260" y="673" transform="translate(260,673) scale(1,-1) translate(-260,-673)" font-family="Helvetica" font-size="72" font-weight="800" fill="#000000">3</text>
    <path d="M 699 373 Q 699 372 700 371 Q 704 356 715 356 Q 736 359 765 420 Q 781 468 815 493 Q 833 508 819 522 Q 803 538 758 564 Q 743 573 673 554 Q 649 553 635 547 L 581 536 Q 530 527 486 515 L 437 503 Q 367 487 322 481 Q 315 481 310 479 C 291 476 291 476 309 466 Q 310 465 317 460 Q 350 445 369 453 Q 397 463 441 475 L 484 486 Q 526 496 579 507 L 628 516 Q 709 537 732 524 Q 739 520 733 498 Q 712 417 704 402 C 695 379 695 379 699 373 Z" class="stroke4"/>
    <text x="317" y="472" transform="translate(317,472) scale(1,-1) translate(-317,-472)" font-family="Helvetica" font-size="72" font-weight="800" fill="#000000">4</text>
    <path d="M 486 515 Q 486 545 478 553 Q 459 568 437 576 Q 425 580 418 575 Q 411 571 417 557 Q 430 532 437 503 L 441 475 Q 445 441 451 365 C 453 335 485 341 485 371 Q 485 408 484 486 L 486 515 Z" class="stroke5"/>
    <text x="425" y="566" transform="translate(425,566) scale(1,-1) translate(-425,-566)" font-family="Helvetica" font-size="72" font-weight="800" fill="#000000">5</text>
    <path d="M 635 547 Q 635 554 650 588 Q 654 597 639 611 Q 614 630 594 635 Q 581 639 574 633 Q 567 629 572 615 Q 584 593 581 536 L 579 507 Q 573 452 566 390 C 563 360 598 370 604 399 Q 616 460 628 516 L 635 547 Z" class="stroke6"/>
    <text x="583" y="623" transform="translate(583,623) scale(1,-1) translate(-583,-623)" font-family="Helvetica" font-size="72" font-weight="800" fill="#000000">6</text>
    <path d="M 487 342 Q 572 360 699 373 C 729 376 728 385 704 402 Q 700 406 692 410 Q 674 420 604 399 L 566 390 Q 524 381 485 371 L 451 365 Q 400 358 357 350 Q 338 347 350 332 Q 357 323 366 321 Q 376 318 388 321 Q 425 331 487 342 Z" class="stroke7"/>
    <text x="355" y="340" transform="translate(355,340) scale(1,-1) translate(-355,-340)" font-family="Helvetica" font-size="72" font-weight="800" fill="#000000">7</text>
    <path d="M 397 186 Q 398 187 401 186 Q 419 183 556 217 Q 563 224 559 231 Q 552 240 529 245 Q 505 249 438 225 Q 420 222 405 217 C 376 208 367 187 397 186 Z" class="stroke8"/>
    <text x="399" y="191" transform="translate(399,191) scale(1,-1) translate(-399,-191)" font-family="Helvetica" font-size="72" font-weight="800" fill="#000000">8</text>
    <path d="M 405 217 Q 406 224 410 229 Q 417 248 406 261 Q 385 289 367 296 Q 355 300 349 297 Q 337 291 347 276 Q 371 207 334 107 Q 322 85 309 60 Q 293 41 298 18 Q 304 -16 319 -30 Q 329 -40 344 -23 Q 383 14 508 102 Q 527 114 530 122 Q 533 135 511 126 Q 394 78 384 82 Q 377 88 380 106 Q 389 155 397 186 L 405 217 Z" class="stroke9"/>
    <text x="355" y="286" transform="translate(355,286) scale(1,-1) translate(-355,-286)" font-family="Helvetica" font-size="72" font-weight="800" fill="#000000">9</text>
    <path d="M 622 191 Q 776 248 790 249 Q 811 253 805 271 Q 798 289 778 308 Q 760 324 748 326 Q 736 327 737 314 Q 733 284 623 212 C 598 196 594 181 622 191 Z" class="stroke10"/>
    <text x="746" y="317" transform="translate(746,317) scale(1,-1) translate(-746,-317)" font-family="Helvetica" font-size="72" font-weight="800" fill="#000000">10</text>
    <path d="M 623 212 Q 624 251 632 294 Q 636 310 624 319 Q 612 331 591 338 Q 579 341 572 336 Q 566 333 571 317 Q 584 283 583 248 Q 580 71 612 28 Q 642 -2 689 -20 Q 786 -53 888 -24 Q 925 -11 961 20 Q 982 33 971 59 Q 961 90 951 180 Q 952 196 945 202 Q 939 206 933 188 Q 896 95 874 68 Q 864 52 827 42 Q 745 20 673 53 Q 645 68 636 86 Q 617 119 622 191 L 623 212 Z" class="stroke11"/>
    <text x="580" y="328" transform="translate(580,328) scale(1,-1) translate(-580,-328)" font-family="Helvetica" font-size="72" font-weight="800" fill="#000000">11</text>
</g>
</svg>