<svg version="1.1" viewBox="0 0 1024 1024" xmlns="http://www.w3.org/2000/svg">
  <rect width="1024" height="1024" fill="white"/>
  <rect width="1024" height="1024" fill="none" stroke="black" stroke-width="4"/>
  <g stroke="black" stroke-dasharray="4,4" stroke-width="1" transform="scale(4, 4)">
    <line x1="0" y1="0" x2="256" y2="256"/>
    <line x1="256" y1="0" x2="0" y2="256"/>
    <line x1="128" y1="0" x2="128" y2="256"/>
    <line x1="0" y1="128" x2="256" y2="128"/>
  </g>
  <g transform="scale(1, -1) translate(0, -900)">
    <style type="text/css">
        .stroke1 {fill: #808080;}
        .stroke2 {fill: #808080;}
        .stroke3 {fill: #808080;}
        .stroke4 {fill: #808080;}
        .stroke5 {fill: #808080;}
        .stroke6 {fill: #808080;}
        .stroke7 {fill: #808080;}
        .stroke8 {fill: #808080;}
        .stroke9 {fill: #808080;}
        .stroke10 {fill: #808080;}
        .stroke11 {fill: #808080;}
        .stroke12 {fill: #808080;}
        .stroke13 {fill: #808080;}
        .stroke14 {fill: #808080;}
        .stroke15 {fill: #808080;}
        .stroke16 {fill: #808080;}
        .stroke17 {fill: #808080;}
        .stroke18 {fill: #808080;}
        .stroke19 {fill: #808080;}
        .stroke20 {fill: #808080;}
        
    </style>

    <path d="M 533 723 Q 674 757 679 761 Q 688 768 683 777 Q 676 787 648 795 Q 621 801 537 771 L 481 756 Q 421 743 353 736 Q 317 730 343 714 Q 376 696 452 707 Q 465 710 484 713 L 533 723 Z" class="stroke1"/>
    <text x="345" y="726" transform="translate(345,726) scale(1,-1) translate(-345,-726)" font-family="Helvetica" font-size="72" font-weight="800" fill="#000000">1</text>
    <path d="M 521 537 L 522 538 Q 532 679 533 723 L 537 771 Q 540 796 544 810 Q 551 829 540 840 Q 525 853 499 867 Q 478 874 456 866 Q 446 859 458 843 Q 480 801 481 756 L 484 713 Q 485 625 483 580 L 480 494 Q 481 470 488 451 Q 494 441 502 446 Q 511 453 520 506 L 521 537 Z" class="stroke2"/>
    <text x="466" y="855" transform="translate(466,855) scale(1,-1) translate(-466,-855)" font-family="Helvetica" font-size="72" font-weight="800" fill="#000000">2</text>
    <path d="M 330 576 Q 354 603 376 623 Q 386 632 377 646 Q 344 679 327 680 Q 317 680 317 668 Q 313 599 215 517 Q 205 513 175 486 Q 165 474 178 476 Q 193 476 214 486 Q 272 516 313 557 L 330 576 Z" class="stroke3"/>
    <text x="329" y="668" transform="translate(329,668) scale(1,-1) translate(-329,-668)" font-family="Helvetica" font-size="72" font-weight="800" fill="#000000">3</text>
    <path d="M 313 557 Q 317 553 327 546 Q 349 530 371 510 Q 381 501 391 503 Q 398 503 402 512 Q 403 522 397 543 Q 391 564 330 576 C 301 582 291 577 313 557 Z" class="stroke4"/>
    <text x="320" y="559" transform="translate(320,559) scale(1,-1) translate(-320,-559)" font-family="Helvetica" font-size="72" font-weight="800" fill="#000000">4</text>
    <path d="M 646 601 Q 658 611 670 623 Q 695 648 717 668 Q 727 677 718 692 Q 687 731 664 730 Q 654 730 653 717 Q 653 651 553 574 Q 541 565 535 558 Q 525 546 539 548 Q 558 547 618 581 L 646 601 Z" class="stroke5"/>
    <text x="664" y="719" transform="translate(664,719) scale(1,-1) translate(-664,-719)" font-family="Helvetica" font-size="72" font-weight="800" fill="#000000">5</text>
    <path d="M 618 581 Q 624 577 637 568 Q 679 544 723 514 Q 735 507 747 508 Q 754 509 757 520 Q 760 532 749 554 Q 736 587 646 601 C 616 606 593 598 618 581 Z" class="stroke6"/>
    <text x="624" y="582" transform="translate(624,582) scale(1,-1) translate(-624,-582)" font-family="Helvetica" font-size="72" font-weight="800" fill="#000000">6</text>
    <path d="M 483 580 Q 420 489 346 415 Q 270 339 102 211 Q 95 202 105 198 Q 133 194 305 317 Q 392 383 480 494 C 499 517 500 605 483 580 Z" class="stroke7"/>
    <text x="479" y="573" transform="translate(479,573) scale(1,-1) translate(-479,-573)" font-family="Helvetica" font-size="72" font-weight="800" fill="#000000">7</text>
    <path d="M 520 506 Q 763 278 819 269 Q 894 269 971 289 Q 989 293 990 298 Q 991 304 977 309 Q 758 381 742 390 Q 652 439 530 531 Q 524 535 521 537 C 496 554 498 526 520 506 Z" class="stroke8"/>
    <text x="522" y="529" transform="translate(522,529) scale(1,-1) translate(-522,-529)" font-family="Helvetica" font-size="72" font-weight="800" fill="#000000">8</text>
    <path d="M 477 324 Q 508 358 523 372 Q 532 382 530 391 Q 527 403 505 410 Q 480 419 469 416 Q 462 415 459 403 Q 443 328 264 187 Q 245 174 270 177 Q 327 180 451 296 L 477 324 Z" class="stroke9"/>
    <text x="514" y="388" transform="translate(514,388) scale(1,-1) translate(-514,-388)" font-family="Helvetica" font-size="72" font-weight="800" fill="#000000">9</text>
    <path d="M 459 134 Q 380 41 242 -66 Q 227 -78 242 -79 Q 329 -67 489 98 Q 490 102 495 105 L 534 149 Q 568 189 603 237 Q 625 265 661 291 Q 677 301 672 312 Q 671 321 609 348 Q 590 360 570 347 Q 555 340 477 324 C 448 318 422 304 451 296 Q 475 284 525 297 Q 549 301 556 292 Q 560 276 487 172 L 459 134 Z" class="stroke10"/>
    <text x="458" y="298" transform="translate(458,298) scale(1,-1) translate(-458,-298)" font-family="Helvetica" font-size="72" font-weight="800" fill="#000000">10</text>
    <path d="M 495 105 Q 537 69 548 66 Q 555 66 560 74 Q 569 86 555 120 Q 549 138 534 149 L 487 172 Q 466 182 403 201 Q 396 204 395 194 Q 395 184 405 176 Q 430 158 459 134 L 495 105 Z" class="stroke11"/>
    <text x="404" y="191" transform="translate(404,191) scale(1,-1) translate(-404,-191)" font-family="Helvetica" font-size="72" font-weight="800" fill="#000000">11</text>
</g>
</svg>