<svg version="1.1" viewBox="0 0 1024 1024" xmlns="http://www.w3.org/2000/svg">
  <rect width="1024" height="1024" fill="white"/>
  <rect width="1024" height="1024" fill="none" stroke="black" stroke-width="4"/>
  <g stroke="black" stroke-dasharray="4,4" stroke-width="1" transform="scale(4, 4)">
    <line x1="0" y1="0" x2="256" y2="256"/>
    <line x1="256" y1="0" x2="0" y2="256"/>
    <line x1="128" y1="0" x2="128" y2="256"/>
    <line x1="0" y1="128" x2="256" y2="128"/>
  </g>
  <g transform="scale(1, -1) translate(0, -900)">
    <style type="text/css">
        .stroke1 {fill: #808080;}
        .stroke2 {fill: #808080;}
        .stroke3 {fill: #808080;}
        .stroke4 {fill: #808080;}
        .stroke5 {fill: #808080;}
        .stroke6 {fill: #808080;}
        .stroke7 {fill: #808080;}
        .stroke8 {fill: #808080;}
        .stroke9 {fill: #808080;}
        .stroke10 {fill: #808080;}
        .stroke11 {fill: #808080;}
        .stroke12 {fill: #808080;}
        .stroke13 {fill: #808080;}
        .stroke14 {fill: #808080;}
        .stroke15 {fill: #808080;}
        .stroke16 {fill: #808080;}
        .stroke17 {fill: #808080;}
        .stroke18 {fill: #808080;}
        .stroke19 {fill: #808080;}
        .stroke20 {fill: #808080;}
        
    </style>

    <path d="M 462 844 Q 478 831 498 813 Q 514 801 530 804 Q 540 805 545 820 Q 548 836 535 866 Q 523 888 450 893 Q 434 894 428 891 Q 424 887 426 873 Q 430 863 462 844 Z" class="stroke1"/>
    <text x="434" y="885" transform="translate(434,885) scale(1,-1) translate(-434,-885)" font-family="Helvetica" font-size="72" font-weight="800" fill="#000000">1</text>
    <path d="M 213 739 Q 191 738 207 719 Q 240 689 279 698 Q 468 749 810 750 Q 829 750 835 759 Q 841 771 824 785 Q 770 825 731 817 Q 608 790 213 739 Z" class="stroke2"/>
    <text x="210" y="729" transform="translate(210,729) scale(1,-1) translate(-210,-729)" font-family="Helvetica" font-size="72" font-weight="800" fill="#000000">2</text>
    <path d="M 371 667 Q 399 613 428 610 Q 441 609 450 627 Q 451 640 444 663 Q 428 688 377 695 Q 367 698 366 685 Q 365 678 371 667 Z" class="stroke3"/>
    <text x="379" y="682" transform="translate(379,682) scale(1,-1) translate(-379,-682)" font-family="Helvetica" font-size="72" font-weight="800" fill="#000000">3</text>
    <path d="M 515 564 Q 515 565 516 565 Q 579 635 610 664 Q 625 671 619 681 Q 610 693 590 705 Q 569 717 549 714 Q 537 711 542 694 Q 548 676 504 577 C 492 550 495 542 515 564 Z" class="stroke4"/>
    <text x="609" y="676" transform="translate(609,676) scale(1,-1) translate(-609,-676)" font-family="Helvetica" font-size="72" font-weight="800" fill="#000000">4</text>
    <path d="M 504 577 Q 500 580 496 582 Q 489 589 476 593 Q 467 597 457 594 Q 451 590 456 579 Q 475 513 461 432 Q 448 381 479 345 Q 489 333 498 344 Q 510 360 511 408 Q 515 531 517 539 Q 520 557 516 564 Q 515 565 515 564 L 504 577 Z" class="stroke5"/>
    <text x="463" y="586" transform="translate(463,586) scale(1,-1) translate(-463,-586)" font-family="Helvetica" font-size="72" font-weight="800" fill="#000000">5</text>
    <path d="M 268 524 Q 305 536 336 541 Q 349 544 352 540 Q 359 531 357 508 Q 356 442 343 412 Q 330 387 308 389 L 276 397 Q 257 404 271 384 Q 302 351 316 327 Q 329 312 342 325 Q 381 350 401 457 Q 405 521 422 543 Q 432 555 426 563 Q 419 572 374 589 Q 356 596 340 584 Q 325 574 267 557 Q 209 539 157 533 Q 142 532 140 524 Q 139 517 160 508 Q 182 496 198 503 Q 213 509 229 513 L 268 524 Z" class="stroke6"/>
    <text x="147" y="523" transform="translate(147,523) scale(1,-1) translate(-147,-523)" font-family="Helvetica" font-size="72" font-weight="800" fill="#000000">6</text>
    <path d="M 229 513 Q 229 434 98 301 Q 94 297 92 291 Q 92 287 97 287 Q 175 306 264 446 Q 277 468 286 477 Q 293 487 286 499 Q 277 515 268 524 C 248 547 230 543 229 513 Z" class="stroke7"/>
    <text x="238" y="508" transform="translate(238,508) scale(1,-1) translate(-238,-508)" font-family="Helvetica" font-size="72" font-weight="800" fill="#000000">7</text>
    <path d="M 679 592 Q 694 607 749 632 Q 753 635 762 637 Q 781 644 772 660 Q 762 675 741 688 Q 722 701 711 699 Q 701 699 703 687 Q 703 665 631 585 C 611 563 614 556 640 571 Q 650 577 661 582 L 679 592 Z" class="stroke8"/>
    <text x="761" y="651" transform="translate(761,651) scale(1,-1) translate(-761,-651)" font-family="Helvetica" font-size="72" font-weight="800" fill="#000000">8</text>
    <path d="M 631 585 Q 612 603 598 605 Q 588 606 584 603 Q 577 597 586 587 Q 608 553 603 451 Q 600 427 590 413 Q 580 397 587 380 Q 597 355 610 347 Q 617 341 627 356 Q 646 384 712 454 Q 725 466 726 472 Q 727 482 711 472 Q 647 439 642 439 Q 636 443 636 458 Q 636 540 640 561 Q 641 567 640 571 C 640 577 640 577 631 585 Z" class="stroke9"/>
    <text x="591" y="596" transform="translate(591,596) scale(1,-1) translate(-591,-596)" font-family="Helvetica" font-size="72" font-weight="800" fill="#000000">9</text>
    <path d="M 661 582 Q 662 581 664 578 Q 727 491 797 412 Q 816 390 850 387 Q 911 381 976 390 Q 992 391 994 395 Q 997 401 984 407 Q 810 479 748 530 Q 681 591 679 592 C 656 612 643 606 661 582 Z" class="stroke10"/>
    <text x="666" y="583" transform="translate(666,583) scale(1,-1) translate(-666,-583)" font-family="Helvetica" font-size="72" font-weight="800" fill="#000000">10</text>
    <path d="M 284 284 Q 311 242 290 137 Q 266 41 196 -9 Q 184 -19 170 -30 Q 160 -39 170 -41 Q 252 -32 312 63 Q 312 66 328 96 Q 344 132 349 173 Q 364 252 367 257 Q 374 273 359 281 Q 343 293 329 298 Q 307 308 290 302 Q 277 298 284 284 Z" class="stroke11"/>
    <text x="292" y="291" transform="translate(292,291) scale(1,-1) translate(-292,-291)" font-family="Helvetica" font-size="72" font-weight="800" fill="#000000">11</text>
    <path d="M 640 325 Q 661 295 645 91 Q 644 79 642 69 Q 642 50 639 40 Q 624 -3 678 -73 Q 682 -79 688 -83 Q 701 -84 706 -69 Q 719 -35 715 -1 Q 705 236 714 291 Q 717 304 709 312 Q 682 334 662 344 Q 649 348 638 339 Q 632 335 640 325 Z" class="stroke12"/>
    <text x="648" y="333" transform="translate(648,333) scale(1,-1) translate(-648,-333)" font-family="Helvetica" font-size="72" font-weight="800" fill="#000000">12</text>
    <path d="M 401 283 Q 370 279 391 264 Q 421 245 494 254 Q 533 260 575 265 Q 597 269 602 272 Q 609 278 606 286 Q 600 296 576 304 Q 551 310 524 301 Q 497 294 469 289 Q 438 285 401 283 Z" class="stroke13"/>
    <text x="394" y="275" transform="translate(394,275) scale(1,-1) translate(-394,-275)" font-family="Helvetica" font-size="72" font-weight="800" fill="#000000">13</text>
    <path d="M 393 183 Q 362 180 383 164 Q 416 143 466 150 Q 524 159 586 168 Q 613 172 618 176 Q 625 182 622 190 Q 616 200 592 208 Q 567 215 540 205 Q 509 198 474 191 Q 437 184 393 183 Z" class="stroke14"/>
    <text x="386" y="175" transform="translate(386,175) scale(1,-1) translate(-386,-175)" font-family="Helvetica" font-size="72" font-weight="800" fill="#000000">14</text>
</g>
</svg>