<svg version="1.1" viewBox="0 0 1024 1024" xmlns="http://www.w3.org/2000/svg">
  <rect width="1024" height="1024" fill="white"/>
  <rect width="1024" height="1024" fill="none" stroke="black" stroke-width="4"/>
  <g stroke="black" stroke-dasharray="4,4" stroke-width="1" transform="scale(4, 4)">
    <line x1="0" y1="0" x2="256" y2="256"/>
    <line x1="256" y1="0" x2="0" y2="256"/>
    <line x1="128" y1="0" x2="128" y2="256"/>
    <line x1="0" y1="128" x2="256" y2="128"/>
  </g>
  <g transform="scale(1, -1) translate(0, -900)">
    <style type="text/css">
        .stroke1 {fill: #808080;}
        .stroke2 {fill: #808080;}
        .stroke3 {fill: #808080;}
        .stroke4 {fill: #808080;}
        .stroke5 {fill: #808080;}
        .stroke6 {fill: #808080;}
        .stroke7 {fill: #808080;}
        .stroke8 {fill: #808080;}
        .stroke9 {fill: #808080;}
        .stroke10 {fill: #808080;}
        .stroke11 {fill: #808080;}
        .stroke12 {fill: #808080;}
        .stroke13 {fill: #808080;}
        .stroke14 {fill: #808080;}
        .stroke15 {fill: #808080;}
        .stroke16 {fill: #808080;}
        .stroke17 {fill: #808080;}
        .stroke18 {fill: #808080;}
        .stroke19 {fill: #808080;}
        .stroke20 {fill: #808080;}
        
    </style>

    <path d="M 350 796 Q 372 775 398 751 Q 411 738 426 739 Q 436 740 441 753 Q 445 766 437 795 Q 428 822 345 842 Q 330 846 324 843 Q 320 839 321 827 Q 324 817 350 796 Z" class="stroke1"/>
    <text x="329" y="837" transform="translate(329,837) scale(1,-1) translate(-329,-837)" font-family="Helvetica" font-size="72" font-weight="800" fill="#000000">1</text>
    <path d="M 440 663 Q 450 667 462 668 Q 501 675 506 681 Q 513 688 510 694 Q 504 704 481 710 Q 457 716 367 687 Q 295 672 227 666 Q 199 662 219 647 Q 249 629 311 640 Q 356 649 406 657 L 440 663 Z" class="stroke2"/>
    <text x="221" y="657" transform="translate(221,657) scale(1,-1) translate(-221,-657)" font-family="Helvetica" font-size="72" font-weight="800" fill="#000000">2</text>
    <path d="M 253 579 Q 271 542 289 526 Q 299 522 308 529 Q 315 536 316 550 Q 313 581 268 604 Q 258 611 250 610 Q 246 610 245 601 Q 244 592 253 579 Z" class="stroke3"/>
    <text x="253" y="602" transform="translate(253,602) scale(1,-1) translate(-253,-602)" font-family="Helvetica" font-size="72" font-weight="800" fill="#000000">3</text>
    <path d="M 407 534 Q 423 556 440 585 Q 449 598 463 614 Q 476 624 469 634 Q 462 647 440 663 C 416 681 399 686 406 657 Q 416 624 370 529 Q 369 528 368 525 C 355 498 390 510 407 534 Z" class="stroke4"/>
    <text x="412" y="654" transform="translate(412,654) scale(1,-1) translate(-412,-654)" font-family="Helvetica" font-size="72" font-weight="800" fill="#000000">4</text>
    <path d="M 368 525 Q 170 480 72 469 Q 60 468 57 460 Q 54 450 69 439 Q 105 412 145 426 Q 308 483 509 513 Q 525 514 526 522 Q 527 534 510 542 Q 480 555 407 534 L 368 525 Z" class="stroke5"/>
    <text x="68" y="456" transform="translate(68,456) scale(1,-1) translate(-68,-456)" font-family="Helvetica" font-size="72" font-weight="800" fill="#000000">5</text>
    <path d="M 275 204 Q 276 243 280 272 L 282 301 Q 283 344 288 361 Q 288 365 288 367 C 290 382 290 382 281 389 Q 260 410 229 410 Q 216 406 221 395 Q 261 302 220 115 Q 199 55 199 53 Q 199 23 216 1 Q 223 -12 232 -7 Q 271 18 272 138 Q 272 160 274 179 L 275 204 Z" class="stroke6"/>
    <text x="230" y="400" transform="translate(230,400) scale(1,-1) translate(-230,-400)" font-family="Helvetica" font-size="72" font-weight="800" fill="#000000">6</text>
    <path d="M 288 367 Q 370 394 385 389 Q 394 383 391 364 Q 404 204 393 79 Q 392 54 377 49 Q 370 48 336 56 Q 326 59 326 53 Q 327 46 339 37 Q 363 12 380 -13 Q 390 -26 402 -26 Q 417 -23 435 20 Q 457 63 454 108 Q 447 214 439 313 Q 435 352 451 382 Q 461 395 449 406 Q 434 418 403 428 Q 391 434 346 413 Q 343 413 281 389 C 253 378 259 358 288 367 Z" class="stroke7"/>
    <text x="297" y="376" transform="translate(297,376) scale(1,-1) translate(-297,-376)" font-family="Helvetica" font-size="72" font-weight="800" fill="#000000">7</text>
    <path d="M 280 272 Q 320 282 352 288 Q 368 292 361 302 Q 352 312 332 314 Q 313 314 283 302 Q 282 302 282 301 C 257 285 251 265 280 272 Z" class="stroke8"/>
    <text x="287" y="279" transform="translate(287,279) scale(1,-1) translate(-287,-279)" font-family="Helvetica" font-size="72" font-weight="800" fill="#000000">8</text>
    <path d="M 274 179 Q 322 189 359 196 Q 377 200 369 210 Q 360 220 340 223 Q 310 226 275 204 C 249 188 245 173 274 179 Z" class="stroke9"/>
    <text x="281" y="185" transform="translate(281,185) scale(1,-1) translate(-281,-185)" font-family="Helvetica" font-size="72" font-weight="800" fill="#000000">9</text>
    <path d="M 649 726 Q 683 714 755 731 Q 785 738 818 746 Q 837 750 840 754 Q 847 761 843 769 Q 836 779 809 785 Q 790 788 711 762 Q 684 756 654 751 C 624 746 620 735 649 726 Z" class="stroke10"/>
    <text x="656" y="731" transform="translate(656,731) scale(1,-1) translate(-656,-731)" font-family="Helvetica" font-size="72" font-weight="800" fill="#000000">10</text>
    <path d="M 782 508 Q 800 548 818 590 Q 824 599 834 605 Q 847 614 845 623 Q 842 632 796 659 Q 775 669 758 659 Q 716 640 651 616 Q 632 612 633 631 Q 642 686 649 726 L 654 751 Q 661 788 668 803 Q 678 828 651 842 Q 605 861 591 855 Q 579 851 591 834 Q 607 810 597 678 Q 598 638 581 605 Q 571 590 593 571 Q 609 555 621 567 Q 657 597 735 613 Q 762 620 755 581 Q 749 559 735 516 C 726 487 770 481 782 508 Z" class="stroke11"/>
    <text x="596" y="845" transform="translate(596,845) scale(1,-1) translate(-596,-845)" font-family="Helvetica" font-size="72" font-weight="800" fill="#000000">11</text>
    <path d="M 611 438 Q 638 451 791 481 Q 801 482 802 492 Q 802 499 782 508 C 756 521 756 521 735 516 Q 728 515 722 512 Q 647 484 587 469 C 558 462 583 426 611 438 Z" class="stroke12"/>
    <text x="595" y="467" transform="translate(595,467) scale(1,-1) translate(-595,-467)" font-family="Helvetica" font-size="72" font-weight="800" fill="#000000">12</text>
    <path d="M 593 190 Q 593 244 594 266 L 595 288 Q 596 322 601 357 L 603 380 Q 604 428 611 438 C 616 458 615 458 587 469 Q 578 475 566 478 Q 553 482 545 477 Q 538 473 544 456 Q 557 417 556 380 Q 546 151 567 88 Q 574 60 599 35 Q 683 -37 849 -15 Q 868 -11 890 -6 Q 933 7 974 40 Q 993 53 983 79 Q 973 109 963 195 Q 964 211 957 218 Q 951 222 945 204 Q 908 114 886 88 Q 873 69 832 58 Q 736 36 656 71 Q 605 98 596 169 L 593 190 Z" class="stroke13"/>
    <text x="553" y="468" transform="translate(553,468) scale(1,-1) translate(-553,-468)" font-family="Helvetica" font-size="72" font-weight="800" fill="#000000">13</text>
    <path d="M 601 357 Q 643 353 703 360 Q 788 378 791 379 Q 797 385 794 391 Q 790 400 767 406 Q 745 410 722 402 Q 695 395 667 388 Q 637 384 603 380 C 573 376 571 360 601 357 Z" class="stroke14"/>
    <text x="608" y="362" transform="translate(608,362) scale(1,-1) translate(-608,-362)" font-family="Helvetica" font-size="72" font-weight="800" fill="#000000">14</text>
    <path d="M 594 266 Q 624 253 769 279 Q 794 283 798 287 Q 805 293 802 299 Q 798 308 775 314 Q 753 320 730 311 Q 702 302 670 296 Q 636 290 595 288 C 565 286 565 275 594 266 Z" class="stroke15"/>
    <text x="599" y="271" transform="translate(599,271) scale(1,-1) translate(-599,-271)" font-family="Helvetica" font-size="72" font-weight="800" fill="#000000">15</text>
    <path d="M 596 169 Q 638 151 674 161 Q 729 170 788 179 Q 813 183 818 188 Q 825 195 822 202 Q 816 212 792 219 Q 773 223 691 203 Q 643 194 600 192 Q 594 192 593 190 C 565 182 568 180 596 169 Z" class="stroke16"/>
    <text x="598" y="185" transform="translate(598,185) scale(1,-1) translate(-598,-185)" font-family="Helvetica" font-size="72" font-weight="800" fill="#000000">16</text>
</g>
</svg>