<svg version="1.1" viewBox="0 0 1024 1024" xmlns="http://www.w3.org/2000/svg">
  <rect width="1024" height="1024" fill="white"/>
  <rect width="1024" height="1024" fill="none" stroke="black" stroke-width="4"/>
  <g stroke="black" stroke-dasharray="4,4" stroke-width="1" transform="scale(4, 4)">
    <line x1="0" y1="0" x2="256" y2="256"/>
    <line x1="256" y1="0" x2="0" y2="256"/>
    <line x1="128" y1="0" x2="128" y2="256"/>
    <line x1="0" y1="128" x2="256" y2="128"/>
  </g>
  <g transform="scale(1, -1) translate(0, -900)">
    <style type="text/css">
        .stroke1 {fill: #808080;}
        .stroke2 {fill: #808080;}
        .stroke3 {fill: #808080;}
        .stroke4 {fill: #808080;}
        .stroke5 {fill: #808080;}
        .stroke6 {fill: #808080;}
        .stroke7 {fill: #808080;}
        .stroke8 {fill: #808080;}
        .stroke9 {fill: #808080;}
        .stroke10 {fill: #808080;}
        .stroke11 {fill: #808080;}
        .stroke12 {fill: #808080;}
        .stroke13 {fill: #808080;}
        .stroke14 {fill: #808080;}
        .stroke15 {fill: #808080;}
        .stroke16 {fill: #808080;}
        .stroke17 {fill: #808080;}
        .stroke18 {fill: #808080;}
        .stroke19 {fill: #808080;}
        .stroke20 {fill: #808080;}
        
    </style>

    <path d="M 467 792 Q 477 804 490 813 Q 502 820 493 836 Q 463 872 442 875 Q 432 875 431 863 Q 427 790 303 706 Q 293 700 287 694 Q 277 684 291 684 Q 304 683 326 691 Q 393 719 437 764 Q 441 768 446 773 L 467 792 Z" class="stroke1"/>
    <text x="442" y="864" transform="translate(442,864) scale(1,-1) translate(-442,-864)" font-family="Helvetica" font-size="72" font-weight="800" fill="#000000">1</text>
    <path d="M 520 674 Q 596 744 644 765 Q 663 774 652 787 Q 640 800 606 823 Q 591 830 576 822 Q 567 818 497 798 L 467 792 C 438 786 417 781 446 773 Q 465 764 546 777 Q 555 778 557 776 Q 560 773 554 765 Q 512 702 487 674 Q 484 671 482 667 C 464 643 498 654 520 674 Z" class="stroke2"/>
    <text x="458" y="776" transform="translate(458,776) scale(1,-1) translate(-458,-776)" font-family="Helvetica" font-size="72" font-weight="800" fill="#000000">2</text>
    <path d="M 287 635 Q 275 641 243 641 Q 233 642 230 638 Q 226 632 235 620 Q 262 583 285 518 Q 291 499 305 488 Q 323 472 325 485 Q 325 488 325 490 L 323 515 Q 322 522 320 529 Q 304 578 298 602 C 290 631 290 634 287 635 Z" class="stroke3"/>
    <text x="238" y="633" transform="translate(238,633) scale(1,-1) translate(-238,-633)" font-family="Helvetica" font-size="72" font-weight="800" fill="#000000">3</text>
    <path d="M 425 631 Q 443 637 517 645 L 564 651 Q 616 658 685 665 Q 703 666 709 658 Q 713 646 677 571 C 664 544 711 538 726 564 Q 757 618 784 632 Q 803 651 780 669 Q 759 688 737 704 Q 724 716 702 709 Q 665 696 610 687 Q 565 683 520 674 L 482 667 Q 440 663 398 653 Q 332 641 287 635 C 257 631 269 593 298 602 Q 337 615 401 627 L 425 631 Z" class="stroke4"/>
    <text x="293" y="631" transform="translate(293,631) scale(1,-1) translate(-293,-631)" font-family="Helvetica" font-size="72" font-weight="800" fill="#000000">4</text>
    <path d="M 325 490 Q 329 490 334 491 Q 362 498 418 503 C 448 506 448 533 418 535 Q 408 536 396 533 Q 356 523 323 515 C 294 508 295 488 325 490 Z" class="stroke5"/>
    <text x="329" y="497" transform="translate(329,497) scale(1,-1) translate(-329,-497)" font-family="Helvetica" font-size="72" font-weight="800" fill="#000000">5</text>
    <path d="M 584 520 Q 590 520 597 521 Q 640 531 734 538 Q 743 539 744 546 Q 744 552 726 564 C 706 578 706 578 677 571 Q 625 558 585 550 C 556 544 554 519 584 520 Z" class="stroke6"/>
    <text x="590" y="527" transform="translate(590,527) scale(1,-1) translate(-590,-527)" font-family="Helvetica" font-size="72" font-weight="800" fill="#000000">6</text>
    <path d="M 517 645 Q 529 615 542 583 Q 542 403 536 242 Q 532 73 547 46 Q 551 40 558 43 Q 565 46 569 58 Q 573 71 580 148 L 582 179 Q 583 212 583 243 Q 580 288 582 428 L 582 458 Q 583 488 584 520 L 585 550 Q 586 566 588 577 Q 592 599 595 615 Q 598 630 586 638 Q 573 647 564 651 C 538 666 506 673 517 645 Z" class="stroke7"/>
    <text x="525" y="641" transform="translate(525,641) scale(1,-1) translate(-525,-641)" font-family="Helvetica" font-size="72" font-weight="800" fill="#000000">7</text>
    <path d="M 420 152 Q 436 50 460 12 Q 484 -22 532 -40 Q 593 -59 726 -58 Q 835 -57 897 -40 Q 945 -30 951 -18 Q 958 -6 950 11 Q 931 60 920 134 Q 916 152 908 156 Q 901 160 896 141 Q 863 38 849 29 Q 840 17 803 11 Q 686 -11 612 -7 Q 528 -3 490 50 Q 460 96 462 322 Q 463 491 478 575 Q 487 609 425 631 C 398 644 396 645 401 627 Q 398 621 405 610 Q 417 583 418 535 L 418 503 Q 417 445 416 380 L 416 358 Q 416 202 418 173 L 420 152 Z" class="stroke8"/>
    <text x="408" y="623" transform="translate(408,623) scale(1,-1) translate(-408,-623)" font-family="Helvetica" font-size="72" font-weight="800" fill="#000000">8</text>
    <path d="M 366 385 Q 370 395 378 402 Q 396 421 378 432 Q 365 442 344 455 Q 329 464 315 455 Q 302 446 282 441 Q 260 434 226 430 Q 217 430 219 425 Q 219 421 229 414 Q 236 411 306 416 Q 316 417 319 412 Q 325 408 319 379 Q 318 376 317 371 L 310 342 Q 306 329 303 313 C 297 284 335 280 341 309 Q 345 331 351 349 L 366 385 Z" class="stroke9"/>
    <text x="227" y="422" transform="translate(227,422) scale(1,-1) translate(-227,-422)" font-family="Helvetica" font-size="72" font-weight="800" fill="#000000">9</text>
    <path d="M 416 380 Q 416 381 415 381 Q 394 394 366 385 L 317 371 Q 305 370 294 366 Q 240 354 134 339 Q 115 336 130 325 Q 146 312 187 317 Q 241 330 310 342 L 351 349 Q 385 355 416 358 C 446 361 442 365 416 380 Z" class="stroke10"/>
    <text x="139" y="330" transform="translate(139,330) scale(1,-1) translate(-139,-330)" font-family="Helvetica" font-size="72" font-weight="800" fill="#000000">10</text>
    <path d="M 303 313 Q 270 306 206 291 Q 187 288 202 277 Q 220 262 255 270 Q 306 282 346 286 Q 353 286 359 295 Q 359 302 344 308 Q 343 309 341 309 L 303 313 Z" class="stroke11"/>
    <text x="212" y="282" transform="translate(212,282) scale(1,-1) translate(-212,-282)" font-family="Helvetica" font-size="72" font-weight="800" fill="#000000">11</text>
    <path d="M 322 88 Q 328 118 336 139 L 350 172 Q 354 182 361 188 Q 379 209 360 220 Q 345 229 324 242 Q 311 251 260 225 Q 233 216 194 209 Q 184 210 186 204 Q 187 200 197 194 Q 212 187 238 193 Q 295 208 300 199 Q 307 193 299 162 Q 298 162 298 160 L 292 132 Q 288 113 283 92 C 276 63 316 59 322 88 Z" class="stroke12"/>
    <text x="193" y="201" transform="translate(193,201) scale(1,-1) translate(-193,-201)" font-family="Helvetica" font-size="72" font-weight="800" fill="#000000">12</text>
    <path d="M 336 139 Q 373 146 416 152 Q 417 153 420 152 C 450 155 445 161 418 173 Q 418 174 417 174 Q 392 186 350 172 L 298 160 Q 148 132 95 128 Q 85 127 83 121 Q 82 114 92 105 Q 119 84 177 103 Q 258 127 292 132 L 336 139 Z" class="stroke13"/>
    <text x="92" y="119" transform="translate(92,119) scale(1,-1) translate(-92,-119)" font-family="Helvetica" font-size="72" font-weight="800" fill="#000000">13</text>
    <path d="M 283 92 Q 276 91 272 89 Q 218 70 175 59 Q 157 55 170 40 Q 177 33 187 30 Q 197 29 209 33 Q 248 45 335 59 Q 345 60 346 69 Q 345 76 322 88 C 306 97 306 97 283 92 Z" class="stroke14"/>
    <text x="174" y="49" transform="translate(174,49) scale(1,-1) translate(-174,-49)" font-family="Helvetica" font-size="72" font-weight="800" fill="#000000">14</text>
    <path d="M 710 162 Q 725 143 743 106 Q 753 90 767 101 Q 795 119 809 271 Q 819 403 837 433 Q 847 452 832 463 Q 775 508 736 491 Q 648 467 582 458 C 552 454 552 427 582 428 Q 595 425 645 437 Q 745 467 761 457 Q 771 453 771 430 Q 770 315 748 194 Q 747 184 731 185 C 703 173 702 173 710 162 Z" class="stroke15"/>
    <text x="587" y="436" transform="translate(587,436) scale(1,-1) translate(-587,-436)" font-family="Helvetica" font-size="72" font-weight="800" fill="#000000">15</text>
    <path d="M 691 317 Q 704 336 713 352 Q 720 368 727 376 Q 731 383 726 391 Q 716 406 706 412 Q 697 419 688 418 Q 678 417 683 406 Q 683 405 685 402 Q 689 375 666 333 L 652 307 Q 651 306 649 302 Q 630 271 605 240 Q 601 237 601 233 Q 601 230 604 230 Q 628 234 671 289 L 691 317 Z" class="stroke16"/>
    <text x="692" y="409" transform="translate(692,409) scale(1,-1) translate(-692,-409)" font-family="Helvetica" font-size="72" font-weight="800" fill="#000000">16</text>
    <path d="M 671 289 Q 713 247 716 245 Q 720 244 724 250 Q 731 256 724 278 Q 723 293 691 317 L 666 333 Q 626 358 603 370 Q 599 373 597 367 L 652 307 L 671 289 Z" class="stroke17"/>
    <text x="603" y="363" transform="translate(603,363) scale(1,-1) translate(-603,-363)" font-family="Helvetica" font-size="72" font-weight="800" fill="#000000">17</text>
    <path d="M 580 148 Q 584 148 589 149 Q 628 158 710 162 C 740 164 753 165 731 185 Q 725 191 714 198 Q 699 205 673 199 Q 622 187 582 179 C 553 173 550 146 580 148 Z" class="stroke18"/>
    <text x="584" y="156" transform="translate(584,156) scale(1,-1) translate(-584,-156)" font-family="Helvetica" font-size="72" font-weight="800" fill="#000000">18</text>
</g>
</svg>